<?xml version="1.0" encoding="UTF-8"?>
<!DOCTYPE svg PUBLIC "-//W3C//DTD SVG 1.1//EN" "http://www.w3.org/Graphics/SVG/1.1/DTD/svg11.dtd">
<svg xmlns="http://www.w3.org/2000/svg" version="1.1" width="4500px" height="4500px" style="shape-rendering:geometricPrecision; text-rendering:geometricPrecision; image-rendering:optimizeQuality; fill-rule:evenodd; clip-rule:evenodd" xmlns:xlink="http://www.w3.org/1999/xlink">
<g><path style="opacity:0.988" fill="#14334a" d="M 634.5,1963.5 C 655.644,1961.32 671.478,1969.32 682,1987.5C 756.667,2140.17 831.333,2292.83 906,2445.5C 916.834,2467.66 913.667,2487.49 896.5,2505C 878.329,2518.1 859.662,2518.77 840.5,2507C 836,2503.83 832.167,2500 829,2495.5C 765.561,2367.29 703.228,2238.62 642,2109.5C 580.951,2239.6 518.285,2368.93 454,2497.5C 436.14,2516.43 415.64,2519.93 392.5,2508C 373.471,2493.24 367.971,2474.4 376,2451.5C 451.805,2295.22 528.138,2139.22 605,1983.5C 612.322,1972.99 622.155,1966.33 634.5,1963.5 Z"/></g>
<g><path style="opacity:0.991" fill="#14334a" d="M 1070.5,1963.5 C 1085.52,1961.75 1098.86,1965.59 1110.5,1975C 1232.36,2101.2 1353.86,2227.7 1475,2354.5C 1475.01,2235.47 1475.68,2116.47 1477,1997.5C 1487.59,1968.95 1507.76,1958.45 1537.5,1966C 1552.97,1972.1 1562.47,1983.27 1566,1999.5C 1566.67,2159.5 1566.67,2319.5 1566,2479.5C 1560.45,2502.21 1545.95,2514.21 1522.5,2515.5C 1510.76,2515.31 1500.42,2511.48 1491.5,2504C 1369.67,2376.83 1247.83,2249.67 1126,2122.5C 1125.99,2242.2 1125.32,2361.87 1124,2481.5C 1117.04,2502.66 1102.37,2514 1080,2515.5C 1055.48,2513.98 1040.48,2501.31 1035,2477.5C 1034.33,2318.83 1034.33,2160.17 1035,2001.5C 1038.82,1981.18 1050.65,1968.52 1070.5,1963.5 Z"/></g>
<g><path style="opacity:0.989" fill="#14334a" d="M 1951.5,1963.5 C 1970.78,1961.72 1985.94,1968.72 1997,1984.5C 2072.67,2139.17 2148.33,2293.83 2224,2448.5C 2234.53,2475.26 2227.69,2496.09 2203.5,2511C 2186.08,2517.89 2169.75,2515.89 2154.5,2505C 2150.25,2501.42 2146.75,2497.25 2144,2492.5C 2081.52,2365.2 2019.85,2237.53 1959,2109.5C 1923,2184.83 1887,2260.17 1851,2335.5C 1824.78,2390.27 1797.78,2444.6 1770,2498.5C 1752.68,2516.12 1732.85,2519.62 1710.5,2509C 1690.21,2494.06 1684.38,2474.56 1693,2450.5C 1769.41,2294.01 1846.08,2137.68 1923,1981.5C 1930.45,1972.04 1939.95,1966.04 1951.5,1963.5 Z"/></g>
<g><path style="opacity:0.879" fill="#14334a" d="M 2379.5,2175.5 C 2383.83,2175.5 2388.17,2175.5 2392.5,2175.5C 2392.5,2214.83 2392.5,2254.17 2392.5,2293.5C 2388.17,2293.5 2383.83,2293.5 2379.5,2293.5C 2379.5,2254.17 2379.5,2214.83 2379.5,2175.5 Z"/></g>
<g><path style="opacity:0.944" fill="#14334a" d="M 2455.5,2175.5 C 2459.5,2175.5 2463.5,2175.5 2467.5,2175.5C 2467.5,2211.5 2467.5,2247.5 2467.5,2283.5C 2488.5,2283.5 2509.5,2283.5 2530.5,2283.5C 2530.5,2286.83 2530.5,2290.17 2530.5,2293.5C 2505.5,2293.5 2480.5,2293.5 2455.5,2293.5C 2455.5,2254.17 2455.5,2214.83 2455.5,2175.5 Z"/></g>
<g><path style="opacity:0.929" fill="#14334a" d="M 2580.5,2175.5 C 2584.5,2175.5 2588.5,2175.5 2592.5,2175.5C 2592.05,2204.87 2592.55,2234.2 2594,2263.5C 2598.72,2279.21 2609.39,2286.88 2626,2286.5C 2642.61,2286.88 2653.28,2279.21 2658,2263.5C 2659.45,2234.2 2659.95,2204.87 2659.5,2175.5C 2663.5,2175.5 2667.5,2175.5 2671.5,2175.5C 2671.67,2204.17 2671.5,2232.84 2671,2261.5C 2666.01,2285.81 2651.01,2297.48 2626,2296.5C 2601.02,2297.51 2586.02,2285.84 2581,2261.5C 2580.5,2232.84 2580.33,2204.17 2580.5,2175.5 Z"/></g>
<g><path style="opacity:0.925" fill="#14334a" d="M 2731.5,2175.5 C 2737.5,2175.5 2743.5,2175.5 2749.5,2175.5C 2761.69,2209.58 2774.19,2243.58 2787,2277.5C 2799.33,2243.83 2811.67,2210.17 2824,2176.5C 2830.08,2175.52 2836.24,2175.19 2842.5,2175.5C 2842.5,2214.83 2842.5,2254.17 2842.5,2293.5C 2838.5,2293.5 2834.5,2293.5 2830.5,2293.5C 2830.67,2259.5 2830.5,2225.5 2830,2191.5C 2817.5,2225.17 2805,2258.83 2792.5,2292.5C 2790.5,2292.83 2788.5,2293.17 2786.5,2293.5C 2784.04,2293.41 2781.87,2292.74 2780,2291.5C 2768,2258.83 2756,2226.17 2744,2193.5C 2743.5,2226.83 2743.33,2260.17 2743.5,2293.5C 2739.5,2293.5 2735.5,2293.5 2731.5,2293.5C 2731.5,2254.17 2731.5,2214.83 2731.5,2175.5 Z"/></g>
<g><path style="opacity:0.932" fill="#14334a" d="M 2905.5,2175.5 C 2909.5,2175.5 2913.5,2175.5 2917.5,2175.5C 2917.5,2214.83 2917.5,2254.17 2917.5,2293.5C 2913.5,2293.5 2909.5,2293.5 2905.5,2293.5C 2905.5,2254.17 2905.5,2214.83 2905.5,2175.5 Z"/></g>
<g><path style="opacity:0.928" fill="#14334a" d="M 2980.5,2175.5 C 2984.85,2175.33 2989.18,2175.5 2993.5,2176C 3016.04,2208.91 3038.21,2242.08 3060,2275.5C 3060.5,2242.17 3060.67,2208.83 3060.5,2175.5C 3064.5,2175.5 3068.5,2175.5 3072.5,2175.5C 3072.5,2214.83 3072.5,2254.17 3072.5,2293.5C 3067.57,2293.8 3062.74,2293.47 3058,2292.5C 3036.33,2259.5 3014.67,2226.5 2993,2193.5C 2992.5,2226.83 2992.33,2260.17 2992.5,2293.5C 2988.5,2293.5 2984.5,2293.5 2980.5,2293.5C 2980.5,2254.17 2980.5,2214.83 2980.5,2175.5 Z"/></g>
<g><path style="opacity:0.925" fill="#14334a" d="M 3167.5,2175.5 C 3171.85,2175.33 3176.18,2175.5 3180.5,2176C 3196,2214.99 3211,2254.16 3225.5,2293.5C 3221.23,2293.8 3217.07,2293.46 3213,2292.5C 3208.69,2280.57 3204.19,2268.74 3199.5,2257C 3182.16,2256.17 3164.82,2256.33 3147.5,2257.5C 3143,2269.17 3138.5,2280.83 3134,2292.5C 3129.93,2293.46 3125.77,2293.8 3121.5,2293.5C 3136.27,2253.95 3151.61,2214.62 3167.5,2175.5 Z M 3172.5,2188.5 C 3174.28,2189.57 3175.45,2191.24 3176,2193.5C 3182.4,2210.87 3188.9,2228.21 3195.5,2245.5C 3180.84,2246.67 3166.18,2246.83 3151.5,2246C 3159,2227.01 3166,2207.84 3172.5,2188.5 Z"/></g>
<g><path style="opacity:0.98" fill="#14334a" d="M 637.5,2332.5 C 667.571,2334.57 684.238,2350.57 687.5,2380.5C 686.391,2402.9 675.391,2418.06 654.5,2426C 633.769,2431.61 616.269,2426.44 602,2410.5C 592.153,2396.04 589.819,2380.37 595,2363.5C 603.157,2344.83 617.324,2334.5 637.5,2332.5 Z"/></g>
<g><path style="opacity:0.98" fill="#14334a" d="M 1954.5,2332.5 C 1984.27,2335.11 2000.61,2351.27 2003.5,2381C 2002.24,2403.19 1991.24,2418.19 1970.5,2426C 1941.33,2432.5 1921.16,2422 1910,2394.5C 1904.64,2372.57 1910.81,2354.73 1928.5,2341C 1936.61,2336.02 1945.28,2333.18 1954.5,2332.5 Z"/></g>
<g><path style="opacity:0.917" fill="#14334a" d="M 2678.5,2382.5 C 2692.13,2380.57 2704.79,2383.07 2716.5,2390C 2725.27,2397.46 2729.27,2406.96 2728.5,2418.5C 2724.83,2418.5 2721.17,2418.5 2717.5,2418.5C 2716.84,2403.67 2709.17,2395.17 2694.5,2393C 2683.83,2391.33 2674.33,2393.83 2666,2400.5C 2656.81,2413.9 2659.31,2424.4 2673.5,2432C 2685.78,2435.49 2698.12,2438.82 2710.5,2442C 2724.88,2446.75 2732.22,2456.75 2732.5,2472C 2731.36,2490.47 2721.7,2501.47 2703.5,2505C 2688.39,2508.31 2674.06,2506.31 2660.5,2499C 2650.83,2491.15 2645.83,2480.98 2645.5,2468.5C 2649.5,2467.17 2653.5,2467.17 2657.5,2468.5C 2660.49,2487.18 2671.49,2496.18 2690.5,2495.5C 2707.52,2496.8 2717.52,2489.14 2720.5,2472.5C 2718.46,2460.62 2711.46,2453.45 2699.5,2451C 2689.41,2448.64 2679.41,2445.98 2669.5,2443C 2648.48,2432.98 2643.31,2417.48 2654,2396.5C 2660.55,2388.82 2668.71,2384.15 2678.5,2382.5 Z"/></g>
<g><path style="opacity:0.916" fill="#14334a" d="M 3187.5,2382.5 C 3204.08,2379.85 3219.08,2383.35 3232.5,2393C 3240.19,2400.54 3244.52,2409.71 3245.5,2420.5C 3241.49,2420.67 3237.49,2420.5 3233.5,2420C 3228.65,2401.67 3216.65,2392.5 3197.5,2392.5C 3176.69,2393.47 3163.86,2404.14 3159,2424.5C 3154.4,2444.11 3156.73,2462.77 3166,2480.5C 3176.11,2493.21 3189.28,2498.04 3205.5,2495C 3221.32,2490.52 3230.98,2480.18 3234.5,2464C 3238.49,2463.5 3242.49,2463.33 3246.5,2463.5C 3241.36,2491.5 3224.52,2505.83 3196,2506.5C 3171.05,2506.36 3155.05,2494.36 3148,2470.5C 3142.12,2448.2 3143.79,2426.54 3153,2405.5C 3160.96,2392.44 3172.46,2384.78 3187.5,2382.5 Z"/></g>
<g><path style="opacity:0.918" fill="#14334a" d="M 3406.5,2382.5 C 3421.04,2380.25 3434.37,2383.08 3446.5,2391C 3454.17,2398.49 3457.84,2407.66 3457.5,2418.5C 3453.5,2418.5 3449.5,2418.5 3445.5,2418.5C 3444.31,2401.32 3434.98,2392.65 3417.5,2392.5C 3405.83,2392.08 3396.99,2396.75 3391,2406.5C 3387.33,2420.99 3392.83,2430.15 3407.5,2434C 3418.23,2436.41 3428.9,2439.08 3439.5,2442C 3457.44,2448.78 3464.28,2461.62 3460,2480.5C 3457.37,2491.79 3450.54,2499.29 3439.5,2503C 3420.26,2509.43 3402.26,2507.1 3385.5,2496C 3378.01,2488.04 3374.35,2478.54 3374.5,2467.5C 3378.5,2467.5 3382.5,2467.5 3386.5,2467.5C 3387.57,2482.74 3395.57,2491.91 3410.5,2495C 3418.99,2496.07 3427.33,2495.4 3435.5,2493C 3448.17,2485.65 3451.67,2475.15 3446,2461.5C 3441.96,2457.12 3437.12,2453.96 3431.5,2452C 3418.64,2448.95 3405.97,2445.29 3393.5,2441C 3382.68,2435.53 3377.34,2426.69 3377.5,2414.5C 3377.36,2404.29 3381.36,2396.12 3389.5,2390C 3394.87,2386.61 3400.54,2384.11 3406.5,2382.5 Z"/></g>
<g><path style="opacity:0.92" fill="#14334a" d="M 3632.5,2382.5 C 3672.16,2379 3694.33,2397 3699,2436.5C 3701.42,2458.03 3695.58,2476.86 3681.5,2493C 3661.31,2508.13 3639.64,2510.46 3616.5,2500C 3602.67,2491.19 3594.17,2478.69 3591,2462.5C 3585.85,2438.57 3590.52,2416.91 3605,2397.5C 3612.73,2389.72 3621.9,2384.72 3632.5,2382.5 Z M 3637.5,2392.5 C 3664.54,2391.42 3680.7,2404.09 3686,2430.5C 3688.98,2446.98 3686.65,2462.65 3679,2477.5C 3664.91,2495.48 3647.08,2500.32 3625.5,2492C 3611.25,2483.7 3603.42,2471.2 3602,2454.5C 3599.93,2438.94 3602.59,2424.28 3610,2410.5C 3616.88,2400.82 3626.04,2394.82 3637.5,2392.5 Z"/></g>
<g><path style="opacity:0.916" fill="#14334a" d="M 4065.5,2382.5 C 4078.57,2380.87 4090.9,2383.03 4102.5,2389C 4111.66,2396.64 4116.33,2406.48 4116.5,2418.5C 4112.5,2418.5 4108.5,2418.5 4104.5,2418.5C 4103.2,2401.07 4093.7,2392.4 4076,2392.5C 4060.3,2392.07 4050.8,2399.41 4047.5,2414.5C 4048.15,2421.99 4051.82,2427.49 4058.5,2431C 4072.4,2435.31 4086.4,2439.31 4100.5,2443C 4115.72,2449.94 4121.89,2461.77 4119,2478.5C 4114.2,2495.84 4102.7,2505.01 4084.5,2506C 4070.83,2507.83 4058.16,2505.17 4046.5,2498C 4037.22,2490.01 4032.89,2479.84 4033.5,2467.5C 4037.5,2467.5 4041.5,2467.5 4045.5,2467.5C 4046.47,2482.3 4054.13,2491.46 4068.5,2495C 4082.54,2498.32 4094.37,2494.82 4104,2484.5C 4110.91,2469.96 4107.08,2459.46 4092.5,2453C 4079.74,2449.64 4067.07,2445.98 4054.5,2442C 4039.25,2434.99 4033.41,2423.16 4037,2406.5C 4039.23,2399.27 4043.4,2393.44 4049.5,2389C 4054.61,2385.94 4059.94,2383.77 4065.5,2382.5 Z"/></g>
<g><path style="opacity:0.948" fill="#14334a" d="M 2365.5,2385.5 C 2394.17,2385.5 2422.83,2385.5 2451.5,2385.5C 2451.5,2388.83 2451.5,2392.17 2451.5,2395.5C 2439.17,2395.5 2426.83,2395.5 2414.5,2395.5C 2414.5,2431.5 2414.5,2467.5 2414.5,2503.5C 2410.5,2503.5 2406.5,2503.5 2402.5,2503.5C 2402.5,2467.5 2402.5,2431.5 2402.5,2395.5C 2390.17,2395.5 2377.83,2395.5 2365.5,2395.5C 2365.5,2392.17 2365.5,2388.83 2365.5,2385.5 Z"/></g>
<g><path style="opacity:0.933" fill="#14334a" d="M 2500.5,2385.5 C 2504.5,2385.5 2508.5,2385.5 2512.5,2385.5C 2512.33,2410.5 2512.5,2435.5 2513,2460.5C 2514.19,2488.53 2528.69,2500.03 2556.5,2495C 2572.1,2491.01 2579.94,2480.84 2580,2464.5C 2580.5,2438.17 2580.67,2411.84 2580.5,2385.5C 2584.5,2385.5 2588.5,2385.5 2592.5,2385.5C 2592.67,2413.17 2592.5,2440.84 2592,2468.5C 2588.05,2494.41 2572.89,2507.08 2546.5,2506.5C 2519.09,2506.25 2503.92,2492.58 2501,2465.5C 2500.5,2438.84 2500.33,2412.17 2500.5,2385.5 Z"/></g>
<g><path style="opacity:0.931" fill="#14334a" d="M 2865.5,2385.5 C 2884.17,2385.33 2902.84,2385.5 2921.5,2386C 2943.82,2390.32 2956.65,2403.82 2960,2426.5C 2962.92,2443.21 2961.59,2459.54 2956,2475.5C 2948.07,2493.4 2934.24,2502.57 2914.5,2503C 2898.17,2503.5 2881.84,2503.67 2865.5,2503.5C 2865.5,2464.17 2865.5,2424.83 2865.5,2385.5 Z M 2877.5,2395.5 C 2891.87,2395.15 2906.2,2395.65 2920.5,2397C 2936.26,2401.1 2945.43,2411.27 2948,2427.5C 2950.64,2442.1 2949.64,2456.44 2945,2470.5C 2939.68,2483.09 2930.18,2490.26 2916.5,2492C 2903.5,2492.5 2890.5,2492.67 2877.5,2492.5C 2877.5,2460.17 2877.5,2427.83 2877.5,2395.5 Z"/></g>
<g><path style="opacity:0.921" fill="#14334a" d="M 3016.5,2385.5 C 3042.83,2385.5 3069.17,2385.5 3095.5,2385.5C 3095.5,2388.83 3095.5,2392.17 3095.5,2395.5C 3073.17,2395.5 3050.83,2395.5 3028.5,2395.5C 3028.5,2409.17 3028.5,2422.83 3028.5,2436.5C 3048.5,2436.5 3068.5,2436.5 3088.5,2436.5C 3088.5,2440.17 3088.5,2443.83 3088.5,2447.5C 3068.5,2447.5 3048.5,2447.5 3028.5,2447.5C 3028.5,2462.5 3028.5,2477.5 3028.5,2492.5C 3051.5,2492.5 3074.5,2492.5 3097.5,2492.5C 3097.5,2496.17 3097.5,2499.83 3097.5,2503.5C 3070.5,2503.5 3043.5,2503.5 3016.5,2503.5C 3016.5,2464.17 3016.5,2424.83 3016.5,2385.5 Z"/></g>
<g><path style="opacity:0.955" fill="#14334a" d="M 3305.5,2385.5 C 3309.5,2385.5 3313.5,2385.5 3317.5,2385.5C 3317.5,2424.83 3317.5,2464.17 3317.5,2503.5C 3313.5,2503.5 3309.5,2503.5 3305.5,2503.5C 3305.5,2464.17 3305.5,2424.83 3305.5,2385.5 Z"/></g>
<g><path style="opacity:0.934" fill="#14334a" d="M 3518.5,2385.5 C 3522.5,2385.5 3526.5,2385.5 3530.5,2385.5C 3530.5,2424.83 3530.5,2464.17 3530.5,2503.5C 3526.5,2503.5 3522.5,2503.5 3518.5,2503.5C 3518.5,2464.17 3518.5,2424.83 3518.5,2385.5 Z"/></g>
<g><path style="opacity:0.928" fill="#14334a" d="M 3754.5,2385.5 C 3759.21,2385.17 3763.88,2385.51 3768.5,2386.5C 3790.33,2419.5 3812.17,2452.5 3834,2485.5C 3834.5,2452.17 3834.67,2418.83 3834.5,2385.5C 3838.5,2385.5 3842.5,2385.5 3846.5,2385.5C 3846.5,2424.83 3846.5,2464.17 3846.5,2503.5C 3841.57,2503.8 3836.74,2503.47 3832,2502.5C 3810.33,2469.5 3788.67,2436.5 3767,2403.5C 3766.5,2436.83 3766.33,2470.17 3766.5,2503.5C 3762.5,2503.5 3758.5,2503.5 3754.5,2503.5C 3754.5,2464.17 3754.5,2424.83 3754.5,2385.5 Z"/></g>
<g><path style="opacity:0.904" fill="#14334a" d="M 3905.5,2385.5 C 3931.83,2385.5 3958.17,2385.5 3984.5,2385.5C 3984.5,2388.83 3984.5,2392.17 3984.5,2395.5C 3962.5,2395.5 3940.5,2395.5 3918.5,2395.5C 3918.5,2409.17 3918.5,2422.83 3918.5,2436.5C 3938.5,2436.5 3958.5,2436.5 3978.5,2436.5C 3978.5,2440.17 3978.5,2443.83 3978.5,2447.5C 3958.5,2447.5 3938.5,2447.5 3918.5,2447.5C 3918.5,2462.5 3918.5,2477.5 3918.5,2492.5C 3941.17,2492.5 3963.83,2492.5 3986.5,2492.5C 3986.5,2496.17 3986.5,2499.83 3986.5,2503.5C 3959.5,2503.5 3932.5,2503.5 3905.5,2503.5C 3905.5,2464.17 3905.5,2424.83 3905.5,2385.5 Z"/></g>
</svg>
