<?xml version="1.0" encoding="UTF-8"?>
<!DOCTYPE svg PUBLIC "-//W3C//DTD SVG 1.1//EN" "http://www.w3.org/Graphics/SVG/1.1/DTD/svg11.dtd">
<svg xmlns="http://www.w3.org/2000/svg" version="1.1" width="4500px" height="4500px" style="shape-rendering:geometricPrecision; text-rendering:geometricPrecision; image-rendering:optimizeQuality; fill-rule:evenodd; clip-rule:evenodd" xmlns:xlink="http://www.w3.org/1999/xlink">
<g><path style="opacity:0.999" fill="#04344c" d="M 2190.5,716.5 C 2352.05,711.141 2511.39,727.308 2668.5,765C 2917.38,828.228 3134.38,947.228 3319.5,1122C 3482.89,1281.92 3602.39,1470.42 3678,1687.5C 3730.53,1842.51 3759.53,2001.84 3765,2165.5C 3772.41,2334.03 3756.74,2500.37 3718,2664.5C 3661.46,2895.27 3556.79,3100.27 3404,3279.5C 3252.32,3451.96 3069.49,3580.46 2855.5,3665C 2817.04,3678.74 2777.38,3685.58 2736.5,3685.5C 2688.56,3684.06 2641.22,3677.89 2594.5,3667C 2548.43,3656.32 2502.43,3645.32 2456.5,3634C 2392.96,3618.11 2328.46,3609.61 2263,3608.5C 2216.43,3608.82 2170.27,3613.32 2124.5,3622C 2058.59,3635.23 1992.92,3649.56 1927.5,3665C 1879.07,3675.91 1830.07,3682.57 1780.5,3685C 1736.82,3686.85 1694.16,3681.18 1652.5,3668C 1323.46,3539.28 1076.63,3318.78 912,3006.5C 803.938,2794.92 745.605,2570.26 737,2332.5C 727.676,2150.06 745.676,1970.39 791,1793.5C 855.738,1553.93 971.738,1343.93 1139,1163.5C 1295.69,1000.51 1481.19,881.341 1695.5,806C 1856.04,750.911 2021.04,721.078 2190.5,716.5 Z"/></g>
<g><path style="opacity:1" fill="#e3e4d6" d="M 2225.5,1240.5 C 2334.25,1235.8 2421.41,1276.47 2487,1362.5C 2518.82,1412.56 2520.82,1463.89 2493,1516.5C 2469.61,1554.8 2435.44,1576.3 2390.5,1581C 2296.5,1581.67 2202.5,1581.67 2108.5,1581C 2053.9,1572.94 2016.73,1543.11 1997,1491.5C 1981.85,1444.57 1988.19,1400.91 2016,1360.5C 2068.89,1291.14 2138.73,1251.14 2225.5,1240.5 Z"/></g>
<g><path style="opacity:1" fill="#04344c" d="M 2230.5,1316.5 C 2311.97,1312.57 2377.13,1342.9 2426,1407.5C 2438.47,1428.76 2439.81,1450.76 2430,1473.5C 2421.36,1490.8 2407.53,1501.3 2388.5,1505C 2296.17,1505.67 2203.83,1505.67 2111.5,1505C 2094.28,1501.47 2081.44,1491.97 2073,1476.5C 2059.8,1449.95 2062.14,1424.95 2080,1401.5C 2118.73,1352.94 2168.9,1324.61 2230.5,1316.5 Z"/></g>
<g><path style="opacity:1" fill="#e3e4d6" d="M 2232.5,1653.5 C 2315.7,1650.27 2385.53,1678.94 2442,1739.5C 2543.67,1861.83 2645.33,1984.17 2747,2106.5C 2815.64,2189.41 2866.98,2282.41 2901,2385.5C 2925.68,2465.91 2938.68,2548.24 2940,2632.5C 2940.67,2671.17 2940.67,2709.83 2940,2748.5C 2938.83,2815.22 2927.83,2880.22 2907,2943.5C 2895.7,2976.39 2879.04,3006.06 2857,3032.5C 2809.77,3082.68 2753.61,3096.52 2688.5,3074C 2675.75,3067.91 2664.08,3060.24 2653.5,3051C 2645.3,3042.46 2637.46,3033.63 2630,3024.5C 2503.67,2872.17 2377.33,2719.83 2251,2567.5C 2120.33,2724.83 1989.67,2882.17 1859,3039.5C 1822.78,3077.9 1778.61,3092.07 1726.5,3082C 1692.71,3073.55 1664.55,3056.05 1642,3029.5C 1624.01,3007.12 1609.68,2982.46 1599,2955.5C 1576.84,2894.84 1564.51,2832.17 1562,2767.5C 1561.33,2717.5 1561.33,2667.5 1562,2617.5C 1567.33,2434.97 1625.67,2271.97 1737,2128.5C 1845.96,1996.54 1955.29,1864.87 2065,1733.5C 2110.93,1686.29 2166.76,1659.62 2232.5,1653.5 Z"/></g>
<g><path style="opacity:1" fill="#04344c" d="M 2234.5,1729.5 C 2297.85,1726.32 2350.02,1748.65 2391,1796.5C 2457.64,1877.31 2524.48,1957.98 2591.5,2038.5C 2478.3,2175.58 2364.63,2312.24 2250.5,2448.5C 2136.96,2312.13 2023.63,2175.63 1910.5,2039C 1910.86,2037.78 1911.36,2036.61 1912,2035.5C 1976.04,1959.13 2039.71,1882.46 2103,1805.5C 2135.96,1761.43 2179.79,1736.1 2234.5,1729.5 Z"/></g>
<g><path style="opacity:1" fill="#04344c" d="M 2639.5,2098.5 C 2685.42,2147.26 2725.92,2200.26 2761,2257.5C 2825.93,2368.2 2860.26,2487.87 2864,2616.5C 2864.67,2663.5 2864.67,2710.5 2864,2757.5C 2862.73,2819.73 2850.73,2879.73 2828,2937.5C 2819.69,2957.46 2807.86,2974.96 2792.5,2990C 2769.34,3009.57 2743.68,3013.9 2715.5,3003C 2710.71,2999.88 2706.21,2996.38 2702,2992.5C 2567.98,2831.31 2434.14,2669.98 2300.5,2508.5C 2413.55,2371.79 2526.55,2235.13 2639.5,2098.5 Z"/></g>
<g><path style="opacity:1" fill="#04344c" d="M 1859.5,2098.5 C 1861.02,2098.51 1862.18,2099.18 1863,2100.5C 1975.46,2236.63 2088.29,2372.46 2201.5,2508C 2068.33,2668.5 1935.17,2829 1802,2989.5C 1782.29,3009.44 1759.13,3014.61 1732.5,3005C 1710.33,2993.5 1693.5,2976.67 1682,2954.5C 1669.58,2929.23 1659.91,2902.9 1653,2875.5C 1643.93,2834.66 1638.59,2793.33 1637,2751.5C 1634.84,2683.7 1636.84,2616.03 1643,2548.5C 1656.79,2427.78 1697.79,2317.44 1766,2217.5C 1778.76,2199.66 1791.76,2181.99 1805,2164.5C 1823.41,2142.65 1841.58,2120.65 1859.5,2098.5 Z"/></g>
<g><path style="opacity:1" fill="#f9c450" d="M 2231.5,2872.5 C 2290.94,2870.22 2336.1,2894.22 2367,2944.5C 2394.9,3001.29 2389.57,3054.62 2351,3104.5C 2309.84,3148.54 2260.01,3162.71 2201.5,3147C 2146.77,3126.93 2114.6,3088.09 2105,3030.5C 2100.13,2969.74 2123.3,2923.24 2174.5,2891C 2192.57,2881.5 2211.57,2875.34 2231.5,2872.5 Z"/></g>
</svg>
