<?xml version="1.0" encoding="UTF-8"?>
<!DOCTYPE svg PUBLIC "-//W3C//DTD SVG 1.1//EN" "http://www.w3.org/Graphics/SVG/1.1/DTD/svg11.dtd">
<svg xmlns="http://www.w3.org/2000/svg" version="1.1" width="4500px" height="4500px" style="shape-rendering:geometricPrecision; text-rendering:geometricPrecision; image-rendering:optimizeQuality; fill-rule:evenodd; clip-rule:evenodd" xmlns:xlink="http://www.w3.org/1999/xlink">
<g><path style="opacity:0.992" fill="#5e80b7" d="M 909.5,1717.5 C 977.391,1713.87 1030.89,1739.53 1070,1794.5C 1085.87,1825.97 1083.54,1855.97 1063,1884.5C 1050.91,1898.3 1035.74,1906.46 1017.5,1909C 957.167,1909.67 896.833,1909.67 836.5,1909C 801.5,1903 780.667,1882.5 774,1847.5C 770.518,1825.57 775.184,1805.57 788,1787.5C 818.876,1747.48 859.376,1724.14 909.5,1717.5 Z"/></g>
<g><path style="opacity:0.997" fill="#14334a" d="M 1173.5,2209.5 C 1092.82,2307.5 1011.65,2405.17 930,2502.5C 928.579,2504.4 927.412,2506.4 926.5,2508.5C 836.045,2617.46 745.378,2726.29 654.5,2835C 632.916,2850.26 609.916,2852.59 585.5,2842C 569.385,2833.55 556.885,2821.39 548,2805.5C 532.778,2776.62 523.111,2745.95 519,2713.5C 515.084,2683.3 513.584,2652.96 514.5,2622.5C 508.284,2488.32 547.45,2369.65 632,2266.5C 696.377,2189.79 760.377,2112.79 824,2035.5C 863.794,1995.13 911.294,1981.97 966.5,1996C 992.272,2004.11 1014.11,2018.27 1032,2038.5C 1079,2095.66 1126.17,2152.66 1173.5,2209.5 Z"/></g>
<g><path style="opacity:0.983" fill="#14334a" d="M 1634.5,2115.5 C 1639.83,2115.5 1645.17,2115.5 1650.5,2115.5C 1650.5,2170.83 1650.5,2226.17 1650.5,2281.5C 1645.17,2281.5 1639.83,2281.5 1634.5,2281.5C 1634.5,2226.17 1634.5,2170.83 1634.5,2115.5 Z"/></g>
<g><path style="opacity:0.937" fill="#14334a" d="M 1740.5,2115.5 C 1746.17,2115.5 1751.83,2115.5 1757.5,2115.5C 1757.5,2166.17 1757.5,2216.83 1757.5,2267.5C 1787.17,2267.5 1816.83,2267.5 1846.5,2267.5C 1846.5,2272.17 1846.5,2276.83 1846.5,2281.5C 1811.17,2281.5 1775.83,2281.5 1740.5,2281.5C 1740.5,2226.17 1740.5,2170.83 1740.5,2115.5 Z"/></g>
<g><path style="opacity:0.95" fill="#14334a" d="M 1917.5,2115.5 C 1922.83,2115.5 1928.17,2115.5 1933.5,2115.5C 1933.33,2151.83 1933.5,2188.17 1934,2224.5C 1935.18,2255.18 1951.01,2270.84 1981.5,2271.5C 2011.24,2271.93 2027.07,2257.27 2029,2227.5C 2029.5,2190.17 2029.67,2152.83 2029.5,2115.5C 2035.17,2115.5 2040.83,2115.5 2046.5,2115.5C 2046.67,2152.5 2046.5,2189.5 2046,2226.5C 2042.81,2266.19 2021.31,2285.85 1981.5,2285.5C 1945.25,2287.07 1924.08,2270.07 1918,2234.5C 1917.5,2194.83 1917.33,2155.17 1917.5,2115.5 Z"/></g>
<g><path style="opacity:0.965" fill="#14334a" d="M 2130.5,2115.5 C 2138.86,2115.17 2147.19,2115.5 2155.5,2116.5C 2173.43,2164.46 2191.26,2212.46 2209,2260.5C 2226.81,2212.25 2244.31,2163.91 2261.5,2115.5C 2269.83,2115.5 2278.17,2115.5 2286.5,2115.5C 2286.5,2170.83 2286.5,2226.17 2286.5,2281.5C 2281.17,2281.5 2275.83,2281.5 2270.5,2281.5C 2270.67,2232.83 2270.5,2184.17 2270,2135.5C 2252.33,2183.83 2234.67,2232.17 2217,2280.5C 2214.25,2281.14 2211.42,2281.48 2208.5,2281.5C 2205.39,2281.44 2202.55,2280.77 2200,2279.5C 2182.33,2231.83 2164.67,2184.17 2147,2136.5C 2146.5,2184.83 2146.33,2233.17 2146.5,2281.5C 2141.17,2281.5 2135.83,2281.5 2130.5,2281.5C 2130.5,2226.17 2130.5,2170.83 2130.5,2115.5 Z"/></g>
<g><path style="opacity:0.94" fill="#14334a" d="M 2375.5,2115.5 C 2381.17,2115.5 2386.83,2115.5 2392.5,2115.5C 2392.5,2170.83 2392.5,2226.17 2392.5,2281.5C 2386.83,2281.5 2381.17,2281.5 2375.5,2281.5C 2375.5,2226.17 2375.5,2170.83 2375.5,2115.5 Z"/></g>
<g><path style="opacity:0.949" fill="#14334a" d="M 2482.5,2115.5 C 2488.87,2115.17 2495.2,2115.5 2501.5,2116.5C 2532.67,2163.5 2563.83,2210.5 2595,2257.5C 2595.5,2210.17 2595.67,2162.83 2595.5,2115.5C 2601.17,2115.5 2606.83,2115.5 2612.5,2115.5C 2612.5,2170.83 2612.5,2226.17 2612.5,2281.5C 2605.8,2281.83 2599.13,2281.5 2592.5,2280.5C 2561.53,2233.03 2530.36,2185.7 2499,2138.5C 2498.5,2186.17 2498.33,2233.83 2498.5,2281.5C 2493.17,2281.5 2487.83,2281.5 2482.5,2281.5C 2482.5,2226.17 2482.5,2170.83 2482.5,2115.5 Z"/></g>
<g><path style="opacity:0.944" fill="#14334a" d="M 2746.5,2115.5 C 2753.29,2114.9 2759.79,2115.57 2766,2117.5C 2786.83,2171.83 2807.67,2226.17 2828.5,2280.5C 2822.61,2281.81 2816.78,2281.81 2811,2280.5C 2805.11,2263.72 2798.94,2247.06 2792.5,2230.5C 2767.51,2229.5 2742.51,2229.17 2717.5,2229.5C 2711.64,2246.58 2705.47,2263.58 2699,2280.5C 2693.22,2281.81 2687.39,2281.81 2681.5,2280.5C 2702.98,2225.39 2724.65,2170.39 2746.5,2115.5 Z M 2754.5,2131.5 C 2765.52,2158.88 2776.19,2186.54 2786.5,2214.5C 2765.51,2215.67 2744.51,2215.83 2723.5,2215C 2734.33,2187.34 2744.66,2159.51 2754.5,2131.5 Z"/></g>
<g><path style="opacity:0.996" fill="#5d7fb6" d="M 1173.5,2209.5 C 1196.51,2236.35 1219.01,2263.69 1241,2291.5C 1304.95,2378.36 1337.62,2476.02 1339,2584.5C 1340.1,2620.54 1339.43,2656.54 1337,2692.5C 1334.14,2731.95 1323.81,2769.28 1306,2804.5C 1297.93,2818.57 1287.09,2830.07 1273.5,2839C 1249.05,2852.27 1225.05,2851.6 1201.5,2837C 1197.67,2833.17 1193.83,2829.33 1190,2825.5C 1102.3,2719.64 1014.47,2613.98 926.5,2508.5C 927.412,2506.4 928.579,2504.4 930,2502.5C 1011.65,2405.17 1092.82,2307.5 1173.5,2209.5 Z"/></g>
<g><path style="opacity:0.939" fill="#14334a" d="M 2057.5,2407.5 C 2075.34,2404.98 2092.01,2408.15 2107.5,2417C 2120.68,2427.19 2127.01,2440.69 2126.5,2457.5C 2121.17,2457.5 2115.83,2457.5 2110.5,2457.5C 2109.55,2437.04 2098.88,2425.21 2078.5,2422C 2061.27,2419.09 2046.77,2423.92 2035,2436.5C 2026.73,2451.94 2029.56,2464.77 2043.5,2475C 2048.26,2477.59 2053.26,2479.59 2058.5,2481C 2074.04,2484.24 2089.37,2488.24 2104.5,2493C 2125.13,2502.08 2133.96,2517.91 2131,2540.5C 2128.33,2558 2118.83,2570.17 2102.5,2577C 2082.93,2583.79 2063.27,2584.12 2043.5,2578C 2020.68,2568.99 2009.68,2552.16 2010.5,2527.5C 2015.83,2527.5 2021.17,2527.5 2026.5,2527.5C 2027.46,2547.94 2037.8,2560.78 2057.5,2566C 2073.86,2569.82 2089.19,2567.48 2103.5,2559C 2115.09,2547.61 2117.59,2534.44 2111,2519.5C 2106.68,2513.86 2101.18,2509.69 2094.5,2507C 2081.05,2502.55 2067.38,2498.89 2053.5,2496C 2018.67,2486.84 2007.17,2465.34 2019,2431.5C 2028.46,2418.02 2041.29,2410.02 2057.5,2407.5 Z"/></g>
<g><path style="opacity:0.939" fill="#14334a" d="M 2776.5,2407.5 C 2796.45,2404.66 2815.12,2408.16 2832.5,2418C 2846.58,2428.65 2854.58,2442.81 2856.5,2460.5C 2850.79,2460.83 2845.13,2460.5 2839.5,2459.5C 2832.92,2433.44 2816.09,2420.77 2789,2421.5C 2760.59,2422.71 2742.59,2437.04 2735,2464.5C 2730.07,2485.92 2730.41,2507.26 2736,2528.5C 2746.59,2557.73 2767.42,2570.56 2798.5,2567C 2822.25,2561.42 2836.25,2546.59 2840.5,2522.5C 2846.5,2522.5 2852.5,2522.5 2858.5,2522.5C 2850.22,2561.31 2826.22,2581.31 2786.5,2582.5C 2751.35,2581.5 2728.85,2564.17 2719,2530.5C 2712.77,2505.08 2713.11,2479.75 2720,2454.5C 2729.57,2427.64 2748.4,2411.97 2776.5,2407.5 Z"/></g>
<g><path style="opacity:0.941" fill="#14334a" d="M 3086.5,2407.5 C 3105.2,2404.67 3122.53,2408.17 3138.5,2418C 3150.56,2428.34 3156.56,2441.5 3156.5,2457.5C 3151.17,2457.5 3145.83,2457.5 3140.5,2457.5C 3139.48,2436.98 3128.82,2425.15 3108.5,2422C 3096.16,2420.22 3084.49,2422.22 3073.5,2428C 3060.27,2437.77 3056.77,2450.27 3063,2465.5C 3068.48,2472.67 3075.65,2477.5 3084.5,2480C 3099.2,2483.54 3113.86,2487.21 3128.5,2491C 3154.26,2499.68 3164.76,2517.51 3160,2544.5C 3155.18,2562.66 3143.68,2574.16 3125.5,2579C 3106.94,2584.11 3088.61,2583.44 3070.5,2577C 3049.43,2567.39 3039.1,2550.89 3039.5,2527.5C 3044.83,2527.5 3050.17,2527.5 3055.5,2527.5C 3057.32,2550 3069.32,2563.17 3091.5,2567C 3102.74,2568.32 3113.74,2567.32 3124.5,2564C 3144.05,2553.02 3148.88,2537.52 3139,2517.5C 3134.11,2512.3 3128.28,2508.47 3121.5,2506C 3106.54,2501.84 3091.54,2497.84 3076.5,2494C 3045.64,2482.43 3036.47,2461.27 3049,2430.5C 3058.34,2417.59 3070.84,2409.92 3086.5,2407.5 Z"/></g>
<g><path style="opacity:0.94" fill="#14334a" d="M 3405.5,2407.5 C 3447.37,2402.31 3476.21,2418.97 3492,2457.5C 3500.71,2486.81 3499.04,2515.48 3487,2543.5C 3472.37,2569.33 3450.03,2582.33 3420,2582.5C 3376.47,2580.3 3351.13,2557.64 3344,2514.5C 3338.94,2485.13 3344.61,2458.13 3361,2433.5C 3372.81,2419.49 3387.65,2410.82 3405.5,2407.5 Z M 3410.5,2421.5 C 3451.05,2419.87 3474.22,2439.21 3480,2479.5C 3483.05,2500.86 3479.72,2521.19 3470,2540.5C 3454.07,2563.71 3432.24,2572.21 3404.5,2566C 3382.94,2559.44 3369.1,2545.27 3363,2523.5C 3357.57,2501.19 3358.57,2479.19 3366,2457.5C 3374.51,2437.52 3389.35,2425.52 3410.5,2421.5 Z"/></g>
<g><path style="opacity:0.939" fill="#14334a" d="M 4016.5,2407.5 C 4035.25,2404.68 4052.58,2408.18 4068.5,2418C 4080.58,2428.33 4086.58,2441.5 4086.5,2457.5C 4081.17,2457.5 4075.83,2457.5 4070.5,2457.5C 4069.5,2437 4058.84,2425.17 4038.5,2422C 4022.8,2419.55 4008.97,2423.38 3997,2433.5C 3986.26,2448.43 3987.76,2461.93 4001.5,2474C 4006.84,2477.11 4012.51,2479.45 4018.5,2481C 4034.77,2484.4 4050.77,2488.73 4066.5,2494C 4087.6,2504.91 4095.43,2522.08 4090,2545.5C 4085.85,2561.97 4075.68,2572.8 4059.5,2578C 4039.71,2584.27 4020.04,2583.93 4000.5,2577C 3979.46,2567.41 3969.12,2550.91 3969.5,2527.5C 3975.17,2527.5 3980.83,2527.5 3986.5,2527.5C 3987.3,2547.47 3997.3,2560.31 4016.5,2566C 4029.36,2568.5 4042.03,2567.83 4054.5,2564C 4071.02,2555.81 4077.19,2542.64 4073,2524.5C 4067.09,2513.44 4057.92,2506.61 4045.5,2504C 4030.66,2500.62 4016,2496.62 4001.5,2492C 3977.27,2481.34 3968.77,2463.17 3976,2437.5C 3984.27,2420.39 3997.77,2410.39 4016.5,2407.5 Z"/></g>
<g><path style="opacity:0.982" fill="#14334a" d="M 1613.5,2411.5 C 1654.17,2411.5 1694.83,2411.5 1735.5,2411.5C 1735.5,2416.17 1735.5,2420.83 1735.5,2425.5C 1717.83,2425.5 1700.17,2425.5 1682.5,2425.5C 1682.5,2476.17 1682.5,2526.83 1682.5,2577.5C 1677.17,2577.5 1671.83,2577.5 1666.5,2577.5C 1666.5,2526.83 1666.5,2476.17 1666.5,2425.5C 1648.83,2425.5 1631.17,2425.5 1613.5,2425.5C 1613.5,2420.83 1613.5,2416.17 1613.5,2411.5 Z"/></g>
<g><path style="opacity:0.937" fill="#14334a" d="M 1804.5,2411.5 C 1810.17,2411.5 1815.83,2411.5 1821.5,2411.5C 1821.33,2448.17 1821.5,2484.83 1822,2521.5C 1823.08,2552.58 1839.08,2567.91 1870,2567.5C 1899.93,2567.58 1915.59,2552.58 1917,2522.5C 1917.5,2485.5 1917.67,2448.5 1917.5,2411.5C 1923.17,2411.5 1928.83,2411.5 1934.5,2411.5C 1934.67,2448.17 1934.5,2484.83 1934,2521.5C 1931.87,2561.91 1910.53,2582.24 1870,2582.5C 1828.63,2581.8 1806.97,2560.8 1805,2519.5C 1804.5,2483.5 1804.33,2447.5 1804.5,2411.5 Z"/></g>
<g><path style="opacity:0.948" fill="#14334a" d="M 2319.5,2411.5 C 2344.17,2411.33 2368.84,2411.5 2393.5,2412C 2418.69,2413.54 2436.52,2425.71 2447,2448.5C 2458.63,2479.98 2458.3,2511.31 2446,2542.5C 2434.96,2563.62 2417.46,2575.12 2393.5,2577C 2368.84,2577.5 2344.17,2577.67 2319.5,2577.5C 2319.5,2522.17 2319.5,2466.83 2319.5,2411.5 Z M 2336.5,2425.5 C 2355.53,2425.14 2374.53,2425.64 2393.5,2427C 2413.93,2429.76 2427.43,2440.92 2434,2460.5C 2451.24,2541.44 2418.74,2575.77 2336.5,2563.5C 2336.5,2517.5 2336.5,2471.5 2336.5,2425.5 Z"/></g>
<g><path style="opacity:0.958" fill="#14334a" d="M 2533.5,2411.5 C 2570.5,2411.5 2607.5,2411.5 2644.5,2411.5C 2644.5,2416.17 2644.5,2420.83 2644.5,2425.5C 2613.17,2425.5 2581.83,2425.5 2550.5,2425.5C 2550.5,2445.17 2550.5,2464.83 2550.5,2484.5C 2578.83,2484.5 2607.17,2484.5 2635.5,2484.5C 2635.5,2489.17 2635.5,2493.83 2635.5,2498.5C 2607.17,2498.5 2578.83,2498.5 2550.5,2498.5C 2550.5,2520.17 2550.5,2541.83 2550.5,2563.5C 2582.5,2563.5 2614.5,2563.5 2646.5,2563.5C 2646.5,2568.17 2646.5,2572.83 2646.5,2577.5C 2608.83,2577.5 2571.17,2577.5 2533.5,2577.5C 2533.5,2522.17 2533.5,2466.83 2533.5,2411.5 Z"/></g>
<g><path style="opacity:0.94" fill="#14334a" d="M 2941.5,2411.5 C 2947.17,2411.5 2952.83,2411.5 2958.5,2411.5C 2958.5,2466.83 2958.5,2522.17 2958.5,2577.5C 2952.83,2577.5 2947.17,2577.5 2941.5,2577.5C 2941.5,2522.17 2941.5,2466.83 2941.5,2411.5 Z"/></g>
<g><path style="opacity:0.983" fill="#14334a" d="M 3242.5,2411.5 C 3247.83,2411.5 3253.17,2411.5 3258.5,2411.5C 3258.5,2466.83 3258.5,2522.17 3258.5,2577.5C 3253.17,2577.5 3247.83,2577.5 3242.5,2577.5C 3242.5,2522.17 3242.5,2466.83 3242.5,2411.5 Z"/></g>
<g><path style="opacity:0.953" fill="#14334a" d="M 3575.5,2411.5 C 3582.09,2411.19 3588.59,2411.52 3595,2412.5C 3626.33,2459.83 3657.67,2507.17 3689,2554.5C 3689.5,2506.83 3689.67,2459.17 3689.5,2411.5C 3694.83,2411.5 3700.17,2411.5 3705.5,2411.5C 3705.5,2466.83 3705.5,2522.17 3705.5,2577.5C 3699.16,2577.67 3692.82,2577.5 3686.5,2577C 3654.96,2530.09 3623.79,2482.92 3593,2435.5C 3592.5,2482.83 3592.33,2530.17 3592.5,2577.5C 3586.83,2577.5 3581.17,2577.5 3575.5,2577.5C 3575.5,2522.17 3575.5,2466.83 3575.5,2411.5 Z"/></g>
<g><path style="opacity:0.961" fill="#14334a" d="M 3789.5,2411.5 C 3826.5,2411.5 3863.5,2411.5 3900.5,2411.5C 3900.5,2416.17 3900.5,2420.83 3900.5,2425.5C 3869.17,2425.5 3837.83,2425.5 3806.5,2425.5C 3806.5,2445.17 3806.5,2464.83 3806.5,2484.5C 3834.83,2484.5 3863.17,2484.5 3891.5,2484.5C 3891.5,2489.17 3891.5,2493.83 3891.5,2498.5C 3863.17,2498.5 3834.83,2498.5 3806.5,2498.5C 3806.5,2520.17 3806.5,2541.83 3806.5,2563.5C 3838.83,2563.5 3871.17,2563.5 3903.5,2563.5C 3903.5,2568.17 3903.5,2572.83 3903.5,2577.5C 3865.5,2577.5 3827.5,2577.5 3789.5,2577.5C 3789.5,2522.17 3789.5,2466.83 3789.5,2411.5 Z"/></g>
<g><path style="opacity:0.989" fill="#f9c54f" d="M 910.5,2737.5 C 954.265,2734.46 985.765,2752.46 1005,2791.5C 1018.7,2830.17 1011.2,2864.01 982.5,2893C 949.378,2919.03 914.044,2922.36 876.5,2903C 841.367,2879.22 827.867,2846.38 836,2804.5C 847.164,2766.83 871.997,2744.5 910.5,2737.5 Z"/></g>
</svg>
