<?xml version="1.0" encoding="UTF-8"?>
<svg id="Capa_1" data-name="Capa 1" xmlns="http://www.w3.org/2000/svg" viewBox="0 0 1080 1080">
  <defs>
    <style>
      .cls-1 {
        fill: #e4e5d7;
      }

      .cls-2 {
        fill: #fac550;
      }

      .cls-3 {
        fill: #04344c;
      }
    </style>
  </defs>
  <path class="cls-1" d="M543.285,865.983c-53.744,0-105.882,30.826-150.451,12.815-44.594-17.999-82.9-43.351-114.956-76.022-32.081-32.658-56.957-71.454-74.667-116.336-17.722-44.883-26.571-94.184-26.571-147.928s8.849-102.894,26.571-147.476c17.71-44.569,42.586-83.202,74.667-115.884,32.055-32.659,70.362-57.999,114.956-76.01,44.569-18.011,93.732-27.035,147.463-27.035s102.744,9.024,147.024,27.035c44.268,18.011,82.599,43.351,114.956,76.01,32.369,32.682,57.384,71.315,75.118,115.884,17.697,44.582,26.558,93.744,26.558,147.476s-8.861,103.045-26.558,147.928c-17.735,44.883-42.749,83.678-75.118,116.336-32.357,32.671-70.688,58.024-114.956,76.022-44.281,18.011-90.318-12.815-144.037-12.815"/>
  <g>
    <path class="cls-2" d="M538.745,689.618c-18.575,0-33.633,15.058-33.633,33.633s15.058,33.633,33.633,33.633,33.633-15.058,33.633-33.633-15.058-33.633-33.633-33.633Z"/>
    <path class="cls-3" d="M508.836,379.561h62.925c11.699,0,22.32-6.754,27.72-17.625,5.815-11.71,4.568-25.392-3.255-35.706-13.695-18.053-34.077-28.412-55.916-28.416h-.012c-21.796,0-42.144,10.313-55.84,28.301l-.081.106c-7.827,10.312-9.078,23.995-3.264,35.708,5.398,10.875,16.021,17.631,27.723,17.631ZM498.726,337.241l.071-.094c10.248-13.5,25.372-21.242,41.501-21.242h.009c16.132.003,31.26,7.751,41.505,21.258h0c4.354,5.74,3.612,12.404,1.466,16.726-1.132,2.279-4.521,7.581-11.517,7.581h-62.925c-6.998,0-10.387-5.304-11.519-7.584-2.136-4.303-2.88-10.924,1.408-16.645Z"/>
    <path class="cls-3" d="M658.394,504.644l-24.443-29.425h0s-46.607-56.097-46.607-56.097c-11.656-14.03-28.803-22.077-47.044-22.077s-35.388,8.047-47.044,22.077l-46.606,56.098h0l-24.445,29.423c-47.74,57.463-47.536,112.422-47.414,145.26.006,1.638.012,3.23.012,4.773,0,9.012.798,32.14,8.179,52.208,10.232,27.816,27.095,33.656,39.438,33.656,9.293,0,18.029-4.101,23.967-11.248l93.914-113.039h0s0,0,0,0l93.914,113.039c5.938,7.147,14.674,11.248,23.968,11.248,12.344,0,29.205-5.84,39.438-33.656,7.382-20.068,8.18-43.196,8.18-52.208,0-1.543.006-3.135.012-4.772.122-32.837.326-87.797-47.415-145.261ZM507.17,430.683c8.208-9.88,20.283-15.547,33.128-15.547s24.921,5.667,33.129,15.546l48.763,58.693-32.198,38.755-49.693,59.813-81.891-98.568,48.763-58.692ZM432.468,717.733c-2.49,2.998-6.153,4.717-10.051,4.717-3.57,0-14.437,0-22.459-21.81-6.378-17.339-7.066-37.919-7.066-45.963,0-1.565-.007-3.18-.013-4.841-.12-32.345-.302-81.224,43.239-133.632l10.529-12.674,40.945,49.284,40.945,49.284-96.07,115.634ZM687.718,649.837c-.006,1.661-.013,3.275-.013,4.84,0,8.043-.688,28.623-7.066,45.963-1.984,5.395-8.022,21.81-22.459,21.81-3.898,0-7.562-1.719-10.052-4.717l-96.07-115.634,40.946-49.284,40.946-49.284,10.529,12.674c43.541,52.408,43.359,101.288,43.239,133.633Z"/>
  </g>
</svg>