<?xml version="1.0" encoding="UTF-8"?>
<!DOCTYPE svg PUBLIC "-//W3C//DTD SVG 1.1//EN" "http://www.w3.org/Graphics/SVG/1.1/DTD/svg11.dtd">
<svg xmlns="http://www.w3.org/2000/svg" version="1.1" width="4500px" height="4500px" style="shape-rendering:geometricPrecision; text-rendering:geometricPrecision; image-rendering:optimizeQuality; fill-rule:evenodd; clip-rule:evenodd" xmlns:xlink="http://www.w3.org/1999/xlink">
<g><path style="opacity:0.995" fill="#e3e5d6" d="M 1218.5,1822.5 C 1248.21,1819.94 1271.37,1830.94 1288,1855.5C 1405.67,2096.17 1523.33,2336.83 1641,2577.5C 1653.48,2610.12 1646.98,2638.29 1621.5,2662C 1599.18,2677.78 1575.18,2680.78 1549.5,2671C 1536.97,2665.81 1526.81,2657.64 1519,2646.5C 1476.14,2560.78 1433.81,2474.78 1392,2388.5C 1337.92,2274.68 1283.59,2161.01 1229,2047.5C 1176.06,2157.71 1123.39,2268.05 1071,2378.5C 1027.53,2468.11 983.528,2557.44 939,2646.5C 914.958,2675.97 885.124,2683.8 849.5,2670C 818.537,2652.24 806.371,2625.74 813,2590.5C 814.268,2585.36 815.934,2580.36 818,2575.5C 935,2336.17 1052,2096.83 1169,1857.5C 1180.44,1838.54 1196.94,1826.87 1218.5,1822.5 Z"/></g>
<g><path style="opacity:0.998" fill="#e3e5d6" d="M 1894.5,1822.5 C 1915.12,1820.16 1933.79,1824.99 1950.5,1837C 2140.67,2034.5 2330.83,2232 2521,2429.5C 2521.01,2245.13 2521.67,2060.8 2523,1876.5C 2530.79,1846.51 2549.96,1828.68 2580.5,1823C 2616.1,1819.38 2641.6,1833.54 2657,1865.5C 2658.8,1870.37 2660.14,1875.37 2661,1880.5C 2661.67,2126.83 2661.67,2373.17 2661,2619.5C 2655.49,2648.37 2638.66,2666.87 2610.5,2675C 2587.26,2679.89 2566.26,2675.22 2547.5,2661C 2357.67,2463.17 2167.83,2265.33 1978,2067.5C 1977.99,2252.53 1977.33,2437.53 1976,2622.5C 1969.28,2650.22 1952.11,2667.72 1924.5,2675C 1886.55,2681.44 1859.05,2667.61 1842,2633.5C 1840.2,2628.63 1838.86,2623.63 1838,2618.5C 1837.33,2372.5 1837.33,2126.5 1838,1880.5C 1844.6,1849.07 1863.44,1829.73 1894.5,1822.5 Z"/></g>
<g><path style="opacity:0.995" fill="#e3e5d6" d="M 3259.5,1822.5 C 3290.2,1819.93 3313.7,1831.6 3330,1857.5C 3447,2096.83 3564,2336.17 3681,2575.5C 3694.37,2608.01 3688.53,2636.51 3663.5,2661C 3636.97,2679.76 3609.3,2681.42 3580.5,2666C 3571.67,2659.83 3564.17,2652.33 3558,2643.5C 3460.37,2445.57 3364.37,2246.9 3270,2047.5C 3177.77,2241.29 3084.44,2434.62 2990,2627.5C 2974.98,2662.43 2948.48,2678.6 2910.5,2676C 2874.11,2667.94 2854.44,2645.27 2851.5,2608C 2851.88,2597.45 2854.04,2587.28 2858,2577.5C 2975.33,2337.5 3092.67,2097.5 3210,1857.5C 3221.45,1838.53 3237.95,1826.86 3259.5,1822.5 Z"/></g>
<g><path style="opacity:0.992" fill="#e3e5d6" d="M 1212.5,2395.5 C 1250.98,2391.98 1278.15,2407.64 1294,2442.5C 1304.92,2479.08 1295.08,2508.58 1264.5,2531C 1236.78,2546.52 1209.44,2545.86 1182.5,2529C 1152.41,2504.48 1144.24,2473.98 1158,2437.5C 1169.65,2414.94 1187.82,2400.94 1212.5,2395.5 Z"/></g>
<g><path style="opacity:0.992" fill="#e3e5d6" d="M 3252.5,2395.5 C 3289.93,2391.95 3316.76,2406.95 3333,2440.5C 3344.21,2473.11 3337.38,2501.28 3312.5,2525C 3281.95,2547.26 3250.95,2547.93 3219.5,2527C 3192.52,2502.92 3185.02,2473.76 3197,2439.5C 3208.31,2415.61 3226.81,2400.95 3252.5,2395.5 Z"/></g>
</svg>
