<?xml version="1.0" encoding="UTF-8"?>
<svg id="Capa_1" data-name="Capa 1" xmlns="http://www.w3.org/2000/svg" viewBox="0 0 1080 720">
  <defs>
    <style>
      .cls-1 {
        fill: #14334a;
      }

      .cls-2, .cls-3 {
        fill: #5e80b7;
      }

      .cls-4 {
        fill: #fac550;
      }

      .cls-3 {
        stroke: #5e80b7;
        stroke-miterlimit: 10;
        stroke-width: 4.66px;
      }
    </style>
  </defs>
  <g>
    <g>
      <circle class="cls-4" cx="223.047" cy="412.584" r="17.328"/>
      <path class="cls-3" d="M248.948,210.855h0c-12.938-17.057-37.251-17.062-50.195-.009l-.005.006c-6.084,8.016-.758,20.003,8.889,20.003h32.419c9.645,0,14.972-11.983,8.891-20Z"/>
      <path class="cls-1" d="M244.5,258.875c-5.101-6.14-12.67-9.692-20.653-9.692s-15.552,3.552-20.653,9.692l-27.596,33.217-1.415,1.703-7.595,9.142c-24.693,29.721-23.346,57.546-23.346,74.319,0,14.668,3.849,39.577,19.872,39.577,3.387,0,6.599-1.507,8.763-4.112l51.969-62.553,48.249-58.075-27.597-33.217Z"/>
      <path class="cls-2" d="M273.511,293.794l7.595,9.142c24.693,29.721,23.346,57.546,23.346,74.319,0,14.668-3.849,39.577-19.872,39.577-3.387,0-6.599-1.507-8.763-4.112l-51.969-62.553,48.249-58.075,1.415,1.703Z"/>
    </g>
    <g>
      <g>
        <path class="cls-1" d="M408.742,382.44l-11.292,22.952c-2.252,4.506-7.202,7.497-12.343,7.497-7.44,0-13.492-6.053-13.492-13.492,0-2.331.604-4.675,1.847-7.166l67.86-138.875c2.617-5.237,7.107-8.197,12.354-8.197s9.737,2.96,12.318,8.123l.036.074,67.892,138.941c1.208,2.409,1.814,4.757,1.814,7.1,0,7.439-6.052,13.492-13.492,13.492-5.134,0-10.084-2.988-12.313-7.435l-11.32-23.015-13.162-26.984-31.772-66.533-31.774,66.533-13.16,26.984Z"/>
        <path class="cls-1" d="M721.859,412.89c-5.295,0-8.345-2.37-10.41-4.436l-110.753-115.505v106.223c0,7.692-6.026,13.718-13.718,13.718s-13.716-6.026-13.716-13.718v-140.293c0-7.564,5.951-13.718,13.266-13.718,5.356,0,8.377,2.403,10.184,4.21l110.979,115.338v-105.829c0-7.692,6.026-13.718,13.718-13.718s13.716,6.026,13.716,13.718v140.519c0,7.566-5.827,13.492-13.266,13.492Z"/>
        <path class="cls-1" d="M809.777,382.44l-11.292,22.952c-2.252,4.506-7.202,7.497-12.343,7.497-7.44,0-13.492-6.053-13.492-13.492,0-2.331.604-4.675,1.847-7.166l67.86-138.875c2.617-5.237,7.107-8.197,12.354-8.197s9.737,2.96,12.318,8.123l.036.074,67.892,138.941c1.208,2.409,1.814,4.757,1.814,7.1,0,7.439-6.052,13.492-13.492,13.492-5.134,0-10.084-2.988-12.313-7.435l-11.32-23.015-13.162-26.984-31.772-66.533-31.774,66.533-13.16,26.984Z"/>
      </g>
      <circle class="cls-1" cx="452.855" cy="372.067" r="14.344"/>
      <circle class="cls-1" cx="853.706" cy="372.067" r="14.344"/>
      <g>
        <path class="cls-1" d="M408.742,382.44l-11.292,22.952c-2.252,4.506-7.202,7.497-12.343,7.497-7.44,0-13.492-6.053-13.492-13.492,0-2.331.604-4.675,1.847-7.166l67.86-138.875c2.617-5.237,7.107-8.197,12.354-8.197s9.737,2.96,12.318,8.123l.036.074,67.892,138.941c1.208,2.409,1.814,4.757,1.814,7.1,0,7.439-6.052,13.492-13.492,13.492-5.134,0-10.084-2.988-12.313-7.435l-11.32-23.015-13.162-26.984-31.772-66.533-31.774,66.533-13.16,26.984Z"/>
        <path class="cls-1" d="M721.859,412.89c-5.295,0-8.345-2.37-10.41-4.436l-110.753-115.505v106.223c0,7.692-6.026,13.718-13.718,13.718s-13.716-6.026-13.716-13.718v-140.293c0-7.564,5.951-13.718,13.266-13.718,5.356,0,8.377,2.403,10.184,4.21l110.979,115.338v-105.829c0-7.692,6.026-13.718,13.718-13.718s13.716,6.026,13.716,13.718v140.519c0,7.566-5.827,13.492-13.266,13.492Z"/>
        <path class="cls-1" d="M809.777,382.44l-11.292,22.952c-2.252,4.506-7.202,7.497-12.343,7.497-7.44,0-13.492-6.053-13.492-13.492,0-2.331.604-4.675,1.847-7.166l67.86-138.875c2.617-5.237,7.107-8.197,12.354-8.197s9.737,2.96,12.318,8.123l.036.074,67.892,138.941c1.208,2.409,1.814,4.757,1.814,7.1,0,7.439-6.052,13.492-13.492,13.492-5.134,0-10.084-2.988-12.313-7.435l-11.32-23.015-13.162-26.984-31.772-66.533-31.774,66.533-13.16,26.984Z"/>
      </g>
      <circle class="cls-1" cx="452.855" cy="372.067" r="14.344"/>
      <circle class="cls-1" cx="853.706" cy="372.067" r="14.344"/>
    </g>
  </g>
  <g>
    <path class="cls-1" d="M148.173,521.942v-33.893h3.201v33.893h-3.201Z"/>
    <path class="cls-1" d="M170.019,521.942v-33.893h3.201v31.162h18.17v2.73h-21.371Z"/>
    <path class="cls-1" d="M206.129,488.049h3.201v20.194c0,8.379,3.013,11.862,9.933,11.862,7.296,0,9.932-3.86,9.932-11.862v-20.194h3.201v21.136c0,8.803-4.378,13.651-13.133,13.651-8.85,0-13.134-4.99-13.134-13.651v-21.136Z"/>
    <path class="cls-1" d="M249.82,521.942v-33.893h4.896l11.109,29.891h.094l10.921-29.891h4.849v33.893h-3.201v-30.221h-.094l-11.109,30.221h-3.013l-11.156-30.221h-.094v30.221h-3.201Z"/>
    <path class="cls-1" d="M300.196,521.942v-33.893h3.201v33.893h-3.201Z"/>
    <path class="cls-1" d="M325.243,492.38h-.094v29.562h-3.201v-33.893h3.625l19.583,29.609h.094v-29.609h3.201v33.893h-3.719l-19.488-29.562Z"/>
    <path class="cls-1" d="M362.813,521.942l13.322-33.893h3.625l12.992,33.893h-3.295l-3.907-10.639h-15.44l-4.001,10.639h-3.295ZM371.192,508.573h13.275l-6.637-17.794-6.638,17.794Z"/>
    <path class="cls-1" d="M427.125,488.049h24.666v2.73h-10.732v31.163h-3.201v-31.163h-10.732v-2.73Z"/>
    <path class="cls-1" d="M466.296,488.049h3.201v20.194c0,8.379,3.013,11.862,9.933,11.862,7.296,0,9.932-3.86,9.932-11.862v-20.194h3.201v21.136c0,8.803-4.378,13.651-13.133,13.651-8.85,0-13.134-4.99-13.134-13.651v-21.136Z"/>
    <path class="cls-1" d="M511.445,511.821c.518,6.072,4.566,8.285,9.744,8.285,6.073,0,8.615-3.295,8.615-7.014,0-10.498-20.666-3.531-20.666-16.853,0-4.707,3.907-9.085,11.486-9.085,7.626,0,11.439,4.613,11.392,10.121h-3.06c0-5.178-4.001-7.391-8.332-7.391-6.496,0-8.85,4.001-8.285,7.485,1.459,8.756,20.665,2.448,20.665,15.581,0,6.214-4.566,9.886-12.38,9.886-7.061,0-12.286-3.672-12.286-11.015h3.107Z"/>
    <path class="cls-1" d="M571.756,521.942v-33.893h11.58c3.766,0,7.296.235,10.45,2.542,4.472,3.248,5.649,9.838,5.649,14.357,0,4.472-.989,9.462-4.096,12.851-3.106,3.483-7.532,4.143-12.003,4.143h-11.58ZM574.957,519.211h7.673c2.872,0,5.366-.188,7.955-1.553,4.519-2.307,5.649-8.097,5.649-12.71,0-4.942-1.083-10.356-5.837-12.898-2.024-1.083-4.943-1.271-7.767-1.271h-7.673v28.432Z"/>
    <path class="cls-1" d="M615.635,521.942v-33.893h22.548v2.73h-19.347v12.239h17.464v2.73h-17.464v13.463h19.818v2.73h-23.019Z"/>
    <path class="cls-1" d="M678.342,497.887c-1.318-5.79-4.896-8.002-10.686-8.002-8.19,0-11.721,7.014-11.721,15.017,0,7.579,2.777,15.205,12.004,15.205,5.837,0,9.461-3.954,10.732-9.32h3.342c-1.506,6.543-5.602,12.051-14.687,12.051-10.45,0-14.593-8.238-14.593-17.841,0-12.945,6.779-17.841,15.77-17.841,6.967,0,12.051,3.719,13.133,10.732h-3.295Z"/>
    <path class="cls-1" d="M699.296,521.942v-33.893h3.201v33.893h-3.201Z"/>
    <path class="cls-1" d="M722.459,511.821c.518,6.072,4.566,8.285,9.744,8.285,6.073,0,8.615-3.295,8.615-7.014,0-10.498-20.666-3.531-20.666-16.853,0-4.707,3.907-9.085,11.486-9.085,7.625,0,11.438,4.613,11.392,10.121h-3.06c0-5.178-4.001-7.391-8.332-7.391-6.497,0-8.85,4.001-8.285,7.485,1.459,8.756,20.665,2.448,20.665,15.581,0,6.214-4.566,9.886-12.38,9.886-7.061,0-12.287-3.672-12.287-11.015h3.107Z"/>
    <path class="cls-1" d="M760.924,521.942v-33.893h3.201v33.893h-3.201Z"/>
    <path class="cls-1" d="M797.08,487.154c10.592,0,15.958,7.955,15.958,17.888,0,9.744-5.366,17.794-15.816,17.794s-15.77-8.05-15.77-17.794c-.047-9.885,5.507-17.888,15.628-17.888ZM809.837,505.042c0-9.415-4.849-15.158-12.663-15.158-8.708,0-12.521,7.296-12.521,15.158,0,8.002,3.766,15.063,12.616,15.063,8.803,0,12.569-7.155,12.569-15.063Z"/>
    <path class="cls-1" d="M832.487,492.38h-.094v29.562h-3.201v-33.893h3.625l19.583,29.609h.094v-29.609h3.201v33.893h-3.719l-19.488-29.562Z"/>
    <path class="cls-1" d="M873.164,521.942v-33.893h22.548v2.73h-19.347v12.239h17.464v2.73h-17.464v13.463h19.818v2.73h-23.019Z"/>
    <path class="cls-1" d="M913.135,511.821c.518,6.072,4.566,8.285,9.744,8.285,6.073,0,8.615-3.295,8.615-7.014,0-10.498-20.666-3.531-20.666-16.853,0-4.707,3.907-9.085,11.486-9.085,7.625,0,11.438,4.613,11.392,10.121h-3.06c0-5.178-4.001-7.391-8.332-7.391-6.497,0-8.85,4.001-8.285,7.485,1.459,8.756,20.665,2.448,20.665,15.581,0,6.214-4.566,9.886-12.38,9.886-7.061,0-12.287-3.672-12.287-11.015h3.107Z"/>
  </g>
</svg>