<?xml version="1.0" encoding="UTF-8"?>
<!DOCTYPE svg PUBLIC "-//W3C//DTD SVG 1.1//EN" "http://www.w3.org/Graphics/SVG/1.1/DTD/svg11.dtd">
<svg xmlns="http://www.w3.org/2000/svg" version="1.1" width="4500px" height="4500px" style="shape-rendering:geometricPrecision; text-rendering:geometricPrecision; image-rendering:optimizeQuality; fill-rule:evenodd; clip-rule:evenodd" xmlns:xlink="http://www.w3.org/1999/xlink">
<g><path style="opacity:0.992" fill="#5e80b7" d="M 2260.5,984.5 C 2329.26,980.469 2383.76,1006.14 2424,1061.5C 2441.12,1094.01 2438.79,1125.01 2417,1154.5C 2404.67,1168.58 2389.17,1176.75 2370.5,1179C 2309.83,1179.67 2249.17,1179.67 2188.5,1179C 2152.62,1173.12 2131.12,1152.29 2124,1116.5C 2120.52,1093.74 2125.52,1073.07 2139,1054.5C 2170.16,1015 2210.66,991.67 2260.5,984.5 Z"/></g>
<g><path style="opacity:0.997" fill="#e3e4d6" d="M 2529.5,1484.5 C 2446.57,1584.6 2363.41,1684.6 2280,1784.5C 2279.52,1785.45 2279.35,1786.45 2279.5,1787.5C 2187.41,1898.1 2095.07,2008.6 2002.5,2119C 1982.53,2133.43 1960.86,2136.43 1937.5,2128C 1922.68,2121.52 1910.51,2111.69 1901,2098.5C 1883.36,2070.26 1872.03,2039.6 1867,2006.5C 1864.05,1988.94 1862.05,1971.27 1861,1953.5C 1860.33,1920.5 1860.33,1887.5 1861,1854.5C 1865.24,1735.73 1905.24,1631.06 1981,1540.5C 2045.38,1463.79 2109.38,1386.79 2173,1309.5C 2212.11,1268.02 2259.61,1253.52 2315.5,1266C 2344.03,1273.87 2367.86,1289.04 2387,1311.5C 2434.74,1369.06 2482.24,1426.73 2529.5,1484.5 Z"/></g>
<g><path style="opacity:0.996" fill="#5e80b7" d="M 2529.5,1484.5 C 2557.27,1516.11 2583.77,1548.78 2609,1582.5C 2664.09,1662.76 2693.42,1751.76 2697,1849.5C 2698.99,1889.85 2698.66,1930.19 2696,1970.5C 2693.34,2005.79 2685.34,2039.79 2672,2072.5C 2663.46,2092.79 2650.29,2109.29 2632.5,2122C 2610.35,2134.73 2587.69,2135.73 2564.5,2125C 2561.17,2122.67 2557.83,2120.33 2554.5,2118C 2462.47,2008.08 2370.8,1897.91 2279.5,1787.5C 2279.35,1786.45 2279.52,1785.45 2280,1784.5C 2363.41,1684.6 2446.57,1584.6 2529.5,1484.5 Z"/></g>
<g><path style="opacity:0.989" fill="#f9c54f" d="M 2265.5,2019.5 C 2303.23,2017.62 2332.4,2032.28 2353,2063.5C 2371.29,2098.75 2369.29,2132.75 2347,2165.5C 2317.99,2198.63 2282.49,2208.13 2240.5,2194C 2201.24,2175.36 2182.74,2144.19 2185,2100.5C 2192.68,2054.32 2219.51,2027.32 2265.5,2019.5 Z"/></g>
<g><path style="opacity:0.995" fill="#e3e5d6" d="M 1226.5,2438.5 C 1258.51,2435.42 1283.01,2447.42 1300,2474.5C 1418.67,2717.17 1537.33,2959.83 1656,3202.5C 1669.64,3231.88 1666.98,3259.54 1648,3285.5C 1623.76,3309.85 1595.6,3315.68 1563.5,3303C 1551.57,3297.41 1541.74,3289.25 1534,3278.5C 1490.47,3191.44 1447.47,3104.11 1405,3016.5C 1349.76,2900.35 1294.26,2784.35 1238.5,2668.5C 1179.74,2790.35 1121.24,2912.35 1063,3034.5C 1023.43,3116.55 983.095,3198.22 942,3279.5C 920.354,3306.13 892.854,3314.96 859.5,3306C 822.341,3289.81 807.174,3261.64 814,3221.5C 815.268,3216.36 816.934,3211.36 819,3206.5C 938.333,2962.5 1057.67,2718.5 1177,2474.5C 1188.5,2455.51 1205,2443.51 1226.5,2438.5 Z"/></g>
<g><path style="opacity:0.997" fill="#e3e5d6" d="M 1916.5,2438.5 C 1938.92,2435.6 1958.92,2441.1 1976.5,2455C 2170.03,2655.53 2363.2,2856.36 2556,3057.5C 2556.01,2869.47 2556.67,2681.47 2558,2493.5C 2565.07,2465.43 2582.57,2447.6 2610.5,2440C 2638.96,2434.04 2663.13,2441.54 2683,2462.5C 2691.87,2473.25 2697.2,2485.58 2699,2499.5C 2699.67,2749.5 2699.67,2999.5 2699,3249.5C 2693.24,3282.85 2673.74,3302.69 2640.5,3309C 2618.84,3311.75 2599.51,3306.42 2582.5,3293C 2389,3091.5 2195.5,2890 2002,2688.5C 2001.99,2877.53 2001.33,3066.53 2000,3255.5C 1989.55,3289.78 1966.38,3307.78 1930.5,3309.5C 1899.52,3308.67 1877.35,3294.34 1864,3266.5C 1861.44,3260.06 1859.78,3253.39 1859,3246.5C 1858.33,2998.17 1858.33,2749.83 1859,2501.5C 1864.17,2467.5 1883.34,2446.5 1916.5,2438.5 Z"/></g>
<g><path style="opacity:0.995" fill="#e3e5d6" d="M 3307.5,2438.5 C 3340.38,2435.02 3365.21,2447.36 3382,2475.5C 3502.54,2721.25 3622.54,2967.25 3742,3213.5C 3752.22,3247.17 3743.72,3275.01 3716.5,3297C 3685.73,3314.99 3656.06,3313.33 3627.5,3292C 3621.83,3286.81 3617,3280.98 3613,3274.5C 3513.43,3073.02 3415.76,2870.69 3320,2667.5C 3231.42,2853.99 3141.76,3039.99 3051,3225.5C 3041.84,3244.48 3032.18,3263.15 3022,3281.5C 2999.37,3307.37 2971.54,3315.21 2938.5,3305C 2903.7,3288.92 2889.2,3261.75 2895,3223.5C 2896.46,3218.11 2898.13,3212.77 2900,3207.5C 3019.67,2962.83 3139.33,2718.17 3259,2473.5C 3270.33,2454.99 3286.49,2443.32 3307.5,2438.5 Z"/></g>
<g><path style="opacity:0.992" fill="#e3e5d6" d="M 1223.5,3022.5 C 1261.34,3019.82 1288.17,3035.49 1304,3069.5C 1316.13,3108.19 1305.63,3139.02 1272.5,3162C 1236.92,3179.41 1205.09,3174.24 1177,3146.5C 1158.39,3122.47 1154.39,3096.14 1165,3067.5C 1176.92,3042.47 1196.42,3027.47 1223.5,3022.5 Z"/></g>
<g><path style="opacity:0.991" fill="#e3e5d6" d="M 3303.5,3022.5 C 3341.82,3019.9 3368.98,3035.9 3385,3070.5C 3396.77,3111.88 3384.27,3143.38 3347.5,3165C 3308.33,3180 3276.16,3170.84 3251,3137.5C 3232.16,3101.39 3236.99,3068.89 3265.5,3040C 3276.86,3031.15 3289.53,3025.31 3303.5,3022.5 Z"/></g>
</svg>
