<?xml version="1.0" encoding="UTF-8"?>
<svg id="Capa_1" data-name="Capa 1" xmlns="http://www.w3.org/2000/svg" viewBox="0 0 1080 1080">
  <defs>
    <style>
      .cls-1 {
        fill: #e4e5d7;
      }

      .cls-2, .cls-3 {
        fill: #5e80b7;
      }

      .cls-4 {
        fill: #fac550;
      }

      .cls-3 {
        stroke: #5e80b7;
        stroke-miterlimit: 10;
        stroke-width: 11.608px;
      }
    </style>
  </defs>
  <circle class="cls-4" cx="538.006" cy="777.322" r="43.169"/>
  <path class="cls-3" d="M602.534,274.751h0c-32.234-42.495-92.803-42.507-125.05-.024l-.012.015c-15.158,19.97-1.887,49.833,22.145,49.833h80.766c24.028,0,37.3-29.854,22.151-49.825Z"/>
  <path class="cls-1" d="M591.452,394.384c-12.709-15.297-31.565-24.146-51.452-24.146s-38.744,8.849-51.452,24.146l-68.751,82.753-3.524,4.242-18.921,22.775c-61.517,74.045-58.162,143.365-58.162,185.152,0,36.542,9.588,98.599,49.507,98.599,8.438,0,16.439-3.755,21.832-10.245l129.472-155.839,120.204-144.683-68.752-82.753Z"/>
  <path class="cls-2" d="M663.728,481.379l18.921,22.775c61.517,74.045,58.162,143.365,58.162,185.152,0,36.542-9.588,98.599-49.507,98.599-8.438,0-16.439-3.755-21.832-10.245l-129.472-155.839,120.203-144.683,3.524,4.242Z"/>
</svg>