<?xml version="1.0" encoding="UTF-8"?>
<!DOCTYPE svg PUBLIC "-//W3C//DTD SVG 1.1//EN" "http://www.w3.org/Graphics/SVG/1.1/DTD/svg11.dtd">
<svg xmlns="http://www.w3.org/2000/svg" version="1.1" width="4500px" height="4500px" style="shape-rendering:geometricPrecision; text-rendering:geometricPrecision; image-rendering:optimizeQuality; fill-rule:evenodd; clip-rule:evenodd" xmlns:xlink="http://www.w3.org/1999/xlink">
<g><path style="opacity:0.991" fill="#5e80b7" d="M 921.5,1564.5 C 975.374,1563.02 1017.87,1584.02 1049,1627.5C 1064.07,1658.6 1059.23,1686.1 1034.5,1710C 1026.49,1716.01 1017.49,1719.67 1007.5,1721C 957.167,1721.67 906.833,1721.67 856.5,1721C 830.127,1715.63 813.96,1699.79 808,1673.5C 804.483,1655.44 807.817,1638.77 818,1623.5C 844.16,1589.17 878.66,1569.5 921.5,1564.5 Z"/></g>
<g><path style="opacity:0.994" fill="#14334a" d="M 1881.5,1770.5 C 1905.78,1768.39 1924.62,1777.39 1938,1797.5C 2034.61,1994.38 2130.94,2191.38 2227,2388.5C 2237.37,2415.19 2232.2,2438.35 2211.5,2458C 2188.63,2473.87 2165.29,2474.54 2141.5,2460C 2136,2455.83 2131.17,2451 2127,2445.5C 2046.37,2282.9 1967.37,2119.57 1890,1955.5C 1844.8,2048.56 1800.14,2141.89 1756,2235.5C 1721.51,2306.48 1686.51,2377.14 1651,2447.5C 1632.03,2469.03 1608.87,2475.2 1581.5,2466C 1554.52,2451.87 1543.68,2429.7 1549,2399.5C 1549.93,2395.36 1551.27,2391.36 1553,2387.5C 1648.73,2191.04 1744.73,1994.71 1841,1798.5C 1850.61,1783.37 1864.11,1774.04 1881.5,1770.5 Z"/></g>
<g><path style="opacity:0.994" fill="#14334a" d="M 2435.5,1770.5 C 2453.55,1768.8 2469.55,1773.63 2483.5,1785C 2638,1945.5 2792.5,2106 2947,2266.5C 2947.01,2116.14 2947.68,1965.8 2949,1815.5C 2956.92,1786.79 2975.75,1771.79 3005.5,1770.5C 3039.84,1773.01 3059.01,1791.35 3063,1825.5C 3063.67,2022.17 3063.67,2218.83 3063,2415.5C 3059.87,2449.63 3041.21,2467.96 3007,2470.5C 2992.58,2470.36 2979.75,2465.86 2968.5,2457C 2813.33,2295.17 2658.17,2133.33 2503,1971.5C 2502.99,2123.87 2502.33,2276.2 2501,2428.5C 2492.17,2455.16 2473.67,2469.16 2445.5,2470.5C 2413.44,2468.61 2394.28,2451.94 2388,2420.5C 2387.33,2220.5 2387.33,2020.5 2388,1820.5C 2393.12,1793.55 2408.96,1776.88 2435.5,1770.5 Z"/></g>
<g><path style="opacity:0.994" fill="#14334a" d="M 3552.5,1770.5 C 3576.78,1768.39 3595.62,1777.39 3609,1797.5C 3705.61,1994.38 3801.94,2191.38 3898,2388.5C 3908.37,2415.19 3903.2,2438.35 3882.5,2458C 3857.61,2474.89 3832.94,2474.56 3808.5,2457C 3802.92,2452.33 3798.42,2446.83 3795,2440.5C 3715.64,2279.44 3637.64,2117.78 3561,1955.5C 3515.47,2049.23 3470.47,2143.23 3426,2237.5C 3391.85,2307.81 3357.18,2377.81 3322,2447.5C 3302.99,2469.04 3279.83,2475.21 3252.5,2466C 3220.67,2448.19 3211.17,2422.03 3224,2387.5C 3319.73,2191.04 3415.73,1994.71 3512,1798.5C 3521.61,1783.37 3535.11,1774.04 3552.5,1770.5 Z"/></g>
<g><path style="opacity:0.996" fill="#14334a" d="M 1133.5,1966.5 C 1067.2,2045.64 1001.03,2124.98 935,2204.5C 933.906,2206.08 933.072,2207.74 932.5,2209.5C 859.408,2297.77 786.075,2385.94 712.5,2474C 695.96,2487.16 677.627,2490.16 657.5,2483C 642.834,2476.67 631.667,2466.5 624,2452.5C 607.676,2420.87 598.676,2387.21 597,2351.5C 594.462,2307.75 595.462,2264.08 600,2220.5C 611.12,2140.29 642.786,2069.62 695,2008.5C 746.377,1947.46 797.377,1886.13 848,1824.5C 881.821,1790.33 921.988,1779.83 968.5,1793C 988.475,1799.9 1005.31,1811.4 1019,1827.5C 1057.38,1873.71 1095.55,1920.04 1133.5,1966.5 Z"/></g>
<g><path style="opacity:0.995" fill="#5d7fb6" d="M 1133.5,1966.5 C 1160.38,1996.55 1185.21,2028.21 1208,2061.5C 1245.97,2123.76 1265.97,2191.42 1268,2264.5C 1268.67,2290.5 1268.67,2316.5 1268,2342.5C 1266.77,2370.86 1261.77,2398.52 1253,2425.5C 1247.07,2443.87 1237.24,2459.7 1223.5,2473C 1208.19,2485.4 1190.86,2489.4 1171.5,2485C 1161.74,2481.91 1153.57,2476.41 1147,2468.5C 1075.29,2382.29 1003.79,2295.96 932.5,2209.5C 933.072,2207.74 933.906,2206.08 935,2204.5C 1001.03,2124.98 1067.2,2045.64 1133.5,1966.5 Z"/></g>
<g><path style="opacity:0.989" fill="#14334a" d="M 1878.5,2239.5 C 1915.01,2238.2 1937.51,2255.2 1946,2290.5C 1948.57,2326.22 1932.74,2349.05 1898.5,2359C 1869.86,2363.26 1848.03,2353.1 1833,2328.5C 1820.67,2300.51 1825.17,2275.68 1846.5,2254C 1855.97,2246.35 1866.64,2241.52 1878.5,2239.5 Z"/></g>
<g><path style="opacity:0.99" fill="#14334a" d="M 3548.5,2239.5 C 3580.08,2237.86 3601.91,2251.53 3614,2280.5C 3621.94,2313.71 3611.11,2338.54 3581.5,2355C 3550.07,2366.08 3524.57,2358.24 3505,2331.5C 3490.77,2303.46 3494.27,2277.96 3515.5,2255C 3525.31,2247.09 3536.31,2241.92 3548.5,2239.5 Z"/></g>
<g><path style="opacity:0.987" fill="#f9c54f" d="M 924.5,2395.5 C 961.638,2396.13 986.471,2413.8 999,2448.5C 1007.18,2491.31 991.351,2521.14 951.5,2538C 909.998,2547.66 879.831,2533.5 861,2495.5C 849.63,2459.11 859.13,2429.61 889.5,2407C 900.477,2400.62 912.143,2396.78 924.5,2395.5 Z"/></g>
<g><path style="opacity:0.931" fill="#14334a" d="M 2162.5,2778.5 C 2180.84,2776.78 2196.34,2782.44 2209,2795.5C 2214.23,2803.36 2216.73,2812.03 2216.5,2821.5C 2211.83,2821.5 2207.17,2821.5 2202.5,2821.5C 2202.27,2804.9 2193.94,2795.07 2177.5,2792C 2162.52,2789.12 2149.68,2792.95 2139,2803.5C 2131.63,2816.05 2133.46,2826.89 2144.5,2836C 2148.93,2838.55 2153.6,2840.55 2158.5,2842C 2170.6,2844.62 2182.6,2847.62 2194.5,2851C 2215.81,2858.77 2224.31,2873.94 2220,2896.5C 2217.19,2909.95 2209.36,2919.11 2196.5,2924C 2174.17,2931.64 2152.83,2929.64 2132.5,2918C 2121.57,2908.3 2116.57,2896.14 2117.5,2881.5C 2122.17,2881.5 2126.83,2881.5 2131.5,2881.5C 2132.26,2899.77 2141.6,2910.93 2159.5,2915C 2170.46,2917.13 2181.12,2916.13 2191.5,2912C 2204.4,2904.33 2208.9,2893.16 2205,2878.5C 2201.38,2871.55 2195.88,2866.72 2188.5,2864C 2172.31,2859.95 2156.31,2855.29 2140.5,2850C 2124.56,2841.62 2118.06,2828.45 2121,2810.5C 2124.8,2794.7 2134.63,2784.87 2150.5,2781C 2154.64,2780.16 2158.64,2779.33 2162.5,2778.5 Z"/></g>
<g><path style="opacity:0.928" fill="#14334a" d="M 2778.5,2778.5 C 2797.61,2776.92 2814.11,2782.59 2828,2795.5C 2834.58,2803.71 2838.74,2813.05 2840.5,2823.5C 2835.5,2824.83 2830.5,2824.83 2825.5,2823.5C 2817.25,2797.69 2799.58,2787.19 2772.5,2792C 2756.15,2795.35 2744.98,2804.85 2739,2820.5C 2731.69,2842.82 2731.69,2865.16 2739,2887.5C 2750.86,2911.69 2770.03,2920.53 2796.5,2914C 2813.24,2907.42 2823.24,2895.26 2826.5,2877.5C 2831.5,2877.5 2836.5,2877.5 2841.5,2877.5C 2832.8,2915 2809.13,2931.83 2770.5,2928C 2744.39,2923.56 2728.22,2908.39 2722,2882.5C 2716.94,2860.65 2717.6,2838.98 2724,2817.5C 2733.99,2793 2752.15,2780 2778.5,2778.5 Z"/></g>
<g><path style="opacity:0.931" fill="#14334a" d="M 3041.5,2778.5 C 3060.41,2776.74 3076.24,2782.74 3089,2796.5C 3093.83,2804.15 3096,2812.48 3095.5,2821.5C 3091.17,2821.5 3086.83,2821.5 3082.5,2821.5C 3081.47,2804.97 3072.81,2795.14 3056.5,2792C 3044.73,2789.93 3033.73,2791.93 3023.5,2798C 3010.23,2810.74 3010.23,2823.41 3023.5,2836C 3027.05,2837.94 3030.71,2839.61 3034.5,2841C 3048.6,2844.29 3062.6,2847.95 3076.5,2852C 3096.1,2861.04 3103.6,2876.2 3099,2897.5C 3094.77,2912.73 3084.93,2922.23 3069.5,2926C 3053.62,2929.82 3037.96,2929.16 3022.5,2924C 3004.31,2915.8 2995.64,2901.63 2996.5,2881.5C 3001.17,2881.5 3005.83,2881.5 3010.5,2881.5C 3013.05,2904.87 3026.22,2916.54 3050,2916.5C 3062.38,2916.82 3072.71,2912.49 3081,2903.5C 3088.51,2890.06 3086.68,2878.23 3075.5,2868C 3070.16,2864.89 3064.49,2862.55 3058.5,2861C 3047,2858.62 3035.66,2855.62 3024.5,2852C 3003.91,2843.99 2996.08,2829.16 3001,2807.5C 3005.94,2793.89 3015.44,2785.06 3029.5,2781C 3033.67,2780.29 3037.67,2779.46 3041.5,2778.5 Z"/></g>
<g><path style="opacity:0.933" fill="#14334a" d="M 3314.5,2778.5 C 3357.09,2778.25 3381.25,2799.25 3387,2841.5C 3390.46,2867.36 3384.12,2890.36 3368,2910.5C 3348.67,2927.24 3326.51,2932.4 3301.5,2926C 3281.94,2920.11 3268.44,2907.61 3261,2888.5C 3254.07,2866.27 3253.74,2843.94 3260,2821.5C 3269.54,2796.11 3287.71,2781.78 3314.5,2778.5 Z M 3311.5,2791.5 C 3349.22,2789.72 3369.72,2807.72 3373,2845.5C 3375.94,2869.69 3368.77,2890.19 3351.5,2907C 3332.88,2918.6 3313.88,2919.27 3294.5,2909C 3279.48,2898.14 3271.31,2883.3 3270,2864.5C 3267.9,2846.88 3270.9,2830.22 3279,2814.5C 3286.71,2802.27 3297.55,2794.6 3311.5,2791.5 Z"/></g>
<g><path style="opacity:0.93" fill="#14334a" d="M 3836.5,2778.5 C 3854.28,2776.81 3869.45,2782.15 3882,2794.5C 3887.76,2802.55 3890.6,2811.55 3890.5,2821.5C 3885.83,2821.5 3881.17,2821.5 3876.5,2821.5C 3875.61,2805.44 3867.28,2795.61 3851.5,2792C 3840.25,2790.21 3829.58,2791.88 3819.5,2797C 3807.92,2806.08 3805.42,2817.25 3812,2830.5C 3817.55,2836.53 3824.39,2840.36 3832.5,2842C 3847.93,2844.94 3862.93,2849.27 3877.5,2855C 3891.54,2864.41 3897.04,2877.58 3894,2894.5C 3891.78,2907.72 3884.61,2917.22 3872.5,2923C 3850.13,2931.42 3828.47,2930.09 3807.5,2919C 3795.74,2909.31 3790.07,2896.81 3790.5,2881.5C 3795.17,2881.5 3799.83,2881.5 3804.5,2881.5C 3807.89,2904.71 3821.39,2916.38 3845,2916.5C 3855.52,2916.33 3864.86,2912.99 3873,2906.5C 3886.25,2884.82 3880.75,2869.99 3856.5,2862C 3842.99,2858.96 3829.66,2855.29 3816.5,2851C 3798.1,2842.7 3790.93,2828.54 3795,2808.5C 3798.65,2796.19 3806.48,2787.69 3818.5,2783C 3824.48,2780.84 3830.48,2779.34 3836.5,2778.5 Z"/></g>
<g><path style="opacity:0.961" fill="#14334a" d="M 616.5,2782.5 C 621.167,2782.5 625.833,2782.5 630.5,2782.5C 630.5,2829.83 630.5,2877.17 630.5,2924.5C 625.833,2924.5 621.167,2924.5 616.5,2924.5C 616.5,2877.17 616.5,2829.83 616.5,2782.5 Z"/></g>
<g><path style="opacity:0.977" fill="#14334a" d="M 707.5,2782.5 C 712.167,2782.5 716.833,2782.5 721.5,2782.5C 721.5,2825.83 721.5,2869.17 721.5,2912.5C 746.833,2912.5 772.167,2912.5 797.5,2912.5C 797.5,2916.5 797.5,2920.5 797.5,2924.5C 767.5,2924.5 737.5,2924.5 707.5,2924.5C 707.5,2877.17 707.5,2829.83 707.5,2782.5 Z"/></g>
<g><path style="opacity:0.916" fill="#14334a" d="M 857.5,2782.5 C 862.5,2782.5 867.5,2782.5 872.5,2782.5C 872.333,2815.17 872.5,2847.84 873,2880.5C 875.568,2904.4 888.901,2916.4 913,2916.5C 936.165,2916.67 949.498,2905.33 953,2882.5C 953.5,2849.17 953.667,2815.83 953.5,2782.5C 958.5,2782.5 963.5,2782.5 968.5,2782.5C 968.667,2814.84 968.5,2847.17 968,2879.5C 964.82,2912.67 946.487,2929.01 913,2928.5C 878.135,2928.63 859.802,2911.3 858,2876.5C 857.5,2845.17 857.333,2813.84 857.5,2782.5 Z"/></g>
<g><path style="opacity:0.934" fill="#14334a" d="M 1039.5,2782.5 C 1046.86,2782.17 1054.2,2782.5 1061.5,2783.5C 1076.76,2824.13 1091.93,2864.79 1107,2905.5C 1122.54,2865.08 1137.54,2824.41 1152,2783.5C 1159.08,2782.52 1166.25,2782.19 1173.5,2782.5C 1173.5,2829.83 1173.5,2877.17 1173.5,2924.5C 1168.83,2924.5 1164.17,2924.5 1159.5,2924.5C 1159.67,2883.5 1159.5,2842.5 1159,2801.5C 1144.22,2842.5 1129.05,2883.34 1113.5,2924C 1108.85,2924.5 1104.18,2924.67 1099.5,2924.5C 1084.97,2883.76 1070.13,2843.09 1055,2802.5C 1054.5,2843.17 1054.33,2883.83 1054.5,2924.5C 1049.5,2924.5 1044.5,2924.5 1039.5,2924.5C 1039.5,2877.17 1039.5,2829.83 1039.5,2782.5 Z"/></g>
<g><path style="opacity:0.897" fill="#14334a" d="M 1249.5,2782.5 C 1254.5,2782.5 1259.5,2782.5 1264.5,2782.5C 1264.5,2829.83 1264.5,2877.17 1264.5,2924.5C 1259.5,2924.5 1254.5,2924.5 1249.5,2924.5C 1249.5,2877.17 1249.5,2829.83 1249.5,2782.5 Z"/></g>
<g><path style="opacity:0.955" fill="#14334a" d="M 1340.5,2782.5 C 1345.84,2782.33 1351.18,2782.5 1356.5,2783C 1383.71,2823.24 1410.54,2863.74 1437,2904.5C 1437.5,2863.83 1437.67,2823.17 1437.5,2782.5C 1442.17,2782.5 1446.83,2782.5 1451.5,2782.5C 1451.5,2829.83 1451.5,2877.17 1451.5,2924.5C 1445.79,2924.83 1440.13,2924.5 1434.5,2923.5C 1408,2883.17 1381.5,2842.83 1355,2802.5C 1354.5,2843.17 1354.33,2883.83 1354.5,2924.5C 1349.83,2924.5 1345.17,2924.5 1340.5,2924.5C 1340.5,2877.17 1340.5,2829.83 1340.5,2782.5 Z"/></g>
<g><path style="opacity:0.934" fill="#14334a" d="M 1566.5,2782.5 C 1571.87,2782.17 1577.21,2782.51 1582.5,2783.5C 1600.5,2830.17 1618.5,2876.83 1636.5,2923.5C 1631.5,2924.83 1626.5,2924.83 1621.5,2923.5C 1616.26,2909.28 1610.93,2895.11 1605.5,2881C 1584.17,2880.5 1562.84,2880.33 1541.5,2880.5C 1536.84,2894.99 1531.67,2909.32 1526,2923.5C 1520.92,2924.64 1515.75,2924.8 1510.5,2924C 1529.07,2876.78 1547.74,2829.62 1566.5,2782.5 Z M 1573.5,2796.5 C 1582.67,2819.99 1591.67,2843.66 1600.5,2867.5C 1582.85,2868.5 1565.18,2868.83 1547.5,2868.5C 1555.97,2844.44 1564.63,2820.44 1573.5,2796.5 Z"/></g>
<g><path style="opacity:0.958" fill="#14334a" d="M 1778.5,2782.5 C 1813.17,2782.5 1847.83,2782.5 1882.5,2782.5C 1882.5,2786.5 1882.5,2790.5 1882.5,2794.5C 1867.5,2794.5 1852.5,2794.5 1837.5,2794.5C 1837.5,2837.83 1837.5,2881.17 1837.5,2924.5C 1832.83,2924.5 1828.17,2924.5 1823.5,2924.5C 1823.5,2881.17 1823.5,2837.83 1823.5,2794.5C 1808.5,2794.5 1793.5,2794.5 1778.5,2794.5C 1778.5,2790.5 1778.5,2786.5 1778.5,2782.5 Z"/></g>
<g><path style="opacity:0.928" fill="#14334a" d="M 1941.5,2782.5 C 1946.5,2782.5 1951.5,2782.5 1956.5,2782.5C 1956.33,2815.17 1956.5,2847.84 1957,2880.5C 1959.57,2904.4 1972.9,2916.4 1997,2916.5C 2015.85,2917.28 2028.52,2908.95 2035,2891.5C 2036.9,2883.96 2037.9,2876.29 2038,2868.5C 2038.5,2839.84 2038.67,2811.17 2038.5,2782.5C 2043.17,2782.5 2047.83,2782.5 2052.5,2782.5C 2052.67,2815.17 2052.5,2847.84 2052,2880.5C 2048.35,2913.14 2030.02,2929.14 1997,2928.5C 1962.14,2928.63 1943.8,2911.3 1942,2876.5C 1941.5,2845.17 1941.33,2813.84 1941.5,2782.5 Z"/></g>
<g><path style="opacity:0.95" fill="#14334a" d="M 2381.5,2782.5 C 2402.5,2782.33 2423.5,2782.5 2444.5,2783C 2474.44,2786.6 2491.61,2803.44 2496,2833.5C 2499.47,2854.08 2497.47,2874.08 2490,2893.5C 2480.81,2911.69 2465.98,2921.86 2445.5,2924C 2424.17,2924.5 2402.84,2924.67 2381.5,2924.5C 2381.5,2877.17 2381.5,2829.83 2381.5,2782.5 Z M 2395.5,2794.5 C 2412.19,2794.23 2428.86,2794.73 2445.5,2796C 2467.4,2800.57 2479.56,2814.07 2482,2836.5C 2485.53,2856.92 2482.53,2876.25 2473,2894.5C 2466,2903.42 2456.84,2908.92 2445.5,2911C 2428.87,2912.37 2412.2,2912.87 2395.5,2912.5C 2395.5,2873.17 2395.5,2833.83 2395.5,2794.5 Z"/></g>
<g><path style="opacity:0.951" fill="#14334a" d="M 2564.5,2782.5 C 2596.17,2782.5 2627.83,2782.5 2659.5,2782.5C 2659.5,2786.5 2659.5,2790.5 2659.5,2794.5C 2632.5,2794.5 2605.5,2794.5 2578.5,2794.5C 2578.5,2811.17 2578.5,2827.83 2578.5,2844.5C 2602.83,2844.5 2627.17,2844.5 2651.5,2844.5C 2651.5,2848.83 2651.5,2853.17 2651.5,2857.5C 2627.17,2857.5 2602.83,2857.5 2578.5,2857.5C 2578.5,2875.83 2578.5,2894.17 2578.5,2912.5C 2606.17,2912.5 2633.83,2912.5 2661.5,2912.5C 2661.5,2916.5 2661.5,2920.5 2661.5,2924.5C 2629.17,2924.5 2596.83,2924.5 2564.5,2924.5C 2564.5,2877.17 2564.5,2829.83 2564.5,2782.5 Z"/></g>
<g><path style="opacity:0.914" fill="#14334a" d="M 2912.5,2782.5 C 2917.5,2782.5 2922.5,2782.5 2927.5,2782.5C 2927.5,2829.83 2927.5,2877.17 2927.5,2924.5C 2922.5,2924.5 2917.5,2924.5 2912.5,2924.5C 2912.5,2877.17 2912.5,2829.83 2912.5,2782.5 Z"/></g>
<g><path style="opacity:0.961" fill="#14334a" d="M 3169.5,2782.5 C 3174.17,2782.5 3178.83,2782.5 3183.5,2782.5C 3183.5,2829.83 3183.5,2877.17 3183.5,2924.5C 3178.83,2924.5 3174.17,2924.5 3169.5,2924.5C 3169.5,2877.17 3169.5,2829.83 3169.5,2782.5 Z"/></g>
<g><path style="opacity:0.933" fill="#14334a" d="M 3453.5,2782.5 C 3459.43,2782.19 3465.26,2782.53 3471,2783.5C 3497.42,2824 3524.08,2864.34 3551,2904.5C 3551.5,2863.83 3551.67,2823.17 3551.5,2782.5C 3556.17,2782.5 3560.83,2782.5 3565.5,2782.5C 3565.5,2829.83 3565.5,2877.17 3565.5,2924.5C 3559.57,2924.81 3553.74,2924.47 3548,2923.5C 3521.67,2883.5 3495.33,2843.5 3469,2803.5C 3468.5,2843.83 3468.33,2884.17 3468.5,2924.5C 3463.5,2924.5 3458.5,2924.5 3453.5,2924.5C 3453.5,2877.17 3453.5,2829.83 3453.5,2782.5 Z"/></g>
<g><path style="opacity:0.958" fill="#14334a" d="M 3637.5,2782.5 C 3669.17,2782.5 3700.83,2782.5 3732.5,2782.5C 3732.5,2786.5 3732.5,2790.5 3732.5,2794.5C 3705.5,2794.5 3678.5,2794.5 3651.5,2794.5C 3651.5,2811.17 3651.5,2827.83 3651.5,2844.5C 3675.83,2844.5 3700.17,2844.5 3724.5,2844.5C 3724.5,2848.83 3724.5,2853.17 3724.5,2857.5C 3700.17,2857.5 3675.83,2857.5 3651.5,2857.5C 3651.5,2875.83 3651.5,2894.17 3651.5,2912.5C 3679.17,2912.5 3706.83,2912.5 3734.5,2912.5C 3734.5,2916.5 3734.5,2920.5 3734.5,2924.5C 3702.17,2924.5 3669.83,2924.5 3637.5,2924.5C 3637.5,2877.17 3637.5,2829.83 3637.5,2782.5 Z"/></g>
</svg>
