<?xml version="1.0" encoding="UTF-8"?>
<!DOCTYPE svg PUBLIC "-//W3C//DTD SVG 1.1//EN" "http://www.w3.org/Graphics/SVG/1.1/DTD/svg11.dtd">
<svg xmlns="http://www.w3.org/2000/svg" version="1.1" width="4500px" height="4500px" style="shape-rendering:geometricPrecision; text-rendering:geometricPrecision; image-rendering:optimizeQuality; fill-rule:evenodd; clip-rule:evenodd" xmlns:xlink="http://www.w3.org/1999/xlink">
<g><path style="opacity:0.989" fill="#5e80b7" d="M 918.5,1756.5 C 972.855,1753.6 1016.02,1773.93 1048,1817.5C 1063.88,1847.83 1060.05,1875.33 1036.5,1900C 1027.45,1907.36 1017.12,1911.69 1005.5,1913C 956.5,1913.67 907.5,1913.67 858.5,1913C 833.293,1908.46 816.793,1893.96 809,1869.5C 804.305,1850.7 806.972,1833.03 817,1816.5C 842.174,1781.99 876.007,1761.99 918.5,1756.5 Z"/></g>
<g><path style="opacity:0.994" fill="#14334a" d="M 1879.5,1962.5 C 1906.06,1959.86 1926.23,1969.86 1940,1992.5C 2034.73,2186.96 2129.73,2381.29 2225,2575.5C 2236.5,2599.12 2234.5,2621.45 2219,2642.5C 2202.6,2659.85 2182.77,2665.69 2159.5,2660C 2145.19,2656.01 2134.03,2647.85 2126,2635.5C 2045.6,2473.28 1966.93,2310.28 1890,2146.5C 1812.63,2310.57 1733.63,2473.9 1653,2636.5C 1636.52,2657.98 1615.02,2665.82 1588.5,2660C 1558.98,2649.14 1545.48,2627.97 1548,2596.5C 1548.86,2591.37 1550.2,2586.37 1552,2581.5C 1640.94,2399.96 1729.61,2218.29 1818,2036.5C 1826.49,2018.85 1835.49,2001.52 1845,1984.5C 1854.06,1973.23 1865.56,1965.9 1879.5,1962.5 Z"/></g>
<g><path style="opacity:0.994" fill="#14334a" d="M 2433.5,1962.5 C 2451.3,1960.15 2467.3,1964.32 2481.5,1975C 2636.67,2136.17 2791.83,2297.33 2947,2458.5C 2947.01,2308.14 2947.68,2157.8 2949,2007.5C 2956.74,1978.59 2975.57,1963.59 3005.5,1962.5C 3030.68,1963 3048.51,1974.67 3059,1997.5C 3061.36,2003.96 3062.69,2010.62 3063,2017.5C 3063.67,2214.17 3063.67,2410.83 3063,2607.5C 3061.31,2632.18 3049.14,2649.34 3026.5,2659C 3004.27,2665.73 2984.27,2661.73 2966.5,2647C 2812,2485.83 2657.5,2324.67 2503,2163.5C 2502.67,2314.17 2502.33,2464.83 2502,2615.5C 2494.55,2644.77 2475.72,2660.44 2445.5,2662.5C 2412.98,2660.48 2393.81,2643.48 2388,2611.5C 2387.33,2411.83 2387.33,2212.17 2388,2012.5C 2392.26,1985.75 2407.42,1969.08 2433.5,1962.5 Z"/></g>
<g><path style="opacity:0.994" fill="#14334a" d="M 3550.5,1962.5 C 3578.06,1959.86 3598.56,1970.53 3612,1994.5C 3708.27,2191.38 3804.27,2388.38 3900,2585.5C 3908.73,2618.19 3898.23,2642.36 3868.5,2658C 3839.25,2667.36 3815.41,2659.86 3797,2635.5C 3716.79,2473.52 3638.13,2310.86 3561,2147.5C 3513.47,2245.23 3466.47,2343.23 3420,2441.5C 3388.27,2506.62 3356.27,2571.62 3324,2636.5C 3307.52,2657.98 3286.02,2665.82 3259.5,2660C 3229.98,2649.14 3216.48,2627.97 3219,2596.5C 3219.86,2591.37 3221.2,2586.37 3223,2581.5C 3311.61,2400.62 3399.94,2219.62 3488,2038.5C 3496.82,2020.19 3506.16,2002.19 3516,1984.5C 3525.06,1973.23 3536.56,1965.9 3550.5,1962.5 Z"/></g>
<g><path style="opacity:0.996" fill="#14334a" d="M 1133.5,2158.5 C 1066.53,2238.31 999.698,2318.31 933,2398.5C 932.517,2399.45 932.351,2400.45 932.5,2401.5C 860.864,2487.31 789.364,2573.31 718,2659.5C 701.679,2677.83 681.845,2683 658.5,2675C 645.996,2669.84 635.829,2661.67 628,2650.5C 614.809,2629.27 606.142,2606.27 602,2581.5C 596.049,2544.06 594.049,2506.39 596,2468.5C 596.517,2370.26 627.517,2283.26 689,2207.5C 741.572,2144.68 793.905,2081.68 846,2018.5C 877.909,1984.15 916.742,1972.31 962.5,1983C 985.587,1989.62 1004.75,2002.12 1020,2020.5C 1058.07,2066.39 1095.9,2112.39 1133.5,2158.5 Z"/></g>
<g><path style="opacity:0.995" fill="#5d7fb6" d="M 1133.5,2158.5 C 1159.37,2186.87 1183.21,2216.87 1205,2248.5C 1245.13,2311.89 1266.13,2381.23 1268,2456.5C 1269.13,2490.21 1268.46,2523.88 1266,2557.5C 1263.28,2587.04 1255.28,2615.04 1242,2641.5C 1235.45,2653.77 1226.28,2663.61 1214.5,2671C 1193.81,2681.87 1173.81,2680.87 1154.5,2668C 1080.29,2579.29 1006.29,2490.46 932.5,2401.5C 932.351,2400.45 932.517,2399.45 933,2398.5C 999.698,2318.31 1066.53,2238.31 1133.5,2158.5 Z"/></g>
<g><path style="opacity:0.99" fill="#14334a" d="M 1876.5,2431.5 C 1901.09,2428.85 1920.92,2437.19 1936,2456.5C 1949.2,2478.43 1949.87,2500.76 1938,2523.5C 1919.38,2548.82 1894.88,2556.98 1864.5,2548C 1836.01,2534.53 1823.51,2512.03 1827,2480.5C 1833.46,2453.87 1849.96,2437.54 1876.5,2431.5 Z"/></g>
<g><path style="opacity:0.99" fill="#14334a" d="M 3546.5,2431.5 C 3583.1,2429.03 3606.26,2445.36 3616,2480.5C 3619.49,2512.03 3606.99,2534.53 3578.5,2548C 3549.75,2556.75 3525.91,2549.58 3507,2526.5C 3493,2503.17 3493,2479.83 3507,2456.5C 3516.96,2443.02 3530.13,2434.69 3546.5,2431.5 Z"/></g>
<g><path style="opacity:0.987" fill="#f9c54f" d="M 920.5,2587.5 C 957.499,2585.98 983.165,2602.15 997.5,2636C 1007.12,2669.23 998.782,2696.9 972.5,2719C 942.086,2738.52 912.086,2737.86 882.5,2717C 857.565,2693.84 850.398,2666.01 861,2633.5C 872.679,2607.43 892.512,2592.1 920.5,2587.5 Z"/></g>
</svg>
