<?xml version="1.0" encoding="UTF-8"?>
<svg id="Capa_1" data-name="Capa 1" xmlns="http://www.w3.org/2000/svg" viewBox="0 0 1080 1080">
  <defs>
    <style>
      .cls-1 {
        fill: #14334a;
      }

      .cls-2, .cls-3 {
        fill: #5e80b7;
      }

      .cls-4 {
        fill: none;
        stroke: #04344c;
        stroke-width: 2.386px;
      }

      .cls-4, .cls-3 {
        stroke-miterlimit: 10;
      }

      .cls-5 {
        fill: #fac550;
      }

      .cls-3 {
        stroke: #5e80b7;
        stroke-width: 8.197px;
      }
    </style>
  </defs>
  <g>
    <path class="cls-1" d="M276.948,704.482l-51.669,33.75-3.188-4.88,51.669-33.75,3.188,4.88Z"/>
    <path class="cls-1" d="M257.675,672.354l-56.47,24.917-2.354-5.334,51.921-22.909-13.358-30.274,4.549-2.007,15.712,35.607Z"/>
    <path class="cls-1" d="M174.057,625.974l-1.122-5.721,36.088-7.076c14.975-2.936,20.144-9.54,17.719-21.906-2.557-13.039-10.378-16.397-24.679-13.593l-36.089,7.076-1.121-5.721,37.771-7.406c15.73-3.084,25.93,3.04,28.997,18.687,3.102,15.815-4.314,25.219-19.793,28.254l-37.771,7.406Z"/>
    <path class="cls-1" d="M222.941,538.924l-61.601-3.757.543-8.897,55.56-16.878.011-.171-53.118-23.163.538-8.812,61.601,3.758-.355,5.817-54.927-3.35-.011.171,53.695,23.541-.334,5.476-56.163,16.927-.011.171,54.927,3.351-.354,5.817Z"/>
    <path class="cls-1" d="M233.95,450.91l-59.645-15.864,1.498-5.633,59.645,15.864-1.498,5.633Z"/>
    <path class="cls-1" d="M198.391,386.705l-.074.154,48.574,23.199-2.513,5.26-55.689-26.598,2.845-5.956,64.019-8.94.074-.154-48.651-23.236,2.512-5.26,55.69,26.599-2.919,6.11-63.867,8.822Z"/>
    <path class="cls-1" d="M277.128,352.155l-32.717-57.683,4.152-5.131,62.86,20.434-3.774,4.665-19.535-6.656-17.688,21.856,10.477,17.851-3.775,4.664ZM267.803,324.981l15.206-18.791-32.791-10.988,17.585,29.779Z"/>
    <path class="cls-1" d="M323.123,219.514l38.252-23.556,2.606,4.234-16.644,10.249,29.759,48.324-4.964,3.057-29.759-48.324-16.644,10.249-2.607-4.233Z"/>
    <path class="cls-1" d="M394.793,179.991l5.514-1.892,11.934,34.785c4.951,14.434,12.199,18.653,24.118,14.564,12.568-4.312,14.828-12.519,10.1-26.303l-11.934-34.786,5.514-1.892,12.49,36.408c5.201,15.162.525,26.102-14.557,31.275-15.243,5.229-25.571-.834-30.689-15.754l-12.489-36.407Z"/>
    <path class="cls-1" d="M488.879,198.613c2.062,10.905,9.806,14.164,19.187,13.206,11.001-1.124,14.996-7.564,14.308-14.302-1.942-19.018-38.092-2.571-40.558-26.705-.871-8.528,5.397-17.183,19.127-18.586,13.816-1.411,21.578,6.24,22.512,16.228l-5.543.566c-.959-9.381-8.617-12.649-16.463-11.848-11.769,1.203-15.292,8.888-13.624,15.094,4.264,15.592,37.892.609,40.322,24.403,1.15,11.257-6.442,18.754-20.6,20.2-12.792,1.307-22.938-4.378-24.297-17.682l5.629-.575Z"/>
    <path class="cls-1" d="M595.313,217.472l15.293-59.799,20.431,5.226c6.645,1.699,12.768,3.707,17.291,9.2,6.425,7.748,5.527,19.906,3.488,27.88-2.018,7.89-6.014,16.248-13.024,20.825-7.053,4.744-15.157,3.911-23.048,1.893l-20.431-5.225ZM602.191,214.099l13.538,3.462c5.066,1.296,9.553,2.09,14.737.849,9.014-2.03,13.619-11.736,15.701-19.875,2.23-8.721,2.763-18.761-4.479-25.391-3.083-2.823-8.147-4.473-13.131-5.747l-13.538-3.462-12.829,50.164Z"/>
    <path class="cls-1" d="M668.498,240.152l28.477-54.756,36.428,18.945-2.294,4.411-31.257-16.256-10.283,19.773,28.215,14.673-2.294,4.411-28.215-14.673-11.312,21.75,32.018,16.65-2.294,4.411-37.188-19.341Z"/>
    <path class="cls-1" d="M788.563,268.697c5.021-9.576,2.684-16.871-5.334-23.718-11.343-9.686-24.525-4.147-33.988,6.935-8.962,10.494-14.134,24.339-1.357,35.249,8.083,6.902,17.778,5.713,25.884-.216l4.628,3.952c-9.822,7.28-22.007,10.063-34.588-.68-14.471-12.357-10.466-28.663.89-41.961,15.308-17.926,30.483-16.689,42.934-6.058,9.647,8.238,12.29,19.399,5.495,30.393l-4.562-3.896Z"/>
    <path class="cls-1" d="M783.843,328.573l47.966-38.837,3.668,4.53-47.966,38.837-3.668-4.53Z"/>
    <path class="cls-1" d="M823.602,351.496c-9.184,6.231-9.092,14.632-4.479,22.856,5.409,9.646,12.907,10.747,18.814,7.435,16.673-9.351-12.801-35.968,8.358-47.834,7.478-4.193,17.911-1.887,24.662,10.15,6.793,12.112,2.861,22.278-5.928,27.109l-2.726-4.86c8.225-4.612,8.174-12.938,4.316-19.816-5.786-10.318-14.238-10.493-19.268-6.492-12.607,10.116,14.52,35.003-6.341,46.702-9.869,5.535-19.769,1.553-26.729-10.858-6.289-11.216-5.112-22.785,6.552-29.326l2.768,4.935Z"/>
    <path class="cls-1" d="M836.935,421.28l58.184-20.6,1.945,5.495-58.184,20.6-1.945-5.495Z"/>
    <path class="cls-1" d="M915.109,473.019c2.836,19.078-10.058,30.875-27.949,33.534-17.552,2.609-33.488-4.902-36.286-23.726-2.798-18.824,10.277-30.562,27.829-33.17,17.794-2.732,33.696,5.131,36.406,23.361ZM886.304,500.787c16.958-2.521,26.005-12.792,23.913-26.868-2.332-15.687-16.496-20.601-30.656-18.496-14.415,2.143-26.126,10.816-23.756,26.758,2.356,15.856,16.254,20.724,30.499,18.606Z"/>
    <path class="cls-1" d="M909.736,548.499l.017-.171-53.566-5.347.579-5.801,61.414,6.131-.656,6.567-57.193,30.128-.017.171,53.651,5.355-.579,5.8-61.413-6.13.672-6.738,57.092-29.966Z"/>
    <path class="cls-1" d="M845.368,613.115l58.426,19.885-13.229,38.869-4.706-1.602,11.351-33.352-21.098-7.181-10.247,30.105-4.706-1.603,10.246-30.104-23.207-7.899-11.628,34.163-4.706-1.603,13.505-39.68Z"/>
    <path class="cls-1" d="M835.302,687.37c-9.958-4.898-17.214-.663-22.079,7.414-5.707,9.472-2.956,16.533,2.845,20.027,16.374,9.865,24.927-28.916,45.706-16.397,7.342,4.424,10.499,14.632,3.377,26.453-7.166,11.896-17.944,13.508-26.491,8.259l2.875-4.772c8.077,4.865,15.288.703,19.357-6.052,6.104-10.133,2.075-17.563-3.889-19.956-15.028-5.951-23.237,29.934-43.724,17.592-9.691-5.839-11.128-16.412-3.785-28.601,6.636-11.014,17.272-15.713,28.728-8.812l-2.92,4.846Z"/>
  </g>
  <path class="cls-4" d="M328.966,792.076c57.748,46.477,131.135,74.312,211.033,74.312s153.834-28.042,211.681-74.833"/>
  <g>
    <circle class="cls-5" cx="538.916" cy="702.976" r="30.482"/>
    <path class="cls-3" d="M584.48,348.104h0c-22.761-30.006-65.529-30.015-88.3-.017l-.008.011c-10.703,14.101-1.333,35.188,15.637,35.188h57.03c16.966,0,26.338-21.08,15.641-35.182Z"/>
    <path class="cls-1" d="M576.654,432.578c-8.974-10.801-22.288-17.05-36.331-17.05s-27.357,6.248-36.331,17.05l-48.546,58.433-2.489,2.995-13.36,16.081c-43.438,52.284-41.069,101.232-41.069,130.738,0,25.803,6.77,69.622,34.958,69.622,5.959,0,11.608-2.651,15.416-7.234l91.422-110.04,84.877-102.163-48.547-58.433Z"/>
    <path class="cls-2" d="M627.689,494.007l13.361,16.081c43.438,52.284,41.069,101.232,41.069,130.738,0,25.803-6.77,69.622-34.958,69.622-5.959,0-11.608-2.651-15.416-7.234l-91.422-110.04,84.877-102.163,2.489,2.995Z"/>
  </g>
</svg>