<?xml version="1.0" encoding="UTF-8"?>
<!DOCTYPE svg PUBLIC "-//W3C//DTD SVG 1.1//EN" "http://www.w3.org/Graphics/SVG/1.1/DTD/svg11.dtd">
<svg xmlns="http://www.w3.org/2000/svg" version="1.1" width="4390px" height="1010px" style="shape-rendering:geometricPrecision; text-rendering:geometricPrecision; image-rendering:optimizeQuality; fill-rule:evenodd; clip-rule:evenodd" xmlns:xlink="http://www.w3.org/1999/xlink">
<g><path style="opacity:0.99" fill="#5d7fb6" d="M 287.5,88.5 C 332.606,86.6408 369.106,103.308 397,138.5C 413.938,164.086 413.604,189.42 396,214.5C 386.948,225.277 375.448,231.777 361.5,234C 318.833,234.667 276.167,234.667 233.5,234C 203.001,226.546 187.001,207.046 185.5,175.5C 185.783,161.817 189.95,149.484 198,138.5C 220.799,109.193 250.632,92.5266 287.5,88.5 Z M 291.5,121.5 C 328.242,121.113 356.076,136.446 375,167.5C 378.087,180.576 374.253,191.076 363.5,199C 361.5,199.667 359.5,200.333 357.5,201C 317.5,201.667 277.5,201.667 237.5,201C 229.523,199.025 224.023,194.192 221,186.5C 216.813,174.437 219.146,163.77 228,154.5C 245.032,135.402 266.199,124.402 291.5,121.5 Z"/></g>
<g><path style="opacity:0.99" fill="#5d7fb6" d="M 1366.5,88.5 C 1412.31,87.1572 1449.14,104.491 1477,140.5C 1486.33,154.482 1489.66,169.816 1487,186.5C 1481.91,212.587 1466.41,228.42 1440.5,234C 1397.5,234.667 1354.5,234.667 1311.5,234C 1281.55,226.375 1265.89,207.041 1264.5,176C 1264.36,163.082 1267.86,151.249 1275,140.5C 1298.03,110.065 1328.53,92.7319 1366.5,88.5 Z M 1369.5,121.5 C 1401.52,121.101 1427.68,133.101 1448,157.5C 1457.81,172.293 1456.31,185.793 1443.5,198C 1441.28,199.275 1438.95,200.275 1436.5,201C 1396.17,201.667 1355.83,201.667 1315.5,201C 1301.5,195.171 1295.66,184.671 1298,169.5C 1308.04,150.13 1323.21,136.297 1343.5,128C 1352.07,124.86 1360.73,122.693 1369.5,121.5 Z"/></g>
<g><path style="opacity:0.989" fill="#5d7fb6" d="M 2464.5,88.5 C 2508.82,87.0842 2544.99,103.418 2573,137.5C 2591.07,163.738 2590.74,189.738 2572,215.5C 2562.99,225.502 2551.82,231.669 2538.5,234C 2495.5,234.667 2452.5,234.667 2409.5,234C 2385.89,228.39 2370.72,213.89 2364,190.5C 2359.7,170.044 2364.03,151.711 2377,135.5C 2399.88,108.141 2429.05,92.4743 2464.5,88.5 Z M 2467.5,121.5 C 2501.71,120.854 2528.87,134.187 2549,161.5C 2555.63,175.575 2553.13,187.742 2541.5,198C 2539.28,199.275 2536.95,200.275 2534.5,201C 2494.17,201.667 2453.83,201.667 2413.5,201C 2398.26,194.31 2392.76,182.81 2397,166.5C 2413.36,140.31 2436.86,125.31 2467.5,121.5 Z"/></g>
<g><path style="opacity:0.989" fill="#5d7fb6" d="M 3543.5,88.5 C 3588.8,87.0714 3625.3,104.071 3653,139.5C 3668.61,164.394 3668.28,189.06 3652,213.5C 3643.04,224.564 3631.54,231.397 3617.5,234C 3574.5,234.667 3531.5,234.667 3488.5,234C 3465.1,229.272 3449.94,215.438 3443,192.5C 3438.5,174.36 3441.16,157.36 3451,141.5C 3474.22,110.475 3505.05,92.8086 3543.5,88.5 Z M 3546.5,121.5 C 3577.32,120.997 3602.82,132.33 3623,155.5C 3635.48,171.505 3633.98,186.005 3618.5,199C 3616.61,199.973 3614.61,200.64 3612.5,201C 3572.5,201.667 3532.5,201.667 3492.5,201C 3480.74,196.686 3474.41,188.186 3473.5,175.5C 3474.68,166.481 3478.51,158.814 3485,152.5C 3501.72,134.559 3522.22,124.226 3546.5,121.5 Z"/></g>
<g><path style="opacity:0.995" fill="#f9c44f" d="M 837.5,104.5 C 873.017,104.206 894.85,121.206 903,155.5C 905.479,191.669 889.312,214.502 854.5,224C 824.026,227.515 801.859,215.682 788,188.5C 777.348,157.124 785.515,131.957 812.5,113C 820.45,108.629 828.783,105.795 837.5,104.5 Z"/></g>
<g><path style="opacity:0.995" fill="#f9c44f" d="M 1915.5,104.5 C 1955.73,104.899 1978.06,125.066 1982.5,165C 1981.26,190.538 1969.26,208.872 1946.5,220C 1914.59,231.159 1889.09,222.993 1870,195.5C 1856.13,167.019 1860.29,141.519 1882.5,119C 1892.25,111.146 1903.25,106.312 1915.5,104.5 Z"/></g>
<g><path style="opacity:0.995" fill="#f9c44f" d="M 3013.5,104.5 C 3047.24,103.757 3069.07,119.423 3079,151.5C 3083.78,183.687 3071.61,206.853 3042.5,221C 3011.39,230.409 2986.56,221.909 2968,195.5C 2954.4,166.974 2958.57,141.474 2980.5,119C 2990.35,111.407 3001.35,106.573 3013.5,104.5 Z"/></g>
<g><path style="opacity:0.996" fill="#f9c44f" d="M 4092.5,104.5 C 4127.57,104.092 4149.4,120.759 4158,154.5C 4161.4,181.332 4151.9,202.165 4129.5,217C 4100.35,230.891 4074.52,226.391 4052,203.5C 4034.4,178.42 4034.06,153.086 4051,127.5C 4061.96,114.442 4075.79,106.776 4092.5,104.5 Z"/></g>
<g><path style="opacity:0.991" fill="#5d7fb6" d="M 625.5,133.5 C 645.236,132.289 661.736,138.955 675,153.5C 730.333,220.167 785.667,286.833 841,353.5C 895.333,287.833 949.667,222.167 1004,156.5C 1023.68,133.955 1047.51,128.122 1075.5,139C 1090.56,146.731 1102.4,157.897 1111,172.5C 1123.77,196.58 1131.1,222.247 1133,249.5C 1134.56,279.48 1134.9,309.48 1134,339.5C 1130.17,419.043 1103.17,489.376 1053,550.5C 1010.43,601.315 968.095,652.315 926,703.5C 890.264,742.475 847.431,752.975 797.5,735C 782.718,728.549 769.884,719.383 759,707.5C 713.667,652.833 668.333,598.167 623,543.5C 568.138,471.728 542.638,390.395 546.5,299.5C 545.028,262.939 549.861,227.272 561,192.5C 568.285,171.903 580.785,155.403 598.5,143C 607.034,138.102 616.034,134.935 625.5,133.5 Z M 628.5,166.5 C 635.932,166.365 642.432,168.698 648,173.5C 704.645,242.312 761.478,310.979 818.5,379.5C 771.224,437.776 723.224,495.442 674.5,552.5C 636.856,512.947 609.69,466.947 593,414.5C 583.164,376.981 578.664,338.815 579.5,300C 578.635,268.138 582.802,236.972 592,206.5C 596.274,193.447 603.44,182.28 613.5,173C 618.142,169.74 623.142,167.573 628.5,166.5 Z M 1046.5,166.5 C 1058.68,166.28 1068.52,170.947 1076,180.5C 1087.87,199.1 1095.2,219.433 1098,241.5C 1099.41,250.455 1100.41,259.455 1101,268.5C 1102.09,299.546 1101.42,330.546 1099,361.5C 1092.82,414.066 1074.82,462.066 1045,505.5C 1033.09,522.075 1020.43,538.075 1007,553.5C 959.191,495.39 911.024,437.556 862.5,380C 920.123,310.041 978.123,240.375 1036.5,171C 1039.82,169.17 1043.15,167.67 1046.5,166.5 Z M 839.5,406.5 C 841.716,407.203 843.549,408.536 845,410.5C 891.5,466.833 938,523.167 984.5,579.5C 953.774,618.065 922.108,655.898 889.5,693C 858.292,715.572 826.626,716.239 794.5,695C 789.667,690.167 784.833,685.333 780,680.5C 752.355,646.688 724.522,613.021 696.5,579.5C 744.567,522.106 792.234,464.439 839.5,406.5 Z"/></g>
<g><path style="opacity:0.991" fill="#5d7fb6" d="M 1703.5,133.5 C 1725.06,132.031 1742.56,139.698 1756,156.5C 1810.33,222.167 1864.67,287.833 1919,353.5C 1974.33,286.833 2029.67,220.167 2085,153.5C 2108.63,130.58 2134.8,127.414 2163.5,144C 2178.37,155.548 2189.54,170.048 2197,187.5C 2207.34,214.868 2212.67,243.201 2213,272.5C 2214.88,313.423 2212.54,354.089 2206,394.5C 2195.12,447.576 2173.45,495.576 2141,538.5C 2094.29,594.208 2047.96,650.208 2002,706.5C 1965.32,743.903 1922.49,753.07 1873.5,734C 1858.67,726.849 1845.84,717.016 1835,704.5C 1791.38,651.208 1747.38,598.208 1703,545.5C 1647.02,473.703 1621.18,392.037 1625.5,300.5C 1623.44,263.211 1628.27,226.878 1640,191.5C 1647.26,170.584 1660.09,154.084 1678.5,142C 1686.48,137.764 1694.82,134.931 1703.5,133.5 Z M 1706.5,166.5 C 1715.64,166.156 1723.14,169.489 1729,176.5C 1785.29,244.241 1841.45,312.074 1897.5,380C 1848.98,437.556 1800.81,495.39 1753,553.5C 1733.38,530.923 1715.71,506.923 1700,481.5C 1674.35,435.909 1660.68,386.909 1659,334.5C 1658.33,312.833 1658.33,291.167 1659,269.5C 1660.25,246.562 1664.59,224.229 1672,202.5C 1676.04,191.584 1682.2,182.084 1690.5,174C 1695.54,170.643 1700.88,168.143 1706.5,166.5 Z M 2125.5,166.5 C 2138.35,166.673 2148.51,172.007 2156,182.5C 2167.57,201.539 2174.57,222.205 2177,244.5C 2182,289.578 2181.33,334.578 2175,379.5C 2166.77,427.549 2148.44,471.216 2120,510.5C 2109.21,525.092 2097.71,539.092 2085.5,552.5C 2036.78,495.442 1988.78,437.776 1941.5,379.5C 1999.26,309.125 2057.59,239.291 2116.5,170C 2119.57,168.704 2122.57,167.538 2125.5,166.5 Z M 1918.5,406.5 C 1919.5,406.414 1920.33,406.748 1921,407.5C 1968.31,464.979 2015.81,522.312 2063.5,579.5C 2033.02,616.479 2002.36,653.313 1971.5,690C 1947.48,710.615 1920.48,715.615 1890.5,705C 1878.99,700.153 1869.15,692.987 1861,683.5C 1832.31,648.979 1803.81,614.312 1775.5,579.5C 1822.94,521.618 1870.6,463.952 1918.5,406.5 Z"/></g>
<g><path style="opacity:0.991" fill="#5d7fb6" d="M 2801.5,133.5 C 2820.43,132.307 2836.6,138.307 2850,151.5C 2905.37,218.909 2961.2,285.909 3017.5,352.5C 3073.23,286.058 3128.73,219.391 3184,152.5C 3204.61,132.648 3228.11,128.481 3254.5,140C 3272.03,149.879 3284.86,164.046 3293,182.5C 3304.37,210.008 3310.37,238.674 3311,268.5C 3313.61,314.229 3310.61,359.562 3302,404.5C 3288.96,459.919 3264.29,509.252 3228,552.5C 3185.33,603.833 3142.67,655.167 3100,706.5C 3063.37,743.894 3020.54,753.06 2971.5,734C 2957.01,727.187 2944.51,717.687 2934,705.5C 2888.67,650.833 2843.33,596.167 2798,541.5C 2744.26,470.25 2719.42,389.75 2723.5,300C 2721.72,263.993 2726.22,228.826 2737,194.5C 2744.26,172.45 2757.43,154.95 2776.5,142C 2784.48,137.764 2792.82,134.931 2801.5,133.5 Z M 2804.5,166.5 C 2814.16,166.248 2822,169.915 2828,177.5C 2884.02,244.687 2939.86,312.021 2995.5,379.5C 2947.73,437.391 2899.73,495.058 2851.5,552.5C 2777.72,473.678 2746.22,380.011 2757,271.5C 2757.95,247.078 2762.62,223.412 2771,200.5C 2775.28,189.07 2782.12,179.57 2791.5,172C 2795.74,169.651 2800.07,167.818 2804.5,166.5 Z M 3223.5,166.5 C 3239.3,167.135 3250.8,174.469 3258,188.5C 3270.77,215.696 3277.44,244.363 3278,274.5C 3288.15,381.908 3256.65,474.574 3183.5,552.5C 3134.8,495.427 3086.8,437.761 3039.5,379.5C 3097.14,309.723 3155.14,240.223 3213.5,171C 3216.7,168.997 3220.04,167.497 3223.5,166.5 Z M 3016.5,406.5 C 3018.02,406.511 3019.18,407.177 3020,408.5C 3066.98,465.646 3114.14,522.646 3161.5,579.5C 3130.69,616.813 3099.69,653.979 3068.5,691C 3040.53,713.44 3010.53,716.44 2978.5,700C 2974.66,697.578 2970.99,694.911 2967.5,692C 2935.81,654.777 2904.48,617.277 2873.5,579.5C 2921.41,521.987 2969.08,464.32 3016.5,406.5 Z"/></g>
<g><path style="opacity:0.991" fill="#5d7fb6" d="M 4389.5,259.5 C 4389.5,287.167 4389.5,314.833 4389.5,342.5C 4384.98,417.907 4359.48,485.24 4313,544.5C 4265.83,601 4218.67,657.5 4171.5,714C 4140.08,741.519 4104.08,749.852 4063.5,739C 4045.16,733.088 4029.33,723.254 4016,709.5C 3973,657.833 3930,606.167 3887,554.5C 3826.67,481.523 3798.17,397.356 3801.5,302C 3800.27,266.816 3804.44,232.316 3814,198.5C 3820.84,176.965 3833.01,159.132 3850.5,145C 3874.82,129.352 3898.82,129.686 3922.5,146C 3981.09,214.582 4038.92,283.749 4096,353.5C 4153.41,283.415 4211.58,213.915 4270.5,145C 4303.73,126.274 4332.89,131.441 4358,160.5C 4371.92,180.364 4380.92,202.364 4385,226.5C 4386.76,237.614 4388.26,248.614 4389.5,259.5 Z M 3883.5,166.5 C 3891.49,166.328 3898.32,168.995 3904,174.5C 3960.62,242.926 4017.12,311.426 4073.5,380C 4025.68,437.822 3977.85,495.655 3930,553.5C 3905.44,526.938 3884.78,497.605 3868,465.5C 3848.89,426.382 3838.22,385.049 3836,341.5C 3835.33,315.833 3835.33,290.167 3836,264.5C 3837.47,242.126 3842.14,220.459 3850,199.5C 3854.54,187.968 3861.71,178.468 3871.5,171C 3875.43,168.972 3879.43,167.472 3883.5,166.5 Z M 4302.5,166.5 C 4314.3,166.489 4323.8,171.156 4331,180.5C 4342.11,196.817 4349.11,214.817 4352,234.5C 4353.74,244.78 4355.08,255.114 4356,265.5C 4357.13,297.881 4356.46,330.214 4354,362.5C 4347.42,417.273 4328.08,466.94 4296,511.5C 4284.67,525.5 4273.33,539.5 4262,553.5C 4214.15,495.655 4166.32,437.822 4118.5,380C 4174.3,311.575 4230.47,243.408 4287,175.5C 4291.29,170.779 4296.46,167.779 4302.5,166.5 Z M 4095.5,405.5 C 4143.82,463.165 4191.82,521.165 4239.5,579.5C 4211.52,613.979 4183.36,648.312 4155,682.5C 4130.8,709.176 4101.63,716.676 4067.5,705C 4055.3,699.481 4044.8,691.647 4036,681.5C 4007.95,647.619 3980.11,613.619 3952.5,579.5C 4000.16,521.507 4047.82,463.507 4095.5,405.5 Z"/></g>
<g><path style="opacity:0.575" fill="#fefefe" d="M 1421.5,237.5 C 1423.34,237.639 1423.67,238.306 1422.5,239.5C 1421.7,239.043 1421.37,238.376 1421.5,237.5 Z"/></g>
<g><path style="opacity:0.991" fill="#5d7fb6" d="M 287.5,264.5 C 323.654,262.506 354.154,274.506 379,300.5C 426.667,358.167 474.333,415.833 522,473.5C 565.667,533.163 588.667,600.163 591,674.5C 591.862,701.852 591.529,729.185 590,756.5C 588.114,784.38 580.781,810.713 568,835.5C 556.286,856.269 538.786,869.102 515.5,874C 498.758,876.305 483.758,872.305 470.5,862C 412.942,793.034 355.275,724.201 297.5,655.5C 242.175,721.663 187.008,787.996 132,854.5C 116.082,871.694 96.5816,877.86 73.5,873C 52.2321,866.401 36.3988,853.235 26,833.5C 13.6977,808.96 6.69768,782.96 5,755.5C 1.78395,709.639 3.45062,663.973 10,618.5C 20.9446,561.295 44.278,509.962 80,464.5C 127.572,406.537 175.738,349.037 224.5,292C 242.778,276.521 263.778,267.354 287.5,264.5 Z M 291.5,297.5 C 318.548,296.775 340.714,306.775 358,327.5C 385.645,361.312 413.478,394.979 441.5,428.5C 394.224,486.776 346.224,544.442 297.5,601.5C 248.795,544.427 200.795,486.761 153.5,428.5C 181.522,394.979 209.355,361.312 237,327.5C 251.3,310.271 269.466,300.271 291.5,297.5 Z M 130.5,455.5 C 131.496,455.414 132.329,455.748 133,456.5C 180.311,513.979 227.811,571.312 275.5,628.5C 218.811,696.688 162.311,765.021 106,833.5C 93.7519,843.868 81.2519,844.035 68.5,834C 59.5937,825.027 53.0937,814.527 49,802.5C 39.5058,771.39 35.3391,739.557 36.5,707C 32.8579,630.033 53.0246,560.2 97,497.5C 108.38,483.625 119.547,469.625 130.5,455.5 Z M 462.5,455.5 C 522.903,516.695 554.736,590.695 558,677.5C 558.667,696.833 558.667,716.167 558,735.5C 557.127,758.402 553.127,780.736 546,802.5C 541.817,815.039 534.983,825.873 525.5,835C 513.438,843.772 501.605,843.605 490,834.5C 433.355,765.688 376.522,697.021 319.5,628.5C 367.567,571.106 415.234,513.439 462.5,455.5 Z"/></g>
<g><path style="opacity:0.991" fill="#5d7fb6" d="M 1366.5,264.5 C 1403.98,262.599 1435.15,275.599 1460,303.5C 1505.33,358.167 1550.67,412.833 1596,467.5C 1648.59,537.789 1673.42,617.123 1670.5,705.5C 1671.61,739.761 1667.78,773.428 1659,806.5C 1653.3,826.425 1643.13,843.592 1628.5,858C 1604.2,877.591 1578.53,879.591 1551.5,864C 1547.33,859.833 1543.17,855.667 1539,851.5C 1484.67,785.833 1430.33,720.167 1376,654.5C 1320.24,722.351 1264.24,790.018 1208,857.5C 1188.05,875.7 1165.55,879.533 1140.5,869C 1126.82,862.321 1115.99,852.488 1108,839.5C 1094.17,815.003 1086.17,788.67 1084,760.5C 1082.42,728.855 1082.09,697.188 1083,665.5C 1087.24,589.412 1112.91,521.746 1160,462.5C 1204.38,409.792 1248.38,356.792 1292,303.5C 1311.98,281.095 1336.81,268.095 1366.5,264.5 Z M 1369.5,297.5 C 1395.3,296.481 1416.8,305.481 1434,324.5C 1462.83,359.333 1491.67,394.167 1520.5,429C 1471.98,486.556 1423.81,544.39 1376,602.5C 1328.21,544.375 1280.04,486.541 1231.5,429C 1262.69,390.963 1294.36,353.296 1326.5,316C 1339.23,305.966 1353.56,299.799 1369.5,297.5 Z M 1209.5,455.5 C 1258.35,512.851 1306.68,570.684 1354.5,629C 1298.31,695.89 1242.48,763.056 1187,830.5C 1176.15,842.938 1163.65,844.772 1149.5,836C 1139.94,828.098 1133.11,818.265 1129,806.5C 1121.72,785.774 1117.39,764.441 1116,742.5C 1114.87,710.119 1115.54,677.786 1118,645.5C 1124.02,593.164 1142.02,545.498 1172,502.5C 1184.03,486.438 1196.53,470.771 1209.5,455.5 Z M 1541.5,455.5 C 1585.18,500.171 1614.35,553.171 1629,614.5C 1632.56,632.003 1634.9,649.669 1636,667.5C 1636.67,692.833 1636.67,718.167 1636,743.5C 1634.48,765.089 1630.15,786.089 1623,806.5C 1618.86,818.291 1612.03,828.124 1602.5,836C 1588.98,844.533 1576.81,843.033 1566,831.5C 1509.8,764.258 1453.97,696.758 1398.5,629C 1445.61,570.722 1493.28,512.889 1541.5,455.5 Z"/></g>
<g><path style="opacity:0.991" fill="#5d7fb6" d="M 2464.5,264.5 C 2498.41,262.633 2527.58,273.3 2552,296.5C 2598.33,352.167 2644.67,407.833 2691,463.5C 2746.78,535.698 2772.62,617.698 2768.5,709.5C 2769.42,741.352 2765.92,772.685 2758,803.5C 2752.15,825.044 2741.32,843.544 2725.5,859C 2706.67,874.165 2685.67,878.165 2662.5,871C 2652.81,866.899 2644.64,860.732 2638,852.5C 2583.69,786.687 2529.19,721.021 2474.5,655.5C 2418.51,722.329 2362.67,789.329 2307,856.5C 2287.03,875.56 2264.19,879.726 2238.5,869C 2220.17,858.668 2206.67,843.835 2198,824.5C 2189.37,803.662 2184.04,781.996 2182,759.5C 2180.43,729.187 2180.1,698.854 2181,668.5C 2184.39,593.118 2209.05,525.785 2255,466.5C 2300.33,411.833 2345.67,357.167 2391,302.5C 2410.83,280.671 2435.33,268.004 2464.5,264.5 Z M 2467.5,297.5 C 2493.85,296.446 2515.69,305.779 2533,325.5C 2561.5,360 2590,394.5 2618.5,429C 2570.45,486.926 2522.29,544.759 2474,602.5C 2426.15,544.655 2378.32,486.822 2330.5,429C 2361.11,391.386 2392.11,354.053 2423.5,317C 2436.39,306.385 2451.06,299.885 2467.5,297.5 Z M 2307.5,455.5 C 2356.35,512.851 2404.68,570.684 2452.5,629C 2396.67,696.167 2340.83,763.333 2285,830.5C 2273.57,843.36 2260.74,844.86 2246.5,835C 2238.24,827.652 2232.07,818.819 2228,808.5C 2220.01,786.538 2215.34,763.871 2214,740.5C 2212.91,709.121 2213.58,677.788 2216,646.5C 2222.24,592.083 2241.24,542.75 2273,498.5C 2284.03,483.771 2295.53,469.437 2307.5,455.5 Z M 2639.5,455.5 C 2707.36,525.847 2739.36,610.347 2735.5,709C 2735.8,734.453 2733.3,759.62 2728,784.5C 2724.79,799.237 2719.13,812.904 2711,825.5C 2700.29,840.963 2686.46,844.797 2669.5,837C 2611.27,767.938 2553.6,698.438 2496.5,628.5C 2543.94,570.618 2591.6,512.952 2639.5,455.5 Z"/></g>
<g><path style="opacity:0.991" fill="#5d7fb6" d="M 3542.5,264.5 C 3579.21,262.454 3610.05,274.787 3635,301.5C 3683.71,359.876 3732.04,418.542 3780,477.5C 3818.06,530.663 3839.73,589.996 3845,655.5C 3846.53,685.483 3846.87,715.483 3846,745.5C 3845.19,778.088 3837.19,808.755 3822,837.5C 3812.55,852.624 3799.71,863.79 3783.5,871C 3761.92,878.347 3742.25,875.014 3724.5,861C 3667.33,792.329 3609.99,723.829 3552.5,655.5C 3497.51,721.329 3442.67,787.329 3388,853.5C 3368.96,874.246 3346.12,879.746 3319.5,870C 3304.54,863.042 3292.71,852.542 3284,838.5C 3269.63,812.041 3261.63,783.707 3260,753.5C 3258.04,722.502 3258.04,691.502 3260,660.5C 3264.71,589.024 3288.71,525.024 3332,468.5C 3379,411.833 3426,355.167 3473,298.5C 3492.19,278.987 3515.36,267.654 3542.5,264.5 Z M 3546.5,297.5 C 3568.61,296.702 3587.94,303.535 3604.5,318C 3635.36,354.687 3666.02,391.521 3696.5,428.5C 3648.86,486.646 3601.02,544.646 3553,602.5C 3504.71,544.759 3456.55,486.926 3408.5,429C 3440.08,390.08 3472.42,351.747 3505.5,314C 3517.87,305.048 3531.54,299.548 3546.5,297.5 Z M 3385.5,455.5 C 3387.02,455.511 3388.18,456.177 3389,457.5C 3435.98,514.646 3483.14,571.646 3530.5,628.5C 3473.4,698.438 3415.73,767.938 3357.5,837C 3345.53,843.537 3334.2,842.537 3323.5,834C 3315.32,825.478 3309.16,815.644 3305,804.5C 3297,780.491 3292.67,755.825 3292,730.5C 3289.22,684.13 3293.56,638.463 3305,593.5C 3314.54,561.096 3328.87,531.096 3348,503.5C 3359.95,487.051 3372.45,471.051 3385.5,455.5 Z M 3717.5,455.5 C 3785.16,524.757 3817.16,608.257 3813.5,706C 3815.13,740.032 3810.63,773.198 3800,805.5C 3795.87,816.93 3789.37,826.763 3780.5,835C 3765.61,845.096 3752.45,843.263 3741,829.5C 3685.5,762.667 3630,695.833 3574.5,629C 3622.4,571.274 3670.07,513.441 3717.5,455.5 Z"/></g>
<g><path style="opacity:0.99" fill="#5d7fb6" d="M 779.5,773.5 C 820.501,773.333 861.501,773.5 902.5,774C 930.291,779.124 946.791,795.624 952,823.5C 954.38,844.359 948.38,862.359 934,877.5C 895.737,917.108 850.237,928.608 797.5,912C 768.021,900.518 746.188,880.685 732,852.5C 724.271,823.686 732.105,800.186 755.5,782C 763.172,777.834 771.172,775.001 779.5,773.5 Z M 782.5,806.5 C 821.501,806.333 860.501,806.5 899.5,807C 914.156,811.786 920.656,821.953 919,837.5C 915.921,847.255 910.421,855.422 902.5,862C 867.333,891.168 829.999,894.168 790.5,871C 779.575,863.41 770.742,853.91 764,842.5C 759.407,824.68 765.574,812.68 782.5,806.5 Z"/></g>
<g><path style="opacity:0.991" fill="#5d7fb6" d="M 1857.5,773.5 C 1898.5,773.333 1939.5,773.5 1980.5,774C 2007.64,778.139 2024.14,793.639 2030,820.5C 2032.69,835.647 2030.36,849.98 2023,863.5C 1988.68,910.722 1942.84,927.889 1885.5,915C 1857.85,906.43 1835.35,890.597 1818,867.5C 1803.19,842.158 1804.19,817.491 1821,793.5C 1830.74,782.23 1842.91,775.563 1857.5,773.5 Z M 1860.5,806.5 C 1899.5,806.333 1938.5,806.5 1977.5,807C 1990.45,810.46 1997.45,818.96 1998.5,832.5C 1997.77,838.199 1995.93,843.533 1993,848.5C 1963.66,884.28 1927.16,894.447 1883.5,879C 1865.82,870.652 1851.99,858.152 1842,841.5C 1838.26,824.312 1844.42,812.645 1860.5,806.5 Z"/></g>
<g><path style="opacity:0.992" fill="#5d7fb6" d="M 2955.5,773.5 C 2996.83,773.333 3038.17,773.5 3079.5,774C 3105.65,778.477 3121.81,793.644 3128,819.5C 3131.17,835.839 3128.5,851.173 3120,865.5C 3081.32,915.277 3031.82,930.444 2971.5,911C 2949.5,901.75 2931.33,887.583 2917,868.5C 2900.88,842.497 2901.88,817.164 2920,792.5C 2929.87,782.319 2941.7,775.986 2955.5,773.5 Z M 2959.5,806.5 C 2999.55,806.023 3039.55,806.523 3079.5,808C 3093.08,814.708 3098.25,825.542 3095,840.5C 3075.31,873.434 3046.14,888.601 3007.5,886C 2979.06,881.547 2956.89,867.38 2941,843.5C 2935.56,825.035 2941.73,812.702 2959.5,806.5 Z"/></g>
<g><path style="opacity:0.991" fill="#5d7fb6" d="M 4034.5,773.5 C 4075.5,773.333 4116.5,773.5 4157.5,774C 4182.78,778.275 4198.94,792.775 4206,817.5C 4210.69,839.413 4205.69,858.746 4191,875.5C 4154.69,914.957 4110.52,927.79 4058.5,914C 4032.19,904.688 4010.69,888.855 3994,866.5C 3984.16,849.892 3981.83,832.226 3987,813.5C 3995.16,790.821 4011,777.488 4034.5,773.5 Z M 4037.5,806.5 C 4076.5,806.333 4115.5,806.5 4154.5,807C 4164.99,809.491 4171.49,815.991 4174,826.5C 4175.68,835.464 4173.68,843.464 4168,850.5C 4139.56,884.07 4104.39,893.903 4062.5,880C 4045.67,872.505 4031.84,861.338 4021,846.5C 4014.71,833.072 4016.88,821.239 4027.5,811C 4030.82,809.17 4034.15,807.67 4037.5,806.5 Z"/></g>
<g><path style="opacity:0.996" fill="#f9c44f" d="M 285.5,783.5 C 319.018,781.496 341.518,796.163 353,827.5C 358.828,854.358 350.994,876.191 329.5,893C 307.015,906.583 284.348,906.916 261.5,894C 236.708,874.948 229.208,850.448 239,820.5C 248.191,800.133 263.691,787.8 285.5,783.5 Z"/></g>
<g><path style="opacity:0.995" fill="#f9c44f" d="M 1364.5,783.5 C 1401.94,781.793 1424.78,799.126 1433,835.5C 1434.74,872.076 1417.9,894.576 1382.5,903C 1346.35,905.5 1323.51,889.334 1314,854.5C 1310.95,816.425 1327.78,792.758 1364.5,783.5 Z"/></g>
<g><path style="opacity:0.996" fill="#f9c44f" d="M 2462.5,783.5 C 2499.51,781.73 2522.34,798.73 2531,834.5C 2533.25,871.532 2516.42,894.365 2480.5,903C 2443.9,905.385 2421.07,888.885 2412,853.5C 2409.44,815.923 2426.28,792.59 2462.5,783.5 Z"/></g>
<g><path style="opacity:0.995" fill="#f9c44f" d="M 3540.5,783.5 C 3576.18,781.407 3599.01,797.407 3609,831.5C 3612.96,869.535 3596.46,893.368 3559.5,903C 3533.23,905.778 3512.73,896.278 3498,874.5C 3485.82,851.012 3487.15,828.346 3502,806.5C 3512.23,794.306 3525.07,786.64 3540.5,783.5 Z"/></g>
</svg>
