<?xml version="1.0" encoding="UTF-8"?>
<!DOCTYPE svg PUBLIC "-//W3C//DTD SVG 1.1//EN" "http://www.w3.org/Graphics/SVG/1.1/DTD/svg11.dtd">
<svg xmlns="http://www.w3.org/2000/svg" version="1.1" width="4500px" height="1010px" style="shape-rendering:geometricPrecision; text-rendering:geometricPrecision; image-rendering:optimizeQuality; fill-rule:evenodd; clip-rule:evenodd" xmlns:xlink="http://www.w3.org/1999/xlink">
<g><path style="opacity:0.973" fill="#5e80b7" d="M 341.5,88.5 C 386.606,86.6408 423.106,103.308 451,138.5C 467.938,164.086 467.604,189.42 450,214.5C 440.948,225.277 429.448,231.777 415.5,234C 372.833,234.667 330.167,234.667 287.5,234C 257.001,226.546 241.001,207.046 239.5,175.5C 239.783,161.817 243.95,149.484 252,138.5C 274.799,109.193 304.632,92.5266 341.5,88.5 Z M 345.5,121.5 C 382.242,121.113 410.076,136.446 429,167.5C 432.087,180.576 428.253,191.076 417.5,199C 415.5,199.667 413.5,200.333 411.5,201C 371.5,201.667 331.5,201.667 291.5,201C 283.523,199.025 278.023,194.192 275,186.5C 270.813,174.437 273.146,163.77 282,154.5C 299.032,135.402 320.199,124.402 345.5,121.5 Z"/></g>
<g><path style="opacity:0.972" fill="#5e80b7" d="M 1420.5,88.5 C 1466.31,87.1572 1503.14,104.491 1531,140.5C 1540.33,154.482 1543.66,169.816 1541,186.5C 1535.91,212.587 1520.41,228.42 1494.5,234C 1451.5,234.667 1408.5,234.667 1365.5,234C 1335.55,226.375 1319.89,207.041 1318.5,176C 1318.36,163.082 1321.86,151.249 1329,140.5C 1352.03,110.065 1382.53,92.7319 1420.5,88.5 Z M 1423.5,121.5 C 1455.52,121.101 1481.68,133.101 1502,157.5C 1511.81,172.293 1510.31,185.793 1497.5,198C 1495.28,199.275 1492.95,200.275 1490.5,201C 1450.17,201.667 1409.83,201.667 1369.5,201C 1355.5,195.171 1349.66,184.671 1352,169.5C 1362.04,150.13 1377.21,136.297 1397.5,128C 1406.07,124.86 1414.73,122.693 1423.5,121.5 Z"/></g>
<g><path style="opacity:0.973" fill="#5e80b7" d="M 2518.5,88.5 C 2562.82,87.0842 2598.99,103.418 2627,137.5C 2645.07,163.738 2644.74,189.738 2626,215.5C 2616.99,225.502 2605.82,231.669 2592.5,234C 2549.5,234.667 2506.5,234.667 2463.5,234C 2439.89,228.39 2424.72,213.89 2418,190.5C 2413.7,170.044 2418.03,151.711 2431,135.5C 2453.88,108.141 2483.05,92.4743 2518.5,88.5 Z M 2521.5,121.5 C 2555.71,120.854 2582.87,134.187 2603,161.5C 2609.63,175.575 2607.13,187.742 2595.5,198C 2593.28,199.275 2590.95,200.275 2588.5,201C 2548.17,201.667 2507.83,201.667 2467.5,201C 2452.26,194.31 2446.76,182.81 2451,166.5C 2467.36,140.31 2490.86,125.31 2521.5,121.5 Z"/></g>
<g><path style="opacity:0.973" fill="#5e80b7" d="M 3597.5,88.5 C 3642.8,87.0714 3679.3,104.071 3707,139.5C 3722.61,164.394 3722.28,189.06 3706,213.5C 3697.04,224.564 3685.54,231.397 3671.5,234C 3628.5,234.667 3585.5,234.667 3542.5,234C 3519.1,229.272 3503.94,215.438 3497,192.5C 3492.5,174.36 3495.16,157.36 3505,141.5C 3528.22,110.475 3559.05,92.8086 3597.5,88.5 Z M 3600.5,121.5 C 3631.32,120.997 3656.82,132.33 3677,155.5C 3689.48,171.505 3687.98,186.005 3672.5,199C 3670.61,199.973 3668.61,200.64 3666.5,201C 3626.5,201.667 3586.5,201.667 3546.5,201C 3534.74,196.686 3528.41,188.186 3527.5,175.5C 3528.68,166.481 3532.51,158.814 3539,152.5C 3555.72,134.559 3576.22,124.226 3600.5,121.5 Z"/></g>
<g><path style="opacity:0.985" fill="#f9c54f" d="M 891.5,104.5 C 927.017,104.206 948.85,121.206 957,155.5C 959.479,191.669 943.312,214.502 908.5,224C 878.026,227.515 855.859,215.682 842,188.5C 831.348,157.124 839.515,131.957 866.5,113C 874.45,108.629 882.783,105.795 891.5,104.5 Z"/></g>
<g><path style="opacity:0.984" fill="#f9c54f" d="M 1969.5,104.5 C 2009.73,104.899 2032.06,125.066 2036.5,165C 2035.26,190.538 2023.26,208.872 2000.5,220C 1968.59,231.159 1943.09,222.993 1924,195.5C 1910.13,167.019 1914.29,141.519 1936.5,119C 1946.25,111.146 1957.25,106.312 1969.5,104.5 Z"/></g>
<g><path style="opacity:0.985" fill="#f9c54f" d="M 3067.5,104.5 C 3101.24,103.757 3123.07,119.423 3133,151.5C 3137.78,183.687 3125.61,206.853 3096.5,221C 3065.39,230.409 3040.56,221.909 3022,195.5C 3008.4,166.974 3012.57,141.474 3034.5,119C 3044.35,111.407 3055.35,106.573 3067.5,104.5 Z"/></g>
<g><path style="opacity:0.984" fill="#f9c54f" d="M 4146.5,104.5 C 4181.57,104.092 4203.4,120.759 4212,154.5C 4215.4,181.332 4205.9,202.165 4183.5,217C 4154.35,230.891 4128.52,226.391 4106,203.5C 4088.4,178.42 4088.06,153.086 4105,127.5C 4115.96,114.442 4129.79,106.776 4146.5,104.5 Z"/></g>
<g><path style="opacity:0.973" fill="#5e80b7" d="M 679.5,133.5 C 699.236,132.289 715.736,138.955 729,153.5C 784.333,220.167 839.667,286.833 895,353.5C 949.333,287.833 1003.67,222.167 1058,156.5C 1077.68,133.955 1101.51,128.122 1129.5,139C 1144.56,146.731 1156.4,157.897 1165,172.5C 1177.77,196.58 1185.1,222.247 1187,249.5C 1188.56,279.48 1188.9,309.48 1188,339.5C 1184.17,419.043 1157.17,489.376 1107,550.5C 1064.43,601.315 1022.09,652.315 980,703.5C 944.264,742.475 901.431,752.975 851.5,735C 836.718,728.549 823.884,719.383 813,707.5C 767.667,652.833 722.333,598.167 677,543.5C 622.138,471.728 596.638,390.395 600.5,299.5C 599.028,262.939 603.861,227.272 615,192.5C 622.285,171.903 634.785,155.403 652.5,143C 661.034,138.102 670.034,134.935 679.5,133.5 Z M 682.5,166.5 C 689.932,166.365 696.432,168.698 702,173.5C 758.645,242.312 815.478,310.979 872.5,379.5C 825.224,437.776 777.224,495.442 728.5,552.5C 690.856,512.947 663.69,466.947 647,414.5C 637.164,376.981 632.664,338.815 633.5,300C 632.635,268.138 636.802,236.972 646,206.5C 650.274,193.447 657.44,182.28 667.5,173C 672.142,169.74 677.142,167.573 682.5,166.5 Z M 1100.5,166.5 C 1112.68,166.28 1122.52,170.947 1130,180.5C 1141.87,199.1 1149.2,219.433 1152,241.5C 1153.41,250.455 1154.41,259.455 1155,268.5C 1156.09,299.546 1155.42,330.546 1153,361.5C 1146.82,414.066 1128.82,462.066 1099,505.5C 1087.09,522.075 1074.43,538.075 1061,553.5C 1013.19,495.39 965.024,437.556 916.5,380C 974.123,310.041 1032.12,240.375 1090.5,171C 1093.82,169.17 1097.15,167.67 1100.5,166.5 Z M 893.5,406.5 C 895.716,407.203 897.549,408.536 899,410.5C 945.5,466.833 992,523.167 1038.5,579.5C 1007.77,618.065 976.108,655.898 943.5,693C 912.292,715.572 880.626,716.239 848.5,695C 843.667,690.167 838.833,685.333 834,680.5C 806.355,646.688 778.522,613.021 750.5,579.5C 798.567,522.106 846.234,464.439 893.5,406.5 Z"/></g>
<g><path style="opacity:0.973" fill="#5e80b7" d="M 1757.5,133.5 C 1779.06,132.031 1796.56,139.698 1810,156.5C 1864.33,222.167 1918.67,287.833 1973,353.5C 2028.33,286.833 2083.67,220.167 2139,153.5C 2162.63,130.58 2188.8,127.414 2217.5,144C 2232.37,155.548 2243.54,170.048 2251,187.5C 2261.34,214.868 2266.67,243.201 2267,272.5C 2268.88,313.423 2266.54,354.089 2260,394.5C 2249.12,447.576 2227.45,495.576 2195,538.5C 2148.29,594.208 2101.96,650.208 2056,706.5C 2019.32,743.903 1976.49,753.07 1927.5,734C 1912.67,726.849 1899.84,717.016 1889,704.5C 1845.38,651.208 1801.38,598.208 1757,545.5C 1701.02,473.703 1675.18,392.037 1679.5,300.5C 1677.44,263.211 1682.27,226.878 1694,191.5C 1701.26,170.584 1714.09,154.084 1732.5,142C 1740.48,137.764 1748.82,134.931 1757.5,133.5 Z M 1760.5,166.5 C 1769.64,166.156 1777.14,169.489 1783,176.5C 1839.29,244.241 1895.45,312.074 1951.5,380C 1902.98,437.556 1854.81,495.39 1807,553.5C 1787.38,530.923 1769.71,506.923 1754,481.5C 1728.35,435.909 1714.68,386.909 1713,334.5C 1712.33,312.833 1712.33,291.167 1713,269.5C 1714.25,246.562 1718.59,224.229 1726,202.5C 1730.04,191.584 1736.2,182.084 1744.5,174C 1749.54,170.643 1754.88,168.143 1760.5,166.5 Z M 2179.5,166.5 C 2192.35,166.673 2202.51,172.007 2210,182.5C 2221.57,201.539 2228.57,222.205 2231,244.5C 2236,289.578 2235.33,334.578 2229,379.5C 2220.77,427.549 2202.44,471.216 2174,510.5C 2163.21,525.092 2151.71,539.092 2139.5,552.5C 2090.78,495.442 2042.78,437.776 1995.5,379.5C 2053.26,309.125 2111.59,239.291 2170.5,170C 2173.57,168.704 2176.57,167.538 2179.5,166.5 Z M 1972.5,406.5 C 1973.5,406.414 1974.33,406.748 1975,407.5C 2022.31,464.979 2069.81,522.312 2117.5,579.5C 2087.02,616.479 2056.36,653.313 2025.5,690C 2001.48,710.615 1974.48,715.615 1944.5,705C 1932.99,700.153 1923.15,692.987 1915,683.5C 1886.31,648.979 1857.81,614.312 1829.5,579.5C 1876.94,521.618 1924.6,463.952 1972.5,406.5 Z"/></g>
<g><path style="opacity:0.973" fill="#5e80b7" d="M 2855.5,133.5 C 2874.43,132.307 2890.6,138.307 2904,151.5C 2959.37,218.909 3015.2,285.909 3071.5,352.5C 3127.23,286.058 3182.73,219.391 3238,152.5C 3258.61,132.648 3282.11,128.481 3308.5,140C 3326.03,149.879 3338.86,164.046 3347,182.5C 3358.37,210.008 3364.37,238.674 3365,268.5C 3367.61,314.229 3364.61,359.562 3356,404.5C 3342.96,459.919 3318.29,509.252 3282,552.5C 3239.33,603.833 3196.67,655.167 3154,706.5C 3117.37,743.894 3074.54,753.06 3025.5,734C 3011.01,727.187 2998.51,717.687 2988,705.5C 2942.67,650.833 2897.33,596.167 2852,541.5C 2798.26,470.25 2773.42,389.75 2777.5,300C 2775.72,263.993 2780.22,228.826 2791,194.5C 2798.26,172.45 2811.43,154.95 2830.5,142C 2838.48,137.764 2846.82,134.931 2855.5,133.5 Z M 2858.5,166.5 C 2868.16,166.248 2876,169.915 2882,177.5C 2938.02,244.687 2993.86,312.021 3049.5,379.5C 3001.73,437.391 2953.73,495.058 2905.5,552.5C 2831.72,473.678 2800.22,380.011 2811,271.5C 2811.95,247.078 2816.62,223.412 2825,200.5C 2829.28,189.07 2836.12,179.57 2845.5,172C 2849.74,169.651 2854.07,167.818 2858.5,166.5 Z M 3277.5,166.5 C 3293.3,167.135 3304.8,174.469 3312,188.5C 3324.77,215.696 3331.44,244.363 3332,274.5C 3342.15,381.908 3310.65,474.574 3237.5,552.5C 3188.8,495.427 3140.8,437.761 3093.5,379.5C 3151.14,309.723 3209.14,240.223 3267.5,171C 3270.7,168.997 3274.04,167.497 3277.5,166.5 Z M 3070.5,406.5 C 3072.02,406.511 3073.18,407.177 3074,408.5C 3120.98,465.646 3168.14,522.646 3215.5,579.5C 3184.69,616.813 3153.69,653.979 3122.5,691C 3094.53,713.44 3064.53,716.44 3032.5,700C 3028.66,697.578 3024.99,694.911 3021.5,692C 2989.81,654.777 2958.48,617.277 2927.5,579.5C 2975.41,521.987 3023.08,464.32 3070.5,406.5 Z"/></g>
<g><path style="opacity:0.973" fill="#5e80b7" d="M 3934.5,133.5 C 3954.79,132.398 3971.62,139.398 3985,154.5C 4040,220.833 4095,287.167 4150,353.5C 4204.67,287.5 4259.33,221.5 4314,155.5C 4332.85,134.413 4355.68,128.58 4382.5,138C 4401.72,147.556 4415.89,162.056 4425,181.5C 4434.11,202.594 4439.77,224.594 4442,247.5C 4443.57,279.147 4443.9,310.813 4443,342.5C 4438.81,420.483 4412.15,489.483 4363,549.5C 4317.96,602.875 4273.29,656.541 4229,710.5C 4193.33,743.767 4152.5,751.934 4106.5,735C 4094.98,730.078 4084.64,723.411 4075.5,715C 4026.29,656.792 3977.46,598.292 3929,539.5C 3876.79,469.238 3852.29,390.071 3855.5,302C 3854.27,266.816 3858.44,232.316 3868,198.5C 3875,175.519 3888.16,157.019 3907.5,143C 3916.03,138.102 3925.03,134.935 3934.5,133.5 Z M 3937.5,166.5 C 3945.49,166.328 3952.32,168.995 3958,174.5C 4014.62,242.926 4071.12,311.426 4127.5,380C 4079.68,437.822 4031.85,495.655 3984,553.5C 3959.44,526.938 3938.78,497.605 3922,465.5C 3902.89,426.382 3892.22,385.049 3890,341.5C 3889.33,315.833 3889.33,290.167 3890,264.5C 3891.47,242.126 3896.14,220.459 3904,199.5C 3908.54,187.968 3915.71,178.468 3925.5,171C 3929.43,168.972 3933.43,167.472 3937.5,166.5 Z M 4356.5,166.5 C 4368.3,166.489 4377.8,171.156 4385,180.5C 4396.11,196.817 4403.11,214.817 4406,234.5C 4407.74,244.78 4409.08,255.114 4410,265.5C 4411.13,297.881 4410.46,330.214 4408,362.5C 4401.42,417.273 4382.08,466.94 4350,511.5C 4338.67,525.5 4327.33,539.5 4316,553.5C 4268.15,495.655 4220.32,437.822 4172.5,380C 4228.3,311.575 4284.47,243.408 4341,175.5C 4345.29,170.779 4350.46,167.779 4356.5,166.5 Z M 4149.5,405.5 C 4197.82,463.165 4245.82,521.165 4293.5,579.5C 4265.52,613.979 4237.36,648.312 4209,682.5C 4184.8,709.176 4155.63,716.676 4121.5,705C 4109.3,699.481 4098.8,691.647 4090,681.5C 4061.95,647.619 4034.11,613.619 4006.5,579.5C 4054.16,521.507 4101.82,463.507 4149.5,405.5 Z"/></g>
<g><path style="opacity:0.973" fill="#5e80b7" d="M 341.5,264.5 C 377.654,262.506 408.154,274.506 433,300.5C 480.667,358.167 528.333,415.833 576,473.5C 619.667,533.163 642.667,600.163 645,674.5C 645.862,701.852 645.529,729.185 644,756.5C 642.114,784.38 634.781,810.713 622,835.5C 610.286,856.269 592.786,869.102 569.5,874C 552.758,876.305 537.758,872.305 524.5,862C 466.942,793.034 409.275,724.201 351.5,655.5C 296.175,721.663 241.008,787.996 186,854.5C 170.082,871.694 150.582,877.86 127.5,873C 106.232,866.401 90.3988,853.235 80,833.5C 67.6977,808.96 60.6977,782.96 59,755.5C 55.784,709.639 57.4506,663.973 64,618.5C 74.9446,561.295 98.278,509.962 134,464.5C 181.572,406.537 229.738,349.037 278.5,292C 296.778,276.521 317.778,267.354 341.5,264.5 Z M 345.5,297.5 C 372.548,296.775 394.714,306.775 412,327.5C 439.645,361.312 467.478,394.979 495.5,428.5C 448.224,486.776 400.224,544.442 351.5,601.5C 302.795,544.427 254.795,486.761 207.5,428.5C 235.522,394.979 263.355,361.312 291,327.5C 305.3,310.271 323.466,300.271 345.5,297.5 Z M 184.5,455.5 C 185.496,455.414 186.329,455.748 187,456.5C 234.311,513.979 281.811,571.312 329.5,628.5C 272.811,696.688 216.311,765.021 160,833.5C 147.752,843.868 135.252,844.035 122.5,834C 113.594,825.027 107.094,814.527 103,802.5C 93.5058,771.39 89.3391,739.557 90.5,707C 86.8579,630.033 107.025,560.2 151,497.5C 162.38,483.625 173.547,469.625 184.5,455.5 Z M 516.5,455.5 C 576.903,516.695 608.736,590.695 612,677.5C 612.667,696.833 612.667,716.167 612,735.5C 611.127,758.402 607.127,780.736 600,802.5C 595.817,815.039 588.983,825.873 579.5,835C 567.438,843.772 555.605,843.605 544,834.5C 487.355,765.688 430.522,697.021 373.5,628.5C 421.567,571.106 469.234,513.439 516.5,455.5 Z"/></g>
<g><path style="opacity:0.973" fill="#5e80b7" d="M 1420.5,264.5 C 1457.98,262.599 1489.15,275.599 1514,303.5C 1559.33,358.167 1604.67,412.833 1650,467.5C 1702.59,537.789 1727.42,617.123 1724.5,705.5C 1725.61,739.761 1721.78,773.428 1713,806.5C 1707.3,826.425 1697.13,843.592 1682.5,858C 1658.2,877.591 1632.53,879.591 1605.5,864C 1601.33,859.833 1597.17,855.667 1593,851.5C 1538.67,785.833 1484.33,720.167 1430,654.5C 1374.24,722.351 1318.24,790.018 1262,857.5C 1242.05,875.7 1219.55,879.533 1194.5,869C 1180.82,862.321 1169.99,852.488 1162,839.5C 1148.17,815.003 1140.17,788.67 1138,760.5C 1136.42,728.855 1136.09,697.188 1137,665.5C 1141.24,589.412 1166.91,521.746 1214,462.5C 1258.38,409.792 1302.38,356.792 1346,303.5C 1365.98,281.095 1390.81,268.095 1420.5,264.5 Z M 1423.5,297.5 C 1449.3,296.481 1470.8,305.481 1488,324.5C 1516.83,359.333 1545.67,394.167 1574.5,429C 1525.98,486.556 1477.81,544.39 1430,602.5C 1382.21,544.375 1334.04,486.541 1285.5,429C 1316.69,390.963 1348.36,353.296 1380.5,316C 1393.23,305.966 1407.56,299.799 1423.5,297.5 Z M 1263.5,455.5 C 1312.35,512.851 1360.68,570.684 1408.5,629C 1352.31,695.89 1296.48,763.056 1241,830.5C 1230.15,842.938 1217.65,844.772 1203.5,836C 1193.94,828.098 1187.11,818.265 1183,806.5C 1175.72,785.774 1171.39,764.441 1170,742.5C 1168.87,710.119 1169.54,677.786 1172,645.5C 1178.02,593.164 1196.02,545.498 1226,502.5C 1238.03,486.438 1250.53,470.771 1263.5,455.5 Z M 1595.5,455.5 C 1639.18,500.171 1668.35,553.171 1683,614.5C 1686.56,632.003 1688.9,649.669 1690,667.5C 1690.67,692.833 1690.67,718.167 1690,743.5C 1688.48,765.089 1684.15,786.089 1677,806.5C 1672.86,818.291 1666.03,828.124 1656.5,836C 1642.98,844.533 1630.81,843.033 1620,831.5C 1563.8,764.258 1507.97,696.758 1452.5,629C 1499.61,570.722 1547.28,512.889 1595.5,455.5 Z"/></g>
<g><path style="opacity:0.973" fill="#5e80b7" d="M 2518.5,264.5 C 2552.41,262.633 2581.58,273.3 2606,296.5C 2652.33,352.167 2698.67,407.833 2745,463.5C 2800.78,535.698 2826.62,617.698 2822.5,709.5C 2823.42,741.352 2819.92,772.685 2812,803.5C 2806.15,825.044 2795.32,843.544 2779.5,859C 2760.67,874.165 2739.67,878.165 2716.5,871C 2706.81,866.899 2698.64,860.732 2692,852.5C 2637.69,786.687 2583.19,721.021 2528.5,655.5C 2472.51,722.329 2416.67,789.329 2361,856.5C 2341.03,875.56 2318.19,879.726 2292.5,869C 2274.17,858.668 2260.67,843.835 2252,824.5C 2243.37,803.662 2238.04,781.996 2236,759.5C 2234.43,729.187 2234.1,698.854 2235,668.5C 2238.39,593.118 2263.05,525.785 2309,466.5C 2354.33,411.833 2399.67,357.167 2445,302.5C 2464.83,280.671 2489.33,268.004 2518.5,264.5 Z M 2521.5,297.5 C 2547.85,296.446 2569.69,305.779 2587,325.5C 2615.5,360 2644,394.5 2672.5,429C 2624.45,486.926 2576.29,544.759 2528,602.5C 2480.15,544.655 2432.32,486.822 2384.5,429C 2415.11,391.386 2446.11,354.053 2477.5,317C 2490.39,306.385 2505.06,299.885 2521.5,297.5 Z M 2361.5,455.5 C 2410.35,512.851 2458.68,570.684 2506.5,629C 2450.67,696.167 2394.83,763.333 2339,830.5C 2327.57,843.36 2314.74,844.86 2300.5,835C 2292.24,827.652 2286.07,818.819 2282,808.5C 2274.01,786.538 2269.34,763.871 2268,740.5C 2266.91,709.121 2267.58,677.788 2270,646.5C 2276.24,592.083 2295.24,542.75 2327,498.5C 2338.03,483.771 2349.53,469.437 2361.5,455.5 Z M 2693.5,455.5 C 2761.36,525.847 2793.36,610.347 2789.5,709C 2789.8,734.453 2787.3,759.62 2782,784.5C 2778.79,799.237 2773.13,812.904 2765,825.5C 2754.29,840.963 2740.46,844.797 2723.5,837C 2665.27,767.938 2607.6,698.438 2550.5,628.5C 2597.94,570.618 2645.6,512.952 2693.5,455.5 Z"/></g>
<g><path style="opacity:0.973" fill="#5e80b7" d="M 3596.5,264.5 C 3633.21,262.454 3664.05,274.787 3689,301.5C 3737.71,359.876 3786.04,418.542 3834,477.5C 3872.06,530.663 3893.73,589.996 3899,655.5C 3900.53,685.483 3900.87,715.483 3900,745.5C 3899.19,778.088 3891.19,808.755 3876,837.5C 3866.55,852.624 3853.71,863.79 3837.5,871C 3815.92,878.347 3796.25,875.014 3778.5,861C 3721.33,792.329 3663.99,723.829 3606.5,655.5C 3551.51,721.329 3496.67,787.329 3442,853.5C 3422.96,874.246 3400.12,879.746 3373.5,870C 3358.54,863.042 3346.71,852.542 3338,838.5C 3323.63,812.041 3315.63,783.707 3314,753.5C 3312.04,722.502 3312.04,691.502 3314,660.5C 3318.71,589.024 3342.71,525.024 3386,468.5C 3433,411.833 3480,355.167 3527,298.5C 3546.19,278.987 3569.36,267.654 3596.5,264.5 Z M 3600.5,297.5 C 3622.61,296.702 3641.94,303.535 3658.5,318C 3689.36,354.687 3720.02,391.521 3750.5,428.5C 3702.86,486.646 3655.02,544.646 3607,602.5C 3558.71,544.759 3510.55,486.926 3462.5,429C 3494.08,390.08 3526.42,351.747 3559.5,314C 3571.87,305.048 3585.54,299.548 3600.5,297.5 Z M 3439.5,455.5 C 3441.02,455.511 3442.18,456.177 3443,457.5C 3489.98,514.646 3537.14,571.646 3584.5,628.5C 3527.4,698.438 3469.73,767.938 3411.5,837C 3399.53,843.537 3388.2,842.537 3377.5,834C 3369.32,825.478 3363.16,815.644 3359,804.5C 3351,780.491 3346.67,755.825 3346,730.5C 3343.22,684.13 3347.56,638.463 3359,593.5C 3368.54,561.096 3382.87,531.096 3402,503.5C 3413.95,487.051 3426.45,471.051 3439.5,455.5 Z M 3771.5,455.5 C 3839.16,524.757 3871.16,608.257 3867.5,706C 3869.13,740.032 3864.63,773.198 3854,805.5C 3849.87,816.93 3843.37,826.763 3834.5,835C 3819.61,845.096 3806.45,843.263 3795,829.5C 3739.5,762.667 3684,695.833 3628.5,629C 3676.4,571.274 3724.07,513.441 3771.5,455.5 Z"/></g>
<g><path style="opacity:0.974" fill="#5e80b7" d="M 833.5,773.5 C 874.501,773.333 915.501,773.5 956.5,774C 984.291,779.124 1000.79,795.624 1006,823.5C 1008.38,844.359 1002.38,862.359 988,877.5C 949.737,917.108 904.237,928.608 851.5,912C 822.021,900.518 800.188,880.685 786,852.5C 778.271,823.686 786.105,800.186 809.5,782C 817.172,777.834 825.172,775.001 833.5,773.5 Z M 836.5,806.5 C 875.501,806.333 914.501,806.5 953.5,807C 968.156,811.786 974.656,821.953 973,837.5C 969.921,847.255 964.421,855.422 956.5,862C 921.333,891.168 883.999,894.168 844.5,871C 833.575,863.41 824.742,853.91 818,842.5C 813.407,824.68 819.574,812.68 836.5,806.5 Z"/></g>
<g><path style="opacity:0.974" fill="#5e80b7" d="M 1911.5,773.5 C 1952.5,773.333 1993.5,773.5 2034.5,774C 2061.64,778.139 2078.14,793.639 2084,820.5C 2086.69,835.647 2084.36,849.98 2077,863.5C 2042.68,910.722 1996.84,927.889 1939.5,915C 1911.85,906.43 1889.35,890.597 1872,867.5C 1857.19,842.158 1858.19,817.491 1875,793.5C 1884.74,782.23 1896.91,775.563 1911.5,773.5 Z M 1914.5,806.5 C 1953.5,806.333 1992.5,806.5 2031.5,807C 2044.45,810.46 2051.45,818.96 2052.5,832.5C 2051.77,838.199 2049.93,843.533 2047,848.5C 2017.66,884.28 1981.16,894.447 1937.5,879C 1919.82,870.652 1905.99,858.152 1896,841.5C 1892.26,824.312 1898.42,812.645 1914.5,806.5 Z"/></g>
<g><path style="opacity:0.974" fill="#5e80b7" d="M 3009.5,773.5 C 3050.83,773.333 3092.17,773.5 3133.5,774C 3159.65,778.477 3175.81,793.644 3182,819.5C 3185.17,835.839 3182.5,851.173 3174,865.5C 3135.32,915.277 3085.82,930.444 3025.5,911C 3003.5,901.75 2985.33,887.583 2971,868.5C 2954.88,842.497 2955.88,817.164 2974,792.5C 2983.87,782.319 2995.7,775.986 3009.5,773.5 Z M 3013.5,806.5 C 3053.55,806.023 3093.55,806.523 3133.5,808C 3147.08,814.708 3152.25,825.542 3149,840.5C 3129.31,873.434 3100.14,888.601 3061.5,886C 3033.06,881.547 3010.89,867.38 2995,843.5C 2989.56,825.035 2995.73,812.702 3013.5,806.5 Z"/></g>
<g><path style="opacity:0.975" fill="#5e80b7" d="M 4088.5,773.5 C 4129.5,773.333 4170.5,773.5 4211.5,774C 4236.78,778.275 4252.94,792.775 4260,817.5C 4264.69,839.413 4259.69,858.746 4245,875.5C 4208.69,914.957 4164.52,927.79 4112.5,914C 4086.19,904.688 4064.69,888.855 4048,866.5C 4038.16,849.892 4035.83,832.226 4041,813.5C 4049.16,790.821 4065,777.488 4088.5,773.5 Z M 4091.5,806.5 C 4130.5,806.333 4169.5,806.5 4208.5,807C 4218.99,809.491 4225.49,815.991 4228,826.5C 4229.68,835.464 4227.68,843.464 4222,850.5C 4193.56,884.07 4158.39,893.903 4116.5,880C 4099.67,872.505 4085.84,861.338 4075,846.5C 4068.71,833.072 4070.88,821.239 4081.5,811C 4084.82,809.17 4088.15,807.67 4091.5,806.5 Z"/></g>
<g><path style="opacity:0.985" fill="#f9c54f" d="M 339.5,783.5 C 373.018,781.496 395.518,796.163 407,827.5C 412.828,854.358 404.994,876.191 383.5,893C 361.015,906.583 338.348,906.916 315.5,894C 290.708,874.948 283.208,850.448 293,820.5C 302.191,800.133 317.691,787.8 339.5,783.5 Z"/></g>
<g><path style="opacity:0.984" fill="#f9c54f" d="M 1418.5,783.5 C 1455.94,781.793 1478.78,799.126 1487,835.5C 1488.74,872.076 1471.9,894.576 1436.5,903C 1400.35,905.5 1377.51,889.334 1368,854.5C 1364.95,816.425 1381.78,792.758 1418.5,783.5 Z"/></g>
<g><path style="opacity:0.983" fill="#f9c54f" d="M 2516.5,783.5 C 2553.51,781.73 2576.34,798.73 2585,834.5C 2587.25,871.532 2570.42,894.365 2534.5,903C 2497.9,905.385 2475.07,888.885 2466,853.5C 2463.44,815.923 2480.28,792.59 2516.5,783.5 Z"/></g>
<g><path style="opacity:0.985" fill="#f9c54f" d="M 3594.5,783.5 C 3630.18,781.407 3653.01,797.407 3663,831.5C 3666.96,869.535 3650.46,893.368 3613.5,903C 3587.23,905.778 3566.73,896.278 3552,874.5C 3539.82,851.012 3541.15,828.346 3556,806.5C 3566.23,794.306 3579.07,786.64 3594.5,783.5 Z"/></g>
</svg>
