<?xml version="1.0" encoding="UTF-8"?>
<!DOCTYPE svg PUBLIC "-//W3C//DTD SVG 1.1//EN" "http://www.w3.org/Graphics/SVG/1.1/DTD/svg11.dtd">
<svg xmlns="http://www.w3.org/2000/svg" version="1.1" width="4500px" height="4500px" style="shape-rendering:geometricPrecision; text-rendering:geometricPrecision; image-rendering:optimizeQuality; fill-rule:evenodd; clip-rule:evenodd" xmlns:xlink="http://www.w3.org/1999/xlink">
<g><path style="opacity:0.961" fill="#14334a" d="M 2090.5,632.5 C 2114.9,630.596 2136.9,636.762 2156.5,651C 2171.65,664.793 2179.65,681.959 2180.5,702.5C 2172.48,702.903 2164.48,703.569 2156.5,704.5C 2154.02,677.856 2139.69,661.689 2113.5,656C 2092.35,652.477 2072.35,655.81 2053.5,666C 2029.81,683.253 2024.98,704.753 2039,730.5C 2049.05,740.641 2061.22,746.808 2075.5,749C 2092.78,751.698 2110.12,754.031 2127.5,756C 2146.07,757.854 2163.07,763.854 2178.5,774C 2191.04,784.587 2198.21,798.087 2200,814.5C 2204.76,852.153 2189.93,878.653 2155.5,894C 2126.45,905.388 2096.78,907.388 2066.5,900C 2032.78,888.2 2015.11,864.533 2013.5,829C 2021.19,828.107 2028.86,827.44 2036.5,827C 2044.11,863.562 2066.61,882.062 2104,882.5C 2120.83,882.667 2136.66,878.834 2151.5,871C 2173.09,856.501 2180.26,836.667 2173,811.5C 2167.3,798.14 2157.47,789.306 2143.5,785C 2138.54,783.511 2133.54,782.178 2128.5,781C 2108.85,777.918 2089.18,774.918 2069.5,772C 2015.98,761.456 1996.81,729.956 2012,677.5C 2023.97,656.414 2041.8,642.914 2065.5,637C 2073.92,635.16 2082.25,633.66 2090.5,632.5 Z"/></g>
<g><path style="opacity:0.962" fill="#14334a" d="M 2542.5,656.5 C 2580.81,665.077 2618.81,674.911 2656.5,686C 2701.4,703.396 2723.4,736.396 2722.5,785C 2721.52,821.277 2712.02,855.111 2694,886.5C 2669.28,925.201 2634.11,940.701 2588.5,933C 2552.03,924.677 2515.7,915.844 2479.5,906.5C 2500.5,823.167 2521.5,739.833 2542.5,656.5 Z M 2562.5,683.5 C 2590.37,690.217 2618.03,697.717 2645.5,706C 2676.96,717.475 2694.13,739.975 2697,773.5C 2698.43,813.79 2687.76,850.456 2665,883.5C 2646.13,906.02 2621.96,915.187 2592.5,911C 2564.65,905.287 2536.98,898.787 2509.5,891.5C 2526.85,822.082 2544.52,752.749 2562.5,683.5 Z"/></g>
<g><path style="opacity:0.96" fill="#14334a" d="M 1830.5,684.5 C 1831.68,684.281 1832.68,684.614 1833.5,685.5C 1851.63,737.054 1869.46,788.721 1887,840.5C 1906.62,902.094 1886.45,944.26 1826.5,967C 1766.06,987.985 1723.56,969.151 1699,910.5C 1680.49,856.983 1661.99,803.483 1643.5,750C 1651.44,746.074 1659.78,743.241 1668.5,741.5C 1685.83,793.984 1703.66,846.318 1722,898.5C 1729.12,917.937 1740.96,933.771 1757.5,946C 1769.96,952.274 1782.96,954.274 1796.5,952C 1860.22,941.066 1881.72,904.9 1861,843.5C 1844.03,793.592 1826.86,743.759 1809.5,694C 1809.64,693.228 1809.98,692.561 1810.5,692C 1817.36,689.722 1824.03,687.222 1830.5,684.5 Z"/></g>
<g><path style="opacity:0.955" fill="#14334a" d="M 2902.5,771.5 C 2950.11,795.974 2997.78,820.474 3045.5,845C 3049.04,846.931 3052.37,849.098 3055.5,851.5C 3052.67,857.167 3049.83,862.833 3047,868.5C 3045.95,869.517 3044.78,869.684 3043.5,869C 3000.76,847.216 2958.26,825.049 2916,802.5C 2901.83,829.5 2887.67,856.5 2873.5,883.5C 2912.69,903.928 2951.69,924.595 2990.5,945.5C 2987.42,951.991 2984.09,958.325 2980.5,964.5C 2941.75,944.039 2902.91,923.706 2864,903.5C 2848.41,932.342 2833.08,961.342 2818,990.5C 2817.25,991.635 2817.42,992.635 2818.5,993.5C 2861.83,1016.17 2905.17,1038.83 2948.5,1061.5C 2949.58,1062.36 2949.75,1063.36 2949,1064.5C 2946.34,1070.49 2943.17,1076.16 2939.5,1081.5C 2887.49,1054.83 2835.82,1027.66 2784.5,1000C 2823.72,923.717 2863.06,847.55 2902.5,771.5 Z"/></g>
<g><path style="opacity:0.955" fill="#14334a" d="M 1504.5,815.5 C 1507.22,818.586 1509.72,821.92 1512,825.5C 1513.95,828.377 1515.28,831.377 1516,834.5C 1493.17,848.667 1470.33,862.833 1447.5,877C 1488.83,944 1530.17,1011 1571.5,1078C 1564.33,1082.5 1557.17,1087 1550,1091.5C 1508.5,1024.5 1467,957.5 1425.5,890.5C 1402.5,904.5 1379.5,918.5 1356.5,932.5C 1352.45,926.903 1348.79,921.07 1345.5,915C 1347.48,912.698 1349.81,910.698 1352.5,909C 1403.4,878.059 1454.06,846.892 1504.5,815.5 Z"/></g>
<g><path style="opacity:0.959" fill="#14334a" d="M 3201.5,975.5 C 3245.84,979.082 3280.67,999.082 3306,1035.5C 3325.85,1069.33 3325.18,1102.66 3304,1135.5C 3297.2,1130.37 3290.7,1124.87 3284.5,1119C 3303.13,1083.8 3297.8,1052.8 3268.5,1026C 3237.96,997.241 3203.96,992.574 3166.5,1012C 3130.21,1034.07 3104.38,1064.9 3089,1104.5C 3077.52,1148.71 3091.36,1182.54 3130.5,1206C 3154.3,1218.32 3178.3,1218.65 3202.5,1207C 3209.83,1203.34 3216.83,1199.17 3223.5,1194.5C 3230.31,1200.15 3236.98,1205.98 3243.5,1212C 3194.53,1249.33 3146.19,1248.66 3098.5,1210C 3059.89,1176.38 3049.72,1135.55 3068,1087.5C 3088.08,1041.75 3120.25,1007.25 3164.5,984C 3176.54,979.295 3188.88,976.462 3201.5,975.5 Z"/></g>
<g><path style="opacity:0.956" fill="#14334a" d="M 1034.5,1204.5 C 1122.3,1232.77 1209.97,1261.43 1297.5,1290.5C 1292.54,1297.62 1287.04,1304.29 1281,1310.5C 1255.17,1301.67 1229.33,1292.83 1203.5,1284C 1200.21,1283.25 1197.71,1284.42 1196,1287.5C 1173.04,1315.93 1150.21,1344.43 1127.5,1373C 1141.7,1397.9 1156.03,1422.73 1170.5,1447.5C 1165.57,1454.6 1160.07,1461.27 1154,1467.5C 1108.41,1388 1063.08,1308.33 1018,1228.5C 1017.48,1226.71 1017.81,1225.04 1019,1223.5C 1024.65,1217.5 1029.82,1211.17 1034.5,1204.5 Z M 1044.5,1231.5 C 1088.91,1246.03 1133.24,1260.86 1177.5,1276C 1156.99,1301.34 1136.33,1326.5 1115.5,1351.5C 1091.02,1312.01 1067.35,1272.01 1044.5,1231.5 Z"/></g>
<g><path style="opacity:0.955" fill="#14334a" d="M 3463.5,1206.5 C 3464.82,1206.33 3465.99,1206.66 3467,1207.5C 3471.83,1213.67 3476.67,1219.83 3481.5,1226C 3414.67,1280.17 3347.83,1334.33 3281,1388.5C 3275.38,1382.09 3269.88,1375.59 3264.5,1369C 3265.83,1367.67 3267.17,1366.33 3268.5,1365C 3333.98,1312.68 3398.98,1259.85 3463.5,1206.5 Z"/></g>
<g><path style="opacity:0.994" fill="#5e80b7" d="M 2237.5,1338.5 C 2327.6,1337.47 2399.43,1372.8 2453,1444.5C 2476.89,1484.4 2477.56,1524.73 2455,1565.5C 2435.84,1595.67 2408.34,1611.84 2372.5,1614C 2291.17,1614.67 2209.83,1614.67 2128.5,1614C 2080.7,1609.55 2049.54,1584.38 2035,1538.5C 2025.06,1502.21 2031.06,1468.88 2053,1438.5C 2099.99,1378.59 2161.49,1345.25 2237.5,1338.5 Z"/></g>
<g><path style="opacity:0.958" fill="#14334a" d="M 3548.5,1382.5 C 3568.33,1381.28 3586,1386.78 3601.5,1399C 3629.03,1422.89 3642.86,1453.06 3643,1489.5C 3640.12,1514.78 3627.62,1533.62 3605.5,1546C 3604.36,1546.75 3603.36,1546.58 3602.5,1545.5C 3598.96,1538.92 3595.29,1532.42 3591.5,1526C 3615.85,1511.8 3624.68,1490.97 3618,1463.5C 3611.87,1443.71 3600.71,1427.55 3584.5,1415C 3561.5,1401.97 3541,1405.14 3523,1424.5C 3515,1439.53 3513.67,1455.19 3519,1471.5C 3525.82,1493.95 3531.82,1516.62 3537,1539.5C 3543.17,1576.01 3529.33,1601.51 3495.5,1616C 3468.99,1626.3 3444.66,1622.63 3422.5,1605C 3398.67,1583.51 3383.5,1557.01 3377,1525.5C 3372.55,1490.23 3385.39,1463.4 3415.5,1445C 3417.04,1443.81 3418.71,1443.48 3420.5,1444C 3424.43,1450.52 3428.09,1457.19 3431.5,1464C 3400.31,1485.92 3392.48,1514.42 3408,1549.5C 3415.88,1568.45 3428.71,1582.95 3446.5,1593C 3471.11,1601.13 3491.27,1594.96 3507,1574.5C 3510.94,1566.99 3512.77,1558.99 3512.5,1550.5C 3512.32,1543.42 3511.49,1536.42 3510,1529.5C 3503.39,1507.06 3497.72,1484.4 3493,1461.5C 3487.86,1418.42 3506.36,1392.09 3548.5,1382.5 Z"/></g>
<g><path style="opacity:0.96" fill="#14334a" d="M 871.5,1437.5 C 949.709,1473.61 1027.38,1510.77 1104.5,1549C 1101.09,1558.49 1096.43,1567.15 1090.5,1575C 1002.98,1586.69 915.648,1599.03 828.5,1612C 895.384,1643.94 962.051,1676.11 1028.5,1708.5C 1025.43,1716.3 1021.6,1723.64 1017,1730.5C 940.106,1693.97 863.273,1657.3 786.5,1620.5C 786.167,1619.83 785.833,1619.17 785.5,1618.5C 789.164,1610.51 792.831,1602.51 796.5,1594.5C 884.833,1581.83 973.167,1569.17 1061.5,1556.5C 995.441,1524.14 929.108,1492.3 862.5,1461C 861.483,1459.95 861.316,1458.78 862,1457.5C 865.453,1450.93 868.62,1444.26 871.5,1437.5 Z"/></g>
<g><path style="opacity:0.959" fill="#14334a" d="M 3727.5,1668.5 C 3728.5,1668.41 3729.33,1668.75 3730,1669.5C 3732.3,1676.74 3734.8,1683.91 3737.5,1691C 3737.36,1691.77 3737.02,1692.44 3736.5,1693C 3656.05,1721.2 3575.72,1749.7 3495.5,1778.5C 3491.65,1771.46 3488.65,1763.96 3486.5,1756C 3486.64,1755.23 3486.98,1754.56 3487.5,1754C 3567.69,1725.72 3647.69,1697.22 3727.5,1668.5 Z"/></g>
<g><path style="opacity:0.998" fill="#14334a" d="M 2604.5,2044.5 C 2488.26,2185.59 2371.42,2326.25 2254,2466.5C 2252.58,2468.4 2251.41,2470.4 2250.5,2472.5C 2124.17,2624.33 1998,2776.33 1872,2928.5C 1843.6,2959.45 1809.43,2967.95 1769.5,2954C 1746.43,2943.93 1727.93,2928.43 1714,2907.5C 1690.57,2868.62 1675.57,2826.62 1669,2781.5C 1664.1,2752.7 1661.1,2723.7 1660,2694.5C 1659.33,2657.83 1659.33,2621.17 1660,2584.5C 1662.6,2409.97 1719.6,2256.3 1831,2123.5C 1919.57,2017.35 2007.91,1911.02 2096,1804.5C 2143.29,1748.84 2203.46,1724.67 2276.5,1732C 2328.01,1739.5 2370.51,1763 2404,1802.5C 2470.67,1883.33 2537.5,1964 2604.5,2044.5 Z"/></g>
<g><path style="opacity:0.961" fill="#14334a" d="M 731.5,1788.5 C 814.233,1810.02 896.9,1831.85 979.5,1854C 980.059,1854.72 980.392,1855.56 980.5,1856.5C 978.823,1863.54 976.989,1870.54 975,1877.5C 974.275,1878.06 973.442,1878.39 972.5,1878.5C 890.199,1856.62 807.865,1834.95 725.5,1813.5C 727.031,1805.04 729.031,1796.71 731.5,1788.5 Z"/></g>
<g><path style="opacity:0.961" fill="#14334a" d="M 3675.5,1870.5 C 3712.64,1867.39 3745.97,1876.89 3775.5,1899C 3799.06,1920.96 3811.89,1948.13 3814,1980.5C 3816.64,2038.39 3791.14,2078.22 3737.5,2100C 3703.37,2113.03 3668.37,2116.03 3632.5,2109C 3581.26,2095.75 3551.76,2062.92 3544,2010.5C 3537.53,1948.67 3563.03,1906.17 3620.5,1883C 3638.44,1876.45 3656.77,1872.28 3675.5,1870.5 Z M 3682.5,1895.5 C 3710.14,1894.24 3735.47,1901.07 3758.5,1916C 3781.42,1935.18 3792.75,1959.84 3792.5,1990C 3790.77,2030.11 3771.44,2058.11 3734.5,2074C 3695.6,2090.26 3656.27,2091.59 3616.5,2078C 3585.2,2062.66 3568.03,2037.49 3565,2002.5C 3562.81,1957.7 3582.31,1926.54 3623.5,1909C 3642.62,1901.48 3662.28,1896.98 3682.5,1895.5 Z"/></g>
<g><path style="opacity:0.963" fill="#14334a" d="M 685.5,1987.5 C 771.509,1992.75 857.509,1998.08 943.5,2003.5C 942.945,2011.82 942.612,2020.16 942.5,2028.5C 866.466,2023.91 790.466,2019.41 714.5,2015C 788.284,2047.06 861.951,2079.39 935.5,2112C 936.464,2120.1 936.464,2128.27 935.5,2136.5C 858.186,2159.66 780.853,2182.83 703.5,2206C 779.144,2211.17 854.811,2216 930.5,2220.5C 929.957,2228.85 929.291,2237.19 928.5,2245.5C 842.845,2240.29 757.178,2235.29 671.5,2230.5C 671.793,2217.48 672.46,2204.48 673.5,2191.5C 750.238,2168.64 826.905,2145.48 903.5,2122C 830.659,2089.55 757.659,2057.38 684.5,2025.5C 684.167,2024.33 683.833,2023.17 683.5,2022C 684.577,2010.52 685.244,1999.02 685.5,1987.5 Z"/></g>
<g><path style="opacity:0.997" fill="#5d7fb6" d="M 2604.5,2044.5 C 2637.89,2083.4 2670.39,2123.06 2702,2163.5C 2789.58,2282.78 2835.91,2416.78 2841,2565.5C 2842.42,2605.16 2842.75,2644.82 2842,2684.5C 2841.34,2740.46 2832.67,2795.13 2816,2848.5C 2805.56,2882.91 2787.39,2912.41 2761.5,2937C 2727.93,2962.8 2691.93,2966.8 2653.5,2949C 2648.83,2945.67 2644.17,2942.33 2639.5,2939C 2509.93,2783.34 2380.27,2627.84 2250.5,2472.5C 2251.41,2470.4 2252.58,2468.4 2254,2466.5C 2371.42,2326.25 2488.26,2185.59 2604.5,2044.5 Z"/></g>
<g><path style="opacity:0.963" fill="#14334a" d="M 3568.5,2237.5 C 3654.16,2245.9 3739.83,2254.23 3825.5,2262.5C 3824.87,2271.85 3824.03,2281.18 3823,2290.5C 3744.25,2332.46 3665.41,2374.29 3586.5,2416C 3658.93,2423.93 3731.43,2431.43 3804,2438.5C 3805.5,2438.83 3807,2439.17 3808.5,2439.5C 3807.47,2447.84 3806.3,2456.17 3805,2464.5C 3719.58,2455.47 3634.08,2446.81 3548.5,2438.5C 3549.41,2428.57 3550.74,2418.74 3552.5,2409C 3631.17,2367.67 3709.83,2326.33 3788.5,2285C 3714.5,2277.43 3640.5,2269.93 3566.5,2262.5C 3567.1,2254.16 3567.77,2245.83 3568.5,2237.5 Z"/></g>
<g><path style="opacity:0.962" fill="#14334a" d="M 864.5,2377.5 C 916.993,2374.81 949.826,2398.81 963,2449.5C 968.084,2470.37 968.751,2491.37 965,2512.5C 956.934,2538.9 940.101,2557.4 914.5,2568C 908.909,2570.2 903.242,2572.2 897.5,2574C 839.678,2586.23 781.845,2597.4 724,2607.5C 722.305,2599.52 720.805,2591.52 719.5,2583.5C 774.193,2572.86 828.86,2562.03 883.5,2551C 903.062,2546.64 919.895,2537.47 934,2523.5C 942.161,2512.2 946.328,2499.54 946.5,2485.5C 945.771,2464.24 939.938,2444.57 929,2426.5C 918.604,2412.88 904.771,2405.38 887.5,2404C 879.167,2403.33 870.833,2403.33 862.5,2404C 805.729,2414.25 749.063,2425.09 692.5,2436.5C 691.353,2436.18 690.519,2435.52 690,2434.5C 688.561,2427.14 687.061,2419.81 685.5,2412.5C 745.111,2399.91 804.777,2388.24 864.5,2377.5 Z"/></g>
<g><path style="opacity:0.958" fill="#14334a" d="M 3521.5,2553.5 C 3599.43,2580.09 3677.43,2606.59 3755.5,2633C 3759.2,2634.11 3762.53,2635.78 3765.5,2638C 3747.56,2691.83 3729.22,2745.5 3710.5,2799C 3703.27,2797.56 3696.27,2795.23 3689.5,2792C 3705.56,2746.5 3721.22,2700.83 3736.5,2655C 3736.09,2654.05 3735.43,2653.39 3734.5,2653C 3706.53,2643.23 3678.53,2633.9 3650.5,2625C 3635.94,2666 3621.78,2707.17 3608,2748.5C 3607.59,2748.96 3607.09,2749.29 3606.5,2749.5C 3600.28,2747.09 3593.94,2745.09 3587.5,2743.5C 3600.8,2701.44 3614.8,2659.61 3629.5,2618C 3597.76,2606.64 3565.93,2595.47 3534,2584.5C 3518.2,2631.57 3502.2,2678.57 3486,2725.5C 3485.44,2726.02 3484.77,2726.36 3484,2726.5C 3477.5,2724.33 3471,2722.17 3464.5,2720C 3483.41,2664.45 3502.41,2608.95 3521.5,2553.5 Z"/></g>
<g><path style="opacity:0.958" fill="#14334a" d="M 1005.5,2652.5 C 1008.43,2653.29 1010.27,2655.29 1011,2658.5C 1032.01,2706.16 1052.67,2753.83 1073,2801.5C 994.892,2836.26 916.725,2870.93 838.5,2905.5C 836.515,2903.54 835.015,2901.21 834,2898.5C 831.529,2892.91 829.362,2887.25 827.5,2881.5C 899.711,2850.4 971.711,2818.73 1043.5,2786.5C 1025.03,2745.06 1006.7,2703.56 988.5,2662C 988.645,2661.23 988.978,2660.56 989.5,2660C 995.045,2657.72 1000.38,2655.22 1005.5,2652.5 Z"/></g>
<g><path style="opacity:0.992" fill="#f9c54f" d="M 2228.5,2801.5 C 2293.47,2797.71 2338.97,2825.38 2365,2884.5C 2381.27,2936.92 2370.43,2982.75 2332.5,3022C 2291.31,3056.98 2245.31,3064.98 2194.5,3046C 2145.41,3022.37 2119.74,2983.2 2117.5,2928.5C 2120.34,2870.19 2148.67,2830.02 2202.5,2808C 2211.18,2805.37 2219.85,2803.2 2228.5,2801.5 Z"/></g>
<g><path style="opacity:0.959" fill="#14334a" d="M 3438.5,2829.5 C 3458.11,2828.23 3476.11,2832.9 3492.5,2843.5C 3488.53,2850.79 3484.2,2857.79 3479.5,2864.5C 3449.37,2849.05 3422.87,2853.72 3400,2878.5C 3389.46,2891.25 3381.79,2905.59 3377,2921.5C 3371.5,2949 3381.33,2968.84 3406.5,2981C 3420.14,2986.34 3433.14,2985 3445.5,2977C 3448.33,2974.75 3451.33,2972.75 3454.5,2971C 3472.5,2953.67 3490.5,2936.33 3508.5,2919C 3540.5,2891.51 3572.34,2891.68 3604,2919.5C 3617.54,2935.32 3623.21,2953.65 3621,2974.5C 3615.56,3008.57 3599.06,3035.74 3571.5,3056C 3547.53,3069.21 3523.19,3069.88 3498.5,3058C 3496.62,3056.9 3494.95,3055.56 3493.5,3054C 3497.28,3046.93 3501.45,3040.1 3506,3033.5C 3532.79,3048.48 3556.46,3044.48 3577,3021.5C 3591.94,3004.28 3598.94,2984.28 3598,2961.5C 3592.42,2937.3 3577.26,2924.8 3552.5,2924C 3539.46,2926.85 3528.13,2932.85 3518.5,2942C 3502.5,2959.33 3485.83,2976 3468.5,2992C 3439.1,3015.93 3409.1,3016.6 3378.5,2994C 3358.52,2977.53 3350.02,2956.36 3353,2930.5C 3358.87,2896.57 3374.71,2868.41 3400.5,2846C 3411.93,2837.44 3424.6,2831.94 3438.5,2829.5 Z"/></g>
<g><path style="opacity:0.956" fill="#14334a" d="M 1138.5,2914.5 C 1139.68,2914.28 1140.68,2914.61 1141.5,2915.5C 1145.71,2921.88 1149.71,2928.38 1153.5,2935C 1081.78,2982.28 1009.95,3029.45 938,3076.5C 933.001,3069.84 928.501,3062.84 924.5,3055.5C 924.977,3054.52 925.643,3053.69 926.5,3053C 997.403,3007.06 1068.07,2960.89 1138.5,2914.5 Z"/></g>
<g><path style="opacity:0.915" fill="#04344c" d="M 3127.5,3293.5 C 3128.24,3293.37 3128.91,3293.54 3129.5,3294C 3131.13,3296.63 3133.13,3298.96 3135.5,3301C 2965.68,3438.73 2773.35,3532.06 2558.5,3581C 2269.84,3643.27 1988.51,3619.61 1714.5,3510C 1587.99,3457.63 1471.99,3388.8 1366.5,3303.5C 1368.38,3300.91 1370.38,3298.41 1372.5,3296C 1373.17,3295.33 1373.83,3295.33 1374.5,3296C 1607.71,3481.67 1874.05,3583.67 2173.5,3602C 2504.11,3616.88 2803.44,3528.55 3071.5,3337C 3090.64,3323.02 3109.31,3308.52 3127.5,3293.5 Z"/></g>
</svg>
