<?xml version="1.0" encoding="UTF-8"?>
<!DOCTYPE svg PUBLIC "-//W3C//DTD SVG 1.1//EN" "http://www.w3.org/Graphics/SVG/1.1/DTD/svg11.dtd">
<svg xmlns="http://www.w3.org/2000/svg" version="1.1" width="4500px" height="4500px" style="shape-rendering:geometricPrecision; text-rendering:geometricPrecision; image-rendering:optimizeQuality; fill-rule:evenodd; clip-rule:evenodd" xmlns:xlink="http://www.w3.org/1999/xlink">
<g><path style="opacity:0.999" fill="#e3e4d6" d="M 2191.5,716.5 C 2334.62,712.065 2476.28,724.232 2616.5,753C 2886.18,811.314 3120.51,934.314 3319.5,1122C 3482.89,1281.92 3602.39,1470.42 3678,1687.5C 3730.53,1842.51 3759.53,2001.84 3765,2165.5C 3772.41,2334.03 3756.74,2500.37 3718,2664.5C 3661.46,2895.27 3556.79,3100.27 3404,3279.5C 3252.32,3451.96 3069.49,3580.46 2855.5,3665C 2817.04,3678.74 2777.38,3685.58 2736.5,3685.5C 2688.56,3684.06 2641.22,3677.89 2594.5,3667C 2548.43,3656.32 2502.43,3645.32 2456.5,3634C 2392.96,3618.11 2328.46,3609.61 2263,3608.5C 2216.43,3608.82 2170.27,3613.32 2124.5,3622C 2058.59,3635.23 1992.92,3649.56 1927.5,3665C 1874.67,3677.12 1821.17,3683.96 1767,3685.5C 1727.91,3685.63 1689.74,3679.8 1652.5,3668C 1323.46,3539.28 1076.63,3318.78 912,3006.5C 803.938,2794.92 745.605,2570.26 737,2332.5C 727.676,2150.06 745.676,1970.39 791,1793.5C 855.738,1553.93 971.738,1343.93 1139,1163.5C 1295.69,1000.51 1481.19,881.341 1695.5,806C 1856.37,750.801 2021.7,720.968 2191.5,716.5 Z"/></g>
<g><path style="opacity:1" fill="#04344c" d="M 2228.5,1240.5 C 2336.02,1236.69 2422.19,1277.35 2487,1362.5C 2519.57,1413.94 2520.9,1466.27 2491,1519.5C 2467.43,1555.88 2433.93,1576.38 2390.5,1581C 2297.5,1581.67 2204.5,1581.67 2111.5,1581C 2052.35,1573.49 2013.52,1541.32 1995,1484.5C 1982.77,1439.79 1989.77,1398.45 2016,1360.5C 2069.49,1290 2140.33,1250 2228.5,1240.5 Z"/></g>
<g><path style="opacity:1" fill="#e3e4d6" d="M 2228.5,1316.5 C 2309.17,1312.09 2374.33,1341.43 2424,1404.5C 2437.96,1425.5 2440.29,1447.84 2431,1471.5C 2422.95,1490.44 2408.79,1501.61 2388.5,1505C 2296.17,1505.67 2203.83,1505.67 2111.5,1505C 2089.65,1499.49 2075.15,1485.99 2068,1464.5C 2061.1,1441.92 2064.76,1421.25 2079,1402.5C 2117.42,1354.04 2167.26,1325.37 2228.5,1316.5 Z"/></g>
<g><path style="opacity:1" fill="#04344c" d="M 2236.5,1653.5 C 2317.66,1651.18 2385.83,1679.51 2441,1738.5C 2540.96,1859.46 2641.29,1980.13 2742,2100.5C 2815.42,2187.64 2869.42,2285.98 2904,2395.5C 2931.23,2491.86 2943.4,2590.19 2940.5,2690.5C 2943.35,2765.7 2935.52,2839.7 2917,2912.5C 2906.51,2952.02 2889.51,2988.35 2866,3021.5C 2822.33,3076.28 2766.5,3095.11 2698.5,3078C 2675.38,3069.21 2655.88,3055.38 2640,3036.5C 2510.33,2880.17 2380.67,2723.83 2251,2567.5C 2120,2725.17 1989,2882.83 1858,3040.5C 1825.34,3075.39 1785.18,3089.89 1737.5,3084C 1699.1,3077.25 1667.27,3059.08 1642,3029.5C 1624.43,3007.7 1610.43,2983.7 1600,2957.5C 1583.45,2914.24 1572.45,2869.57 1567,2823.5C 1565.03,2804.86 1563.37,2786.19 1562,2767.5C 1561.09,2710.82 1561.42,2654.15 1563,2597.5C 1572.1,2422.42 1630.1,2266.09 1737,2128.5C 1845.96,1996.54 1955.29,1864.87 2065,1733.5C 2111.97,1685.1 2169.14,1658.43 2236.5,1653.5 Z"/></g>
<g><path style="opacity:1" fill="#e3e4d6" d="M 2234.5,1729.5 C 2294.72,1726.28 2345.22,1746.62 2386,1790.5C 2454.69,1873.02 2523.19,1955.69 2591.5,2038.5C 2478.3,2175.58 2364.63,2312.24 2250.5,2448.5C 2136.96,2312.13 2023.63,2175.63 1910.5,2039C 1915.27,2031.89 1920.43,2025.06 1926,2018.5C 1981.91,1951.68 2037.57,1884.68 2093,1817.5C 2104.13,1804.04 2115.63,1790.87 2127.5,1778C 2157.97,1750.43 2193.64,1734.26 2234.5,1729.5 Z"/></g>
<g><path style="opacity:1" fill="#e3e4d6" d="M 2639.5,2098.5 C 2685.42,2147.26 2725.92,2200.26 2761,2257.5C 2826.48,2369.83 2860.81,2491.16 2864,2621.5C 2864.67,2668.5 2864.67,2715.5 2864,2762.5C 2861.82,2818.45 2851.49,2872.78 2833,2925.5C 2825.48,2945.55 2815.15,2963.89 2802,2980.5C 2780.36,3005.49 2753.53,3013.99 2721.5,3006C 2714.39,3002.36 2707.89,2997.86 2702,2992.5C 2567.78,2831.28 2433.94,2669.78 2300.5,2508C 2413.72,2371.62 2526.72,2235.12 2639.5,2098.5 Z"/></g>
<g><path style="opacity:1" fill="#e3e4d6" d="M 1859.5,2098.5 C 1861.37,2098.86 1862.87,2099.86 1864,2101.5C 1976.12,2237.29 2088.62,2372.79 2201.5,2508C 2066.25,2671.92 1930.25,2835.25 1793.5,2998C 1768.04,3013.56 1742.71,3013.22 1717.5,2997C 1698.78,2981.61 1684.62,2962.78 1675,2940.5C 1658.07,2900.11 1647.07,2858.11 1642,2814.5C 1639.76,2795.55 1638.09,2776.55 1637,2757.5C 1636.19,2710.16 1636.53,2662.82 1638,2615.5C 1643.54,2448.49 1697.88,2299.83 1801,2169.5C 1820.71,2145.96 1840.21,2122.29 1859.5,2098.5 Z"/></g>
<g><path style="opacity:1" fill="#f9c550" d="M 2231.5,2872.5 C 2290.96,2870.22 2336.12,2894.22 2367,2944.5C 2390.29,2990.18 2390.29,3035.85 2367,3081.5C 2341.81,3123.85 2304.64,3147.69 2255.5,3153C 2197.24,3155.12 2152.74,3131.62 2122,3082.5C 2103.32,3047.1 2099.32,3010.1 2110,2971.5C 2130.74,2914.22 2171.24,2881.22 2231.5,2872.5 Z"/></g>
</svg>
