<?xml version="1.0" encoding="UTF-8"?>
<!DOCTYPE svg PUBLIC "-//W3C//DTD SVG 1.1//EN" "http://www.w3.org/Graphics/SVG/1.1/DTD/svg11.dtd">
<svg xmlns="http://www.w3.org/2000/svg" version="1.1" width="4500px" height="4500px" style="shape-rendering:geometricPrecision; text-rendering:geometricPrecision; image-rendering:optimizeQuality; fill-rule:evenodd; clip-rule:evenodd" xmlns:xlink="http://www.w3.org/1999/xlink">
<g><path style="opacity:0.996" fill="#5e80b7" d="M 2244.5,986.5 C 2364.82,989.072 2460.98,1038.07 2533,1133.5C 2563.36,1179.75 2569.36,1229.08 2551,1281.5C 2528.87,1336.63 2488.37,1368.13 2429.5,1376C 2309.5,1376.67 2189.5,1376.67 2069.5,1376C 2016.54,1369.78 1978.04,1342.95 1954,1295.5C 1926.63,1233.17 1933.63,1175.17 1975,1121.5C 2044.55,1036.48 2134.38,991.475 2244.5,986.5 Z"/></g>
<g><path style="opacity:0.998" fill="#14334a" d="M 2750.5,1987.5 C 2584.91,2186.94 2419.07,2386.27 2253,2585.5C 2251.12,2587.53 2249.95,2589.86 2249.5,2592.5C 2069.11,2808.91 1888.95,3025.58 1709,3242.5C 1677.79,3275.46 1639.62,3288.29 1594.5,3281C 1568.53,3276.51 1545.53,3265.85 1525.5,3249C 1500.62,3226.11 1481.12,3199.28 1467,3168.5C 1440.5,3106.82 1424.16,3042.49 1418,2975.5C 1415.54,2953.23 1413.87,2930.89 1413,2908.5C 1412.33,2855.5 1412.33,2802.5 1413,2749.5C 1415.6,2532.05 1480.26,2335.72 1607,2160.5C 1622.61,2138.96 1638.94,2117.96 1656,2097.5C 1784,1943.5 1912,1789.5 2040,1635.5C 2110.64,1560.51 2197.14,1530.67 2299.5,1546C 2362.68,1558.33 2415.85,1588.17 2459,1635.5C 2556.38,1752.71 2653.55,1870.04 2750.5,1987.5 Z"/></g>
<g><path style="opacity:0.998" fill="#5d7fb6" d="M 2750.5,1987.5 C 2794.89,2039.39 2838.39,2092.06 2881,2145.5C 3009.43,2315.74 3077.43,2508.08 3085,2722.5C 3086.55,2784.49 3086.89,2846.49 3086,2908.5C 3083.82,2982.92 3071.49,3055.59 3049,3126.5C 3036.97,3163.57 3018.97,3197.24 2995,3227.5C 2975.43,3250.73 2951.27,3267.23 2922.5,3277C 2878,3290.09 2837.67,3282.42 2801.5,3254C 2797.67,3250.17 2793.83,3246.33 2790,3242.5C 2610.05,3025.58 2429.89,2808.91 2249.5,2592.5C 2249.95,2589.86 2251.12,2587.53 2253,2585.5C 2419.07,2386.27 2584.91,2186.94 2750.5,1987.5 Z"/></g>
<g><path style="opacity:0.995" fill="#f9c54f" d="M 2237.5,3057.5 C 2316.22,3059.79 2372.72,3096.12 2407,3166.5C 2433.18,3234.93 2423.84,3297.93 2379,3355.5C 2327.64,3410.64 2265.14,3429.47 2191.5,3412C 2124.6,3390.44 2082.44,3345.6 2065,3277.5C 2051.47,3200.73 2075.3,3138.56 2136.5,3091C 2167.01,3070.11 2200.68,3058.94 2237.5,3057.5 Z"/></g>
</svg>
