<?xml version="1.0" encoding="UTF-8"?>
<!DOCTYPE svg PUBLIC "-//W3C//DTD SVG 1.1//EN" "http://www.w3.org/Graphics/SVG/1.1/DTD/svg11.dtd">
<svg xmlns="http://www.w3.org/2000/svg" version="1.1" width="4500px" height="4500px" style="shape-rendering:geometricPrecision; text-rendering:geometricPrecision; image-rendering:optimizeQuality; fill-rule:evenodd; clip-rule:evenodd" xmlns:xlink="http://www.w3.org/1999/xlink">
<g><path style="opacity:0.959" fill="#e3e5d6" d="M 2089.5,632.5 C 2111.82,630.529 2132.49,635.363 2151.5,647C 2169.04,660.735 2179.04,678.735 2181.5,701C 2173.33,702.687 2164.99,703.854 2156.5,704.5C 2154.79,679.951 2142.12,664.118 2118.5,657C 2094.34,651.642 2071.67,655.309 2050.5,668C 2030.5,684.339 2026,704.172 2037,727.5C 2042.69,734.853 2049.86,740.353 2058.5,744C 2065.96,746.782 2073.63,748.782 2081.5,750C 2103.98,752.434 2126.31,755.768 2148.5,760C 2183.65,768.838 2201.32,791.505 2201.5,828C 2200.25,859.831 2184.92,881.831 2155.5,894C 2127.84,904.599 2099.51,906.933 2070.5,901C 2034.78,890.096 2015.44,865.929 2012.5,828.5C 2020.85,828.032 2029.18,827.365 2037.5,826.5C 2044.39,863.061 2066.56,881.727 2104,882.5C 2123.49,882.779 2141.32,877.612 2157.5,867C 2173.63,852.94 2179.13,835.44 2174,814.5C 2169.62,800.453 2160.45,790.953 2146.5,786C 2140.95,783.928 2135.29,782.262 2129.5,781C 2109.85,777.918 2090.18,774.918 2070.5,772C 2054.33,769.504 2039.67,763.504 2026.5,754C 2010.22,737.49 2003.72,717.656 2007,694.5C 2011.93,670.233 2025.76,653.066 2048.5,643C 2061.77,637.434 2075.43,633.934 2089.5,632.5 Z"/></g>
<g><path style="opacity:0.962" fill="#e3e5d6" d="M 2543.5,655.5 C 2580.6,664.858 2617.6,674.691 2654.5,685C 2700.58,701.953 2723.25,735.119 2722.5,784.5C 2721.66,818.866 2713.16,851.2 2697,881.5C 2673.11,923.192 2637.28,940.359 2589.5,933C 2552.68,924.794 2516.01,915.961 2479.5,906.5C 2500.37,822.69 2521.7,739.023 2543.5,655.5 Z M 2562.5,683.5 C 2589.7,689.883 2616.7,697.05 2643.5,705C 2675.39,716.237 2693.22,738.737 2697,772.5C 2698.4,811.229 2688.74,846.896 2668,879.5C 2649.47,904.333 2624.64,914.833 2593.5,911C 2587.46,910.216 2581.46,909.216 2575.5,908C 2553.57,902.183 2531.57,896.683 2509.5,891.5C 2527.17,822.167 2544.83,752.834 2562.5,683.5 Z"/></g>
<g><path style="opacity:0.96" fill="#e3e5d6" d="M 1830.5,684.5 C 1831.82,684.33 1832.99,684.663 1834,685.5C 1852,738.167 1870,790.833 1888,843.5C 1905.66,901.34 1886.82,941.84 1831.5,965C 1767.9,989.439 1723.4,970.272 1698,907.5C 1680.13,854.721 1661.96,802.054 1643.5,749.5C 1651.59,746.027 1659.92,743.36 1668.5,741.5C 1685.7,792.907 1703.2,844.241 1721,895.5C 1743.39,953.746 1782.22,967.913 1837.5,938C 1858.27,926.304 1868.6,908.471 1868.5,884.5C 1868.17,871.523 1866,858.857 1862,846.5C 1844.6,795.463 1827.1,744.463 1809.5,693.5C 1810.09,692.201 1811.09,691.368 1812.5,691C 1818.71,689.099 1824.71,686.932 1830.5,684.5 Z"/></g>
<g><path style="opacity:0.956" fill="#e3e5d6" d="M 2902.5,771.5 C 2953.38,796.943 3004.05,822.943 3054.5,849.5C 3054.83,850.167 3055.17,850.833 3055.5,851.5C 3052.68,857.13 3049.85,862.797 3047,868.5C 3045.95,869.517 3044.78,869.684 3043.5,869C 3001.08,846.706 2958.58,824.539 2916,802.5C 2901.96,829.412 2887.79,856.246 2873.5,883C 2911.85,903.843 2950.52,924.176 2989.5,944C 2990.52,945.049 2990.68,946.216 2990,947.5C 2987.08,952.341 2984.41,957.341 2982,962.5C 2980.95,963.517 2979.78,963.684 2978.5,963C 2940.25,943.294 2902.09,923.461 2864,903.5C 2848.41,932.342 2833.08,961.342 2818,990.5C 2817.25,991.635 2817.42,992.635 2818.5,993.5C 2861.68,1016.26 2905.01,1038.76 2948.5,1061C 2949.52,1062.05 2949.68,1063.22 2949,1064.5C 2946.34,1070.49 2943.17,1076.16 2939.5,1081.5C 2889.17,1055.33 2838.83,1029.17 2788.5,1003C 2786.94,1002.06 2785.61,1000.89 2784.5,999.5C 2824.29,923.714 2863.63,847.714 2902.5,771.5 Z"/></g>
<g><path style="opacity:0.955" fill="#e3e5d6" d="M 1503.5,815.5 C 1504.68,815.281 1505.68,815.614 1506.5,816.5C 1508.75,820.668 1511.25,824.668 1514,828.5C 1515.3,830.402 1515.97,832.402 1516,834.5C 1493.17,848.667 1470.33,862.833 1447.5,877C 1489.03,943.701 1530.36,1010.53 1571.5,1077.5C 1564.74,1082.27 1557.74,1086.6 1550.5,1090.5C 1546.87,1086.6 1543.7,1082.26 1541,1077.5C 1502.96,1015.25 1464.79,953.083 1426.5,891C 1402.94,903.877 1379.77,917.71 1357,932.5C 1352.92,926.669 1349.08,920.669 1345.5,914.5C 1398.18,881.473 1450.85,848.473 1503.5,815.5 Z"/></g>
<g><path style="opacity:0.959" fill="#e3e5d6" d="M 3198.5,975.5 C 3225.14,975.437 3249.14,983.27 3270.5,999C 3285.76,1009.59 3298.26,1022.76 3308,1038.5C 3323.05,1065.84 3324.39,1093.84 3312,1122.5C 3310.07,1127.36 3307.41,1131.7 3304,1135.5C 3297.39,1130.56 3291.05,1125.22 3285,1119.5C 3287.83,1112.7 3290.49,1105.7 3293,1098.5C 3298.6,1076.84 3294.6,1057.17 3281,1039.5C 3240.23,991.873 3195.06,987.373 3145.5,1026C 3116.43,1050.07 3096.6,1080.24 3086,1116.5C 3081.46,1140.66 3086.79,1162.33 3102,1181.5C 3138.6,1221.55 3179.1,1225.89 3223.5,1194.5C 3230.21,1200.18 3236.87,1205.84 3243.5,1211.5C 3203.7,1243.13 3161.36,1246.96 3116.5,1223C 3096.57,1210.4 3080.74,1193.9 3069,1173.5C 3056.68,1145.03 3056.35,1116.36 3068,1087.5C 3088.08,1041.75 3120.25,1007.25 3164.5,984C 3175.57,979.565 3186.91,976.731 3198.5,975.5 Z"/></g>
<g><path style="opacity:0.957" fill="#e3e5d6" d="M 1034.5,1204.5 C 1122.46,1232.38 1210.12,1261.04 1297.5,1290.5C 1292.55,1297.46 1287.21,1304.12 1281.5,1310.5C 1254.61,1301.26 1227.78,1291.93 1201,1282.5C 1175.93,1312.4 1151.43,1342.73 1127.5,1373.5C 1141.83,1398.17 1156.17,1422.83 1170.5,1447.5C 1165.57,1454.6 1160.07,1461.27 1154,1467.5C 1108.92,1387.67 1063.59,1308 1018,1228.5C 1017.48,1226.71 1017.81,1225.04 1019,1223.5C 1024.65,1217.5 1029.82,1211.17 1034.5,1204.5 Z M 1044.5,1231.5 C 1089.06,1245.63 1133.39,1260.46 1177.5,1276C 1156.99,1301.34 1136.33,1326.5 1115.5,1351.5C 1091.31,1311.77 1067.64,1271.77 1044.5,1231.5 Z"/></g>
<g><path style="opacity:0.955" fill="#e3e5d6" d="M 3463.5,1206.5 C 3465.39,1206.3 3466.89,1206.96 3468,1208.5C 3471.95,1214.12 3476.29,1219.46 3481,1224.5C 3481.62,1225.45 3481.45,1226.28 3480.5,1227C 3414.28,1280.89 3347.78,1334.39 3281,1387.5C 3275.79,1382.12 3270.79,1376.45 3266,1370.5C 3265.37,1368.1 3266.2,1366.26 3268.5,1365C 3333.98,1312.68 3398.98,1259.85 3463.5,1206.5 Z"/></g>
<g><path style="opacity:0.994" fill="#5e80b7" d="M 2237.5,1338.5 C 2327.6,1337.47 2399.43,1372.8 2453,1444.5C 2476.89,1484.4 2477.56,1524.73 2455,1565.5C 2435.84,1595.67 2408.34,1611.84 2372.5,1614C 2291.17,1614.67 2209.83,1614.67 2128.5,1614C 2080.7,1609.55 2049.54,1584.38 2035,1538.5C 2025.06,1502.21 2031.06,1468.88 2053,1438.5C 2099.99,1378.59 2161.49,1345.25 2237.5,1338.5 Z"/></g>
<g><path style="opacity:0.959" fill="#e3e5d6" d="M 3547.5,1382.5 C 3570.67,1381.06 3590.67,1388.22 3607.5,1404C 3625.12,1421.73 3636.62,1442.9 3642,1467.5C 3647.26,1502.64 3634.59,1528.97 3604,1546.5C 3599.47,1539.95 3595.3,1533.11 3591.5,1526C 3614.29,1512.93 3623.45,1493.43 3619,1467.5C 3613.14,1442.66 3599.31,1423.83 3577.5,1411C 3556.22,1402.76 3538.05,1407.26 3523,1424.5C 3518.09,1432.3 3515.92,1440.8 3516.5,1450C 3516.41,1457.27 3517.24,1464.44 3519,1471.5C 3525.94,1493.92 3531.94,1516.59 3537,1539.5C 3543.23,1577.56 3528.39,1603.39 3492.5,1617C 3466.34,1625.92 3442.67,1621.58 3421.5,1604C 3397.98,1582.47 3383.15,1555.97 3377,1524.5C 3372.87,1489.6 3385.7,1463.1 3415.5,1445C 3417.04,1443.81 3418.71,1443.48 3420.5,1444C 3424.43,1450.52 3428.09,1457.19 3431.5,1464C 3399.55,1486.69 3392.05,1515.85 3409,1551.5C 3415.41,1565.49 3424.57,1577.32 3436.5,1587C 3456.72,1599.9 3476.72,1599.57 3496.5,1586C 3507.91,1576.94 3513.24,1565.11 3512.5,1550.5C 3512.31,1541.71 3511.15,1533.04 3509,1524.5C 3503.53,1505.62 3498.53,1486.62 3494,1467.5C 3485.56,1422.34 3503.39,1394.01 3547.5,1382.5 Z"/></g>
<g><path style="opacity:0.96" fill="#e3e5d6" d="M 871.5,1437.5 C 944.043,1471.1 1016.38,1505.27 1088.5,1540C 1094.19,1542.51 1099.52,1545.51 1104.5,1549C 1101.08,1557.35 1097.24,1565.51 1093,1573.5C 1091.93,1574.19 1090.77,1574.69 1089.5,1575C 1002.43,1586.76 915.431,1598.93 828.5,1611.5C 894.669,1643.62 961.003,1675.45 1027.5,1707C 1028.52,1708.05 1028.68,1709.22 1028,1710.5C 1024.75,1717.32 1021.25,1723.99 1017.5,1730.5C 939.937,1693.6 862.603,1656.44 785.5,1619C 786,1617.5 786.5,1616 787,1614.5C 790.733,1607.71 793.899,1600.71 796.5,1593.5C 885.309,1581.82 973.976,1569.32 1062.5,1556C 995.712,1524.44 929.045,1492.61 862.5,1460.5C 861.417,1459.64 861.251,1458.64 862,1457.5C 865.451,1450.93 868.618,1444.27 871.5,1437.5 Z"/></g>
<g><path style="opacity:0.959" fill="#e3e5d6" d="M 3727.5,1668.5 C 3728.5,1668.41 3729.33,1668.75 3730,1669.5C 3732.7,1676.59 3735.2,1683.76 3737.5,1691C 3737.36,1691.77 3737.02,1692.44 3736.5,1693C 3656.05,1721.2 3575.72,1749.7 3495.5,1778.5C 3492.04,1771.3 3489.04,1763.8 3486.5,1756C 3486.64,1755.23 3486.98,1754.56 3487.5,1754C 3567.64,1725.57 3647.64,1697.07 3727.5,1668.5 Z"/></g>
<g><path style="opacity:0.998" fill="#e3e4d6" d="M 2605.5,2045.5 C 2604.5,2045.41 2603.67,2045.75 2603,2046.5C 2487.04,2186.79 2370.71,2326.79 2254,2466.5C 2252.58,2468.4 2251.41,2470.4 2250.5,2472.5C 2124.17,2624.33 1998,2776.33 1872,2928.5C 1841.72,2960.83 1805.89,2968.66 1764.5,2952C 1738.72,2939.22 1719.22,2920.05 1706,2894.5C 1684.93,2852.9 1671.6,2808.9 1666,2762.5C 1662.92,2739.93 1660.92,2717.26 1660,2694.5C 1658.67,2639.45 1659.67,2584.45 1663,2529.5C 1673.86,2394.56 1719.19,2272.89 1799,2164.5C 1809.43,2150.65 1820.09,2136.99 1831,2123.5C 1919.57,2017.35 2007.91,1911.02 2096,1804.5C 2143.29,1748.84 2203.46,1724.67 2276.5,1732C 2324.49,1739.08 2364.99,1760.24 2398,1795.5C 2467.38,1878.71 2536.54,1962.04 2605.5,2045.5 Z"/></g>
<g><path style="opacity:0.961" fill="#e3e5d6" d="M 731.5,1788.5 C 814.993,1810.04 898.326,1832.21 981.5,1855C 978.799,1862.64 976.799,1870.47 975.5,1878.5C 892.405,1857.14 809.405,1835.31 726.5,1813C 725.941,1812.28 725.608,1811.44 725.5,1810.5C 727.504,1803.15 729.504,1795.81 731.5,1788.5 Z"/></g>
<g><path style="opacity:0.961" fill="#e3e5d6" d="M 3673.5,1870.5 C 3703.43,1868.04 3731.76,1873.54 3758.5,1887C 3789.86,1906.06 3808.02,1933.89 3813,1970.5C 3820.17,2032.67 3795,2075.84 3737.5,2100C 3694.55,2116.17 3651.55,2116.51 3608.5,2101C 3570.91,2082.04 3549.41,2051.54 3544,2009.5C 3538.17,1945.68 3565.33,1902.84 3625.5,1881C 3641.29,1875.88 3657.29,1872.38 3673.5,1870.5 Z M 3679.5,1895.5 C 3707.71,1893.57 3733.71,1900.07 3757.5,1915C 3780.98,1934.31 3792.65,1959.31 3792.5,1990C 3790.77,2030.11 3771.44,2058.11 3734.5,2074C 3698.59,2088.93 3661.92,2091.26 3624.5,2081C 3584.65,2065.04 3564.65,2035.37 3564.5,1992C 3565.34,1960.64 3578.67,1936.31 3604.5,1919C 3627.8,1905.4 3652.8,1897.56 3679.5,1895.5 Z"/></g>
<g><path style="opacity:0.963" fill="#e3e5d6" d="M 685.5,1987.5 C 771.529,1992.59 857.529,1997.92 943.5,2003.5C 943.024,2011.83 942.691,2020.16 942.5,2028.5C 866.82,2023.79 791.153,2019.29 715.5,2015C 788.716,2047.44 862.049,2079.61 935.5,2111.5C 936.575,2119.83 936.575,2128.16 935.5,2136.5C 858.095,2159.36 780.762,2182.52 703.5,2206C 779.161,2211.01 854.828,2215.84 930.5,2220.5C 929.942,2228.49 929.442,2236.49 929,2244.5C 927.431,2245.12 925.764,2245.46 924,2245.5C 840.511,2240.19 757.011,2235.02 673.5,2230C 672.248,2227.96 671.581,2225.63 671.5,2223C 672.271,2212.5 672.937,2202 673.5,2191.5C 750.34,2168.78 827.006,2145.44 903.5,2121.5C 830.648,2089.24 757.648,2057.24 684.5,2025.5C 684.167,2024.5 683.833,2023.5 683.5,2022.5C 684.706,2010.87 685.373,1999.2 685.5,1987.5 Z"/></g>
<g><path style="opacity:0.997" fill="#5e80b7" d="M 2605.5,2045.5 C 2638.38,2084.25 2670.54,2123.58 2702,2163.5C 2789.58,2282.78 2835.91,2416.78 2841,2565.5C 2842.42,2605.16 2842.75,2644.82 2842,2684.5C 2841.34,2740.46 2832.67,2795.13 2816,2848.5C 2805.56,2882.91 2787.39,2912.41 2761.5,2937C 2727.93,2962.8 2691.93,2966.8 2653.5,2949C 2648.83,2945.67 2644.17,2942.33 2639.5,2939C 2509.93,2783.34 2380.27,2627.84 2250.5,2472.5C 2251.41,2470.4 2252.58,2468.4 2254,2466.5C 2370.71,2326.79 2487.04,2186.79 2603,2046.5C 2603.67,2045.75 2604.5,2045.41 2605.5,2045.5 Z"/></g>
<g><path style="opacity:0.963" fill="#e3e5d6" d="M 3568.5,2237.5 C 3654.17,2245.77 3739.84,2254.1 3825.5,2262.5C 3825.09,2272.23 3824.09,2281.89 3822.5,2291.5C 3743.68,2332.75 3665.01,2374.25 3586.5,2416C 3660.43,2424.09 3734.43,2431.59 3808.5,2438.5C 3807.54,2446.14 3806.7,2453.8 3806,2461.5C 3804.47,2462.72 3802.64,2463.39 3800.5,2463.5C 3716.43,2455.36 3632.43,2446.69 3548.5,2437.5C 3549.6,2427.94 3550.94,2418.44 3552.5,2409C 3631.17,2367.67 3709.83,2326.33 3788.5,2285C 3714.53,2277.17 3640.53,2269.67 3566.5,2262.5C 3567.23,2254.17 3567.9,2245.84 3568.5,2237.5 Z"/></g>
<g><path style="opacity:0.962" fill="#e3e5d6" d="M 863.5,2377.5 C 918.415,2374.59 951.915,2399.92 964,2453.5C 978.723,2518.71 953.89,2559.55 889.5,2576C 834.242,2587.05 779.075,2597.55 724,2607.5C 722.756,2599.95 721.256,2592.45 719.5,2585C 719.905,2584.05 720.572,2583.39 721.5,2583C 777.967,2572.31 834.3,2560.97 890.5,2549C 907.419,2544.46 921.919,2535.96 934,2523.5C 945.05,2507.44 948.717,2489.77 945,2470.5C 943.12,2453.18 937.12,2437.52 927,2423.5C 916.705,2412.1 903.872,2405.6 888.5,2404C 879.5,2403.33 870.5,2403.33 861.5,2404C 804.408,2414.39 747.408,2425.22 690.5,2436.5C 689.09,2428.45 687.423,2420.45 685.5,2412.5C 744.752,2399.78 804.086,2388.12 863.5,2377.5 Z"/></g>
<g><path style="opacity:0.958" fill="#e3e5d6" d="M 3521.5,2553.5 C 3602.7,2581.07 3683.86,2608.73 3765,2636.5C 3747.83,2690.67 3729.83,2744.67 3711,2798.5C 3710.59,2798.96 3710.09,2799.29 3709.5,2799.5C 3703.28,2797.09 3696.94,2795.09 3690.5,2793.5C 3705.32,2747.2 3720.66,2701.03 3736.5,2655C 3736.17,2654.5 3735.83,2654 3735.5,2653.5C 3707.23,2643.47 3678.9,2633.97 3650.5,2625C 3635.94,2666 3621.78,2707.17 3608,2748.5C 3607.59,2748.96 3607.09,2749.29 3606.5,2749.5C 3600.46,2747.43 3594.46,2745.27 3588.5,2743C 3587.98,2742.44 3587.64,2741.77 3587.5,2741C 3601.4,2699.8 3615.4,2658.63 3629.5,2617.5C 3597.92,2606.31 3566.25,2595.31 3534.5,2584.5C 3518.24,2631.45 3502.07,2678.45 3486,2725.5C 3485.44,2726.02 3484.77,2726.36 3484,2726.5C 3477.83,2724.39 3471.67,2722.39 3465.5,2720.5C 3483.76,2664.71 3502.43,2609.04 3521.5,2553.5 Z"/></g>
<g><path style="opacity:0.957" fill="#e3e5d6" d="M 1005.5,2652.5 C 1006.82,2652.33 1007.99,2652.66 1009,2653.5C 1029,2698.83 1049,2744.17 1069,2789.5C 1070.97,2793.4 1072.3,2797.4 1073,2801.5C 994.579,2836.47 916.079,2870.97 837.5,2905C 834.205,2898.24 831.038,2891.41 828,2884.5C 827.251,2883.36 827.417,2882.36 828.5,2881.5C 900.293,2850.1 971.96,2818.44 1043.5,2786.5C 1025.03,2745.06 1006.7,2703.56 988.5,2662C 988.645,2661.23 988.978,2660.56 989.5,2660C 995.045,2657.72 1000.38,2655.22 1005.5,2652.5 Z"/></g>
<g><path style="opacity:0.992" fill="#f9c54f" d="M 2228.5,2801.5 C 2293.47,2797.71 2338.97,2825.38 2365,2884.5C 2381.27,2936.92 2370.43,2982.75 2332.5,3022C 2291.31,3056.98 2245.31,3064.98 2194.5,3046C 2145.41,3022.37 2119.74,2983.2 2117.5,2928.5C 2120.34,2870.19 2148.67,2830.02 2202.5,2808C 2211.18,2805.37 2219.85,2803.2 2228.5,2801.5 Z"/></g>
<g><path style="opacity:0.957" fill="#e3e5d6" d="M 3437.5,2829.5 C 3457.58,2827.77 3475.91,2832.44 3492.5,2843.5C 3488.53,2850.63 3484.37,2857.63 3480,2864.5C 3449.7,2848.83 3423.04,2853.49 3400,2878.5C 3389.46,2891.25 3381.79,2905.59 3377,2921.5C 3371.95,2949.23 3382.12,2969.07 3407.5,2981C 3416.39,2984.98 3425.39,2985.32 3434.5,2982C 3441.78,2979.36 3448.44,2975.7 3454.5,2971C 3472.5,2953.67 3490.5,2936.33 3508.5,2919C 3541.76,2890.96 3574.26,2891.79 3606,2921.5C 3618.46,2937.34 3623.46,2955.34 3621,2975.5C 3615.29,3010.13 3598.12,3037.3 3569.5,3057C 3548.79,3068 3527.46,3069.34 3505.5,3061C 3501.14,3059.16 3497.14,3056.83 3493.5,3054C 3497.28,3046.93 3501.45,3040.1 3506,3033.5C 3528.25,3046.68 3549.41,3045.18 3569.5,3029C 3589.33,3010.85 3598.83,2988.35 3598,2961.5C 3592.27,2936.77 3576.77,2924.27 3551.5,2924C 3538.92,2927.12 3527.92,2933.12 3518.5,2942C 3502.5,2959.33 3485.83,2976 3468.5,2992C 3438.46,3016.31 3408.13,3016.65 3377.5,2993C 3358.15,2976.62 3349.98,2955.78 3353,2930.5C 3358.88,2896.57 3374.71,2868.4 3400.5,2846C 3411.7,2837.73 3424.03,2832.23 3437.5,2829.5 Z"/></g>
<g><path style="opacity:0.957" fill="#e3e5d6" d="M 1138.5,2914.5 C 1139.68,2914.28 1140.68,2914.61 1141.5,2915.5C 1145.33,2921.17 1149.17,2926.83 1153,2932.5C 1153.71,2934.37 1153.21,2935.87 1151.5,2937C 1081,2982.75 1010.66,3028.75 940.5,3075C 938.633,3075.71 937.133,3075.21 936,3073.5C 931.969,3067.63 928.136,3061.63 924.5,3055.5C 995.519,3007.99 1066.85,2960.99 1138.5,2914.5 Z"/></g>
<g><path style="opacity:0.916" fill="#e3e5d6" d="M 3126.5,3293.5 C 3127.55,3293.35 3128.55,3293.52 3129.5,3294C 3131.31,3296.64 3133.31,3299.14 3135.5,3301.5C 2892.53,3496.14 2614.53,3600.31 2301.5,3614C 1973.26,3623.35 1676.93,3532.01 1412.5,3340C 1396.95,3328.06 1381.61,3315.9 1366.5,3303.5C 1368.38,3300.91 1370.38,3298.41 1372.5,3296C 1373.17,3295.33 1373.83,3295.33 1374.5,3296C 1614.72,3486.83 1889.05,3589.16 2197.5,3603C 2532.48,3612.1 2833.15,3516.44 3099.5,3316C 3108.94,3308.96 3117.94,3301.46 3126.5,3293.5 Z"/></g>
</svg>
